<svg xmlns="http://www.w3.org/2000/svg" xmlns:xlink="http://www.w3.org/1999/xlink" viewBox="0 0 215.1 291.56"><defs><style>.cls-1{isolation:isolate;}.cls-2{fill:#d27a86;}.cls-100,.cls-101,.cls-102,.cls-11,.cls-12,.cls-14,.cls-15,.cls-16,.cls-17,.cls-18,.cls-19,.cls-2,.cls-20,.cls-21,.cls-22,.cls-23,.cls-24,.cls-25,.cls-26,.cls-27,.cls-28,.cls-29,.cls-3,.cls-31,.cls-32,.cls-33,.cls-34,.cls-35,.cls-36,.cls-37,.cls-38,.cls-39,.cls-4,.cls-47,.cls-50,.cls-52,.cls-53,.cls-55,.cls-56,.cls-63,.cls-64,.cls-65,.cls-67,.cls-68,.cls-69,.cls-70,.cls-71,.cls-72,.cls-73,.cls-74,.cls-75,.cls-76,.cls-78,.cls-79,.cls-80,.cls-81,.cls-82,.cls-83,.cls-84,.cls-85,.cls-86,.cls-87,.cls-88,.cls-89,.cls-90,.cls-91,.cls-92,.cls-93,.cls-94,.cls-95,.cls-96,.cls-97,.cls-98,.cls-99{fill-rule:evenodd;}.cls-20,.cls-29,.cls-3,.cls-33,.cls-35,.cls-36,.cls-63,.cls-64,.cls-65,.cls-70,.cls-92{opacity:0.5;}.cls-19,.cls-20,.cls-23,.cls-25,.cls-29,.cls-3,.cls-31,.cls-32,.cls-33,.cls-35,.cls-36,.cls-37,.cls-38,.cls-39,.cls-52,.cls-56,.cls-58,.cls-59,.cls-63,.cls-64,.cls-65,.cls-67,.cls-68,.cls-69,.cls-70,.cls-72,.cls-80,.cls-92{mix-blend-mode:multiply;}.cls-3{fill:url(#Áåçûìÿííûé_ãðàäèåíò_116);}.cls-4{fill:#202c51;}.cls-5{fill:url(#Áåçûìÿííûé_ãðàäèåíò_22);}.cls-6{fill:#72184d;}.cls-7{fill:#2f0631;}.cls-74,.cls-8{fill:#a62e4c;}.cls-9{fill:url(#Áåçûìÿííûé_ãðàäèåíò_314);}.cls-10{fill:url(#Áåçûìÿííûé_ãðàäèåíò_314-2);}.cls-11{fill:url(#Áåçûìÿííûé_ãðàäèåíò_61);}.cls-12{fill:url(#Áåçûìÿííûé_ãðàäèåíò_259);}.cls-13{fill:url(#Áåçûìÿííûé_ãðàäèåíò_22-2);}.cls-14{fill:#a4184d;}.cls-15{fill:url(#Áåçûìÿííûé_ãðàäèåíò_61-2);}.cls-16{fill:#6f3e72;}.cls-17{fill:url(#Áåçûìÿííûé_ãðàäèåíò_61-3);}.cls-18{fill:url(#Áåçûìÿííûé_ãðàäèåíò_287);}.cls-19{fill:#a9439a;}.cls-19,.cls-25{opacity:0.6;}.cls-20{fill:url(#Áåçûìÿííûé_ãðàäèåíò_15);}.cls-21{fill:url(#Áåçûìÿííûé_ãðàäèåíò_287-2);}.cls-22{fill:url(#Áåçûìÿííûé_ãðàäèåíò_287-3);}.cls-23{opacity:0.78;fill:url(#Áåçûìÿííûé_ãðàäèåíò_304);}.cls-24{fill:url(#Áåçûìÿííûé_ãðàäèåíò_267);}.cls-25{fill:#8b2f9a;}.cls-26{fill:#67153b;}.cls-27{fill:url(#Áåçûìÿííûé_ãðàäèåíò_392);}.cls-28{fill:url(#Áåçûìÿííûé_ãðàäèåíò_392-2);}.cls-29{fill:url(#Áåçûìÿííûé_ãðàäèåíò_116-2);}.cls-30{fill:url(#Áåçûìÿííûé_ãðàäèåíò_314-3);}.cls-31,.cls-32,.cls-37,.cls-38,.cls-39,.cls-52,.cls-58,.cls-59,.cls-67,.cls-68,.cls-76,.cls-77,.cls-80{opacity:0.8;}.cls-31{fill:url(#Áåçûìÿííûé_ãðàäèåíò_409);}.cls-32{fill:url(#Áåçûìÿííûé_ãðàäèåíò_409-2);}.cls-33{fill:url(#Áåçûìÿííûé_ãðàäèåíò_409-3);}.cls-34{fill:#a64a4c;}.cls-35{fill:url(#Áåçûìÿííûé_ãðàäèåíò_116-3);}.cls-36{fill:url(#Áåçûìÿííûé_ãðàäèåíò_308);}.cls-37{fill:url(#Áåçûìÿííûé_ãðàäèåíò_409-4);}.cls-38{fill:url(#Áåçûìÿííûé_ãðàäèåíò_308-2);}.cls-39{fill:url(#Áåçûìÿííûé_ãðàäèåíò_409-5);}.cls-40{fill:url(#Áåçûìÿííûé_ãðàäèåíò_314-4);}.cls-41{fill:url(#Áåçûìÿííûé_ãðàäèåíò_292);}.cls-42{fill:url(#Áåçûìÿííûé_ãðàäèåíò_19);}.cls-43{fill:url(#Áåçûìÿííûé_ãðàäèåíò_19-2);}.cls-44{fill:#522430;}.cls-45{fill:#ffe0ef;}.cls-46{fill:url(#Áåçûìÿííûé_ãðàäèåíò_117);}.cls-47{fill:#d2676c;}.cls-48{fill:#522730;}.cls-49{fill:url(#Áåçûìÿííûé_ãðàäèåíò_117-2);}.cls-50{fill:#d15966;}.cls-51{fill:#fff;}.cls-52{fill:url(#Áåçûìÿííûé_ãðàäèåíò_409-6);}.cls-53{fill:#d2726c;}.cls-54,.cls-76,.cls-77{mix-blend-mode:soft-light;}.cls-54{fill:url(#Áåçûìÿííûé_ãðàäèåíò_18);}.cls-55{fill:#9d1844;}.cls-56{opacity:0.91;fill:url(#Áåçûìÿííûé_ãðàäèåíò_73);}.cls-57{fill:#b14d63;}.cls-58{fill:url(#Áåçûìÿííûé_ãðàäèåíò_409-7);}.cls-59{fill:url(#Áåçûìÿííûé_ãðàäèåíò_409-8);}.cls-60{fill:url(#Áåçûìÿííûé_ãðàäèåíò_19-3);}.cls-61{fill:url(#Áåçûìÿííûé_ãðàäèåíò_299);}.cls-62{fill:url(#Áåçûìÿííûé_ãðàäèåíò_299-2);}.cls-63{fill:url(#Áåçûìÿííûé_ãðàäèåíò_15-2);}.cls-64{fill:url(#Áåçûìÿííûé_ãðàäèåíò_15-3);}.cls-65{fill:url(#Áåçûìÿííûé_ãðàäèåíò_15-4);}.cls-66{fill:url(#Áåçûìÿííûé_ãðàäèåíò_14);}.cls-67{fill:url(#Áåçûìÿííûé_ãðàäèåíò_409-9);}.cls-68{fill:url(#Áåçûìÿííûé_ãðàäèåíò_409-10);}.cls-69,.cls-72{opacity:0.3;}.cls-69{fill:url(#Áåçûìÿííûé_ãðàäèåíò_409-11);}.cls-70,.cls-72{fill:#523e7a;}.cls-71{fill:url(#Áåçûìÿííûé_ãðàäèåíò_244);}.cls-73{fill:#52a2c4;}.cls-75{fill:url(#Áåçûìÿííûé_ãðàäèåíò_61-4);}.cls-76,.cls-77{fill:#5cffff;}.cls-78{fill:url(#Áåçûìÿííûé_ãðàäèåíò_88);}.cls-79{fill:url(#Áåçûìÿííûé_ãðàäèåíò_203);}.cls-80{fill:#886d8d;}.cls-81{fill:url(#Áåçûìÿííûé_ãðàäèåíò_151);}.cls-82{fill:url(#Áåçûìÿííûé_ãðàäèåíò_151-2);}.cls-83{fill:url(#Áåçûìÿííûé_ãðàäèåíò_151-3);}.cls-84{fill:#664a63;}.cls-85{fill:url(#Áåçûìÿííûé_ãðàäèåíò_42);}.cls-86{fill:#40244d;}.cls-87{fill:url(#Áåçûìÿííûé_ãðàäèåíò_151-4);}.cls-88{fill:url(#Áåçûìÿííûé_ãðàäèåíò_151-5);}.cls-89{fill:url(#Áåçûìÿííûé_ãðàäèåíò_151-6);}.cls-90{fill:url(#Áåçûìÿííûé_ãðàäèåíò_46);}.cls-91{fill:url(#Áåçûìÿííûé_ãðàäèåíò_37);}.cls-92{fill:#421045;}.cls-93{fill:url(#Áåçûìÿííûé_ãðàäèåíò_151-7);}.cls-94{fill:url(#Áåçûìÿííûé_ãðàäèåíò_151-8);}.cls-95{fill:url(#Áåçûìÿííûé_ãðàäèåíò_151-9);}.cls-96{fill:url(#Áåçûìÿííûé_ãðàäèåíò_42-2);}.cls-97{fill:url(#Áåçûìÿííûé_ãðàäèåíò_151-10);}.cls-98{fill:url(#Áåçûìÿííûé_ãðàäèåíò_151-11);}.cls-99{fill:url(#Áåçûìÿííûé_ãðàäèåíò_151-12);}.cls-100{fill:url(#Áåçûìÿííûé_ãðàäèåíò_46-2);}.cls-101{fill:url(#Áåçûìÿííûé_ãðàäèåíò_37-2);}.cls-102{fill:#ffdb68;opacity:0.2;mix-blend-mode:screen;}</style><linearGradient id="Áåçûìÿííûé_ãðàäèåíò_116" x1="53.22" y1="31.56" x2="96.39" y2="31.56" gradientUnits="userSpaceOnUse"><stop offset="0.01" stop-color="#be6888"/><stop offset="1" stop-color="#b681f4"/></linearGradient><linearGradient id="Áåçûìÿííûé_ãðàäèåíò_22" x1="126.61" y1="239.05" x2="126.61" y2="207.59" gradientUnits="userSpaceOnUse"><stop offset="0" stop-color="#ff7459"/><stop offset="0.98" stop-color="#c75659"/></linearGradient><linearGradient id="Áåçûìÿííûé_ãðàäèåíò_314" x1="160.41" y1="126.23" x2="164.37" y2="103.78" gradientUnits="userSpaceOnUse"><stop offset="0.02" stop-color="#ffae78"/><stop offset="1" stop-color="#ff7763"/></linearGradient><linearGradient id="Áåçûìÿííûé_ãðàäèåíò_314-2" x1="186.34" y1="136.87" x2="192.76" y2="100.46" xlink:href="#Áåçûìÿííûé_ãðàäèåíò_314"/><radialGradient id="Áåçûìÿííûé_ãðàäèåíò_61" cx="85.13" cy="103.29" r="63.33" gradientUnits="userSpaceOnUse"><stop offset="0" stop-color="#ffd4cd"/><stop offset="0.97" stop-color="#ecc5c4"/></radialGradient><linearGradient id="Áåçûìÿííûé_ãðàäèåíò_259" x1="31.04" y1="165.88" x2="31.04" y2="136.79" gradientUnits="userSpaceOnUse"><stop offset="0" stop-color="#2a4b51"/><stop offset="1" stop-color="#202c51"/></linearGradient><linearGradient id="Áåçûìÿííûé_ãðàäèåíò_22-2" x1="55.28" y1="228.28" x2="55.28" y2="194.46" xlink:href="#Áåçûìÿííûé_ãðàäèåíò_22"/><radialGradient id="Áåçûìÿííûé_ãðàäèåíò_61-2" cx="148.85" cy="255.65" r="21.36" xlink:href="#Áåçûìÿííûé_ãðàäèåíò_61"/><radialGradient id="Áåçûìÿííûé_ãðàäèåíò_61-3" cx="66.21" cy="234.28" r="20.73" xlink:href="#Áåçûìÿííûé_ãðàäèåíò_61"/><linearGradient id="Áåçûìÿííûé_ãðàäèåíò_287" x1="70.79" y1="80.36" x2="70.79" y2="0.02" gradientUnits="userSpaceOnUse"><stop offset="0.01" stop-color="#7a1b4c"/><stop offset="1" stop-color="#b12952"/></linearGradient><linearGradient id="Áåçûìÿííûé_ãðàäèåíò_15" x1="40.78" y1="48.86" x2="87.91" y2="48.86" gradientUnits="userSpaceOnUse"><stop offset="0.01" stop-color="#be6888"/><stop offset="1" stop-color="#8e81f4"/></linearGradient><linearGradient id="Áåçûìÿííûé_ãðàäèåíò_287-2" x1="127.94" y1="124.18" x2="127.94" y2="84.15" xlink:href="#Áåçûìÿííûé_ãðàäèåíò_287"/><linearGradient id="Áåçûìÿííûé_ãðàäèåíò_287-3" x1="37.7" y1="95.99" x2="37.7" y2="54.84" xlink:href="#Áåçûìÿííûé_ãðàäèåíò_287"/><linearGradient id="Áåçûìÿííûé_ãðàäèåíò_304" x1="9.8" y1="103.29" x2="160.47" y2="103.29" gradientUnits="userSpaceOnUse"><stop offset="0.01" stop-color="#be6888"/><stop offset="1" stop-color="#cda9dd"/></linearGradient><linearGradient id="Áåçûìÿííûé_ãðàäèåíò_267" x1="105.41" y1="239.57" x2="105.41" y2="140.21" gradientUnits="userSpaceOnUse"><stop offset="0" stop-color="#618988"/><stop offset="1" stop-color="#365c75"/></linearGradient><linearGradient id="Áåçûìÿííûé_ãðàäèåíò_392" x1="115.45" y1="76.85" x2="115.45" y2="57.58" gradientUnits="userSpaceOnUse"><stop offset="0.01" stop-color="#442145"/><stop offset="0.98" stop-color="#5b454c"/></linearGradient><linearGradient id="Áåçûìÿííûé_ãðàäèåíò_392-2" x1="54.09" y1="68.04" x2="54.09" y2="37.81" xlink:href="#Áåçûìÿííûé_ãðàäèåíò_392"/><linearGradient id="Áåçûìÿííûé_ãðàäèåíò_116-2" x1="63.87" y1="108.24" x2="119.39" y2="108.24" xlink:href="#Áåçûìÿííûé_ãðàäèåíò_116"/><linearGradient id="Áåçûìÿííûé_ãðàäèåíò_314-3" x1="44.77" y1="106.74" x2="50.33" y2="75.18" xlink:href="#Áåçûìÿííûé_ãðàäèåíò_314"/><linearGradient id="Áåçûìÿííûé_ãðàäèåíò_409" x1="47.11" y1="109.99" x2="47.11" y2="83.41" gradientUnits="userSpaceOnUse"><stop offset="0" stop-color="#ffeadb"/><stop offset="0.99" stop-color="#b060f4"/></linearGradient><linearGradient id="Áåçûìÿííûé_ãðàäèåíò_409-2" x1="5.09" y1="95.66" x2="5.09" y2="88.8" xlink:href="#Áåçûìÿííûé_ãðàäèåíò_409"/><linearGradient id="Áåçûìÿííûé_ãðàäèåíò_409-3" x1="8.55" y1="86.61" x2="48.88" y2="86.61" xlink:href="#Áåçûìÿííûé_ãðàäèåíò_409"/><linearGradient id="Áåçûìÿííûé_ãðàäèåíò_116-3" x1="66.44" y1="94.75" x2="94.21" y2="94.75" xlink:href="#Áåçûìÿííûé_ãðàäèåíò_116"/><linearGradient id="Áåçûìÿííûé_ãðàäèåíò_308" x1="69.15" y1="109.78" x2="69.15" y2="105.61" gradientUnits="userSpaceOnUse"><stop offset="0.01" stop-color="#b060f4"/><stop offset="1" stop-color="#ffeadb"/></linearGradient><linearGradient id="Áåçûìÿííûé_ãðàäèåíò_409-4" x1="158.16" y1="128.3" x2="158.16" y2="101.98" xlink:href="#Áåçûìÿííûé_ãðàäèåíò_409"/><linearGradient id="Áåçûìÿííûé_ãðàäèåíò_308-2" x1="169.43" y1="121.44" x2="201.14" y2="121.44" xlink:href="#Áåçûìÿííûé_ãðàäèåíò_308"/><linearGradient id="Áåçûìÿííûé_ãðàäèåíò_409-5" x1="200.91" y1="123.6" x2="200.91" y2="105.53" xlink:href="#Áåçûìÿííûé_ãðàäèåíò_409"/><linearGradient id="Áåçûìÿííûé_ãðàäèåíò_314-4" x1="96.93" y1="70.53" x2="105.73" y2="20.61" xlink:href="#Áåçûìÿííûé_ãðàäèåíò_314"/><linearGradient id="Áåçûìÿííûé_ãðàäèåíò_292" x1="82.22" y1="49.34" x2="85.24" y2="32.25" gradientUnits="userSpaceOnUse"><stop offset="0.02" stop-color="#ffae78"/><stop offset="1" stop-color="#ff7c68"/></linearGradient><linearGradient id="Áåçûìÿííûé_ãðàäèåíò_19" x1="94.21" y1="35.9" x2="108" y2="35.9" gradientUnits="userSpaceOnUse"><stop offset="0.01" stop-color="#772438"/><stop offset="0.99" stop-color="#994540"/></linearGradient><linearGradient id="Áåçûìÿííûé_ãðàäèåíò_19-2" x1="111.9" y1="41.58" x2="118.75" y2="41.58" xlink:href="#Áåçûìÿííûé_ãðàäèåíò_19"/><linearGradient id="Áåçûìÿííûé_ãðàäèåíò_117" x1="99.23" y1="49.13" x2="101.71" y2="43.91" gradientUnits="userSpaceOnUse"><stop offset="0.02" stop-color="#85757a"/><stop offset="0.99" stop-color="#563757"/></linearGradient><linearGradient id="Áåçûìÿííûé_ãðàäèåíò_117-2" x1="110.71" y1="51.39" x2="112.91" y2="46.75" xlink:href="#Áåçûìÿííûé_ãðàäèåíò_117"/><linearGradient id="Áåçûìÿííûé_ãðàäèåíò_409-6" x1="102.41" y1="51.81" x2="102.41" y2="21.01" xlink:href="#Áåçûìÿííûé_ãðàäèåíò_409"/><linearGradient id="Áåçûìÿííûé_ãðàäèåíò_18" x1="106.34" y1="55.98" x2="106.34" y2="48.09" gradientUnits="userSpaceOnUse"><stop offset="0" stop-color="#ffceb1"/><stop offset="1" stop-color="#ea9a6b"/></linearGradient><linearGradient id="Áåçûìÿííûé_ãðàäèåíò_73" x1="96.91" y1="59.31" x2="106.6" y2="59.31" gradientUnits="userSpaceOnUse"><stop offset="0.02" stop-color="#d1a1d6"/><stop offset="0.99" stop-color="#bd89c4"/></linearGradient><linearGradient id="Áåçûìÿííûé_ãðàäèåíò_409-7" x1="79.52" y1="40.36" x2="87.01" y2="40.36" xlink:href="#Áåçûìÿííûé_ãðàäèåíò_409"/><linearGradient id="Áåçûìÿííûé_ãðàäèåíò_409-8" x1="83.27" y1="41.79" x2="86.88" y2="41.79" xlink:href="#Áåçûìÿííûé_ãðàäèåíò_409"/><linearGradient id="Áåçûìÿííûé_ãðàäèåíò_19-3" x1="106.16" y1="40.73" x2="106.16" y2="7.88" xlink:href="#Áåçûìÿííûé_ãðàäèåíò_19"/><linearGradient id="Áåçûìÿííûé_ãðàäèåíò_299" x1="117.37" y1="33.53" x2="121.44" y2="10.44" gradientUnits="userSpaceOnUse"><stop offset="0.01" stop-color="#8c2f3e"/><stop offset="0.99" stop-color="#c16140"/></linearGradient><linearGradient id="Áåçûìÿííûé_ãðàäèåíò_299-2" x1="109.32" y1="30.12" x2="112.87" y2="10.01" xlink:href="#Áåçûìÿííûé_ãðàäèåíò_299"/><linearGradient id="Áåçûìÿííûé_ãðàäèåíò_15-2" x1="103.26" y1="17.88" x2="103.26" y2="11.91" xlink:href="#Áåçûìÿííûé_ãðàäèåíò_15"/><linearGradient id="Áåçûìÿííûé_ãðàäèåíò_15-3" x1="117.25" y1="25.13" x2="117.25" y2="13" xlink:href="#Áåçûìÿííûé_ãðàäèåíò_15"/><linearGradient id="Áåçûìÿííûé_ãðàäèåíò_15-4" x1="103.09" y1="40.73" x2="103.09" y2="15.05" xlink:href="#Áåçûìÿííûé_ãðàäèåíò_15"/><linearGradient id="Áåçûìÿííûé_ãðàäèåíò_14" x1="97.89" y1="22.81" x2="99.91" y2="11.35" gradientUnits="userSpaceOnUse"><stop offset="0.01" stop-color="#b45e52"/><stop offset="0.99" stop-color="#c16140"/></linearGradient><linearGradient id="Áåçûìÿííûé_ãðàäèåíò_409-9" x1="84.99" y1="49.45" x2="84.99" y2="48.87" xlink:href="#Áåçûìÿííûé_ãðàäèåíò_409"/><linearGradient id="Áåçûìÿííûé_ãðàäèåíò_409-10" x1="84.7" y1="59.97" x2="94.92" y2="59.97" xlink:href="#Áåçûìÿííûé_ãðàäèåíò_409"/><linearGradient id="Áåçûìÿííûé_ãðàäèåíò_409-11" x1="88.58" y1="60.67" x2="88.58" y2="45.21" xlink:href="#Áåçûìÿííûé_ãðàäèåíò_409"/><linearGradient id="Áåçûìÿííûé_ãðàäèåíò_244" x1="54.57" y1="215.64" x2="54.57" y2="113.3" gradientUnits="userSpaceOnUse"><stop offset="0" stop-color="#759897"/><stop offset="1" stop-color="#4a7792"/></linearGradient><radialGradient id="Áåçûìÿííûé_ãðàäèåíò_61-4" cx="124.85" cy="252.42" r="6.14" xlink:href="#Áåçûìÿííûé_ãðàäèåíò_61"/><linearGradient id="Áåçûìÿííûé_ãðàäèåíò_88" x1="0.79" y1="239.69" x2="192.9" y2="239.69" gradientUnits="userSpaceOnUse"><stop offset="0.03" stop-color="#f11d33"/><stop offset="1" stop-color="#820030"/></linearGradient><linearGradient id="Áåçûìÿííûé_ãðàäèåíò_203" x1="0.07" y1="250.16" x2="192.98" y2="250.16" gradientUnits="userSpaceOnUse"><stop offset="0" stop-color="#2e64d1"/><stop offset="0.15" stop-color="#3355c0"/><stop offset="0.51" stop-color="#3f369d"/><stop offset="0.81" stop-color="#452287"/><stop offset="1" stop-color="#481b7f"/></linearGradient><linearGradient id="Áåçûìÿííûé_ãðàäèåíò_151" x1="41.89" y1="277.37" x2="41.89" y2="261.81" gradientUnits="userSpaceOnUse"><stop offset="0" stop-color="#8d6687"/><stop offset="1" stop-color="#9a95a5"/></linearGradient><linearGradient id="Áåçûìÿííûé_ãðàäèåíò_151-2" x1="42.87" y1="277.44" x2="42.87" y2="260.96" xlink:href="#Áåçûìÿííûé_ãðàäèåíò_151"/><linearGradient id="Áåçûìÿííûé_ãðàäèåíò_151-3" x1="45.44" y1="276.51" x2="45.44" y2="261.01" xlink:href="#Áåçûìÿííûé_ãðàäèåíò_151"/><radialGradient id="Áåçûìÿííûé_ãðàäèåíò_42" cx="-322.15" cy="290.94" r="2.78" gradientTransform="matrix(-0.99, 0.12, 0.12, 0.99, -307.78, 19.06)" gradientUnits="userSpaceOnUse"><stop offset="0.02" stop-color="#371b32"/><stop offset="0.99" stop-color="#2a1032"/></radialGradient><linearGradient id="Áåçûìÿííûé_ãðàäèåíò_151-4" x1="69.7" y1="257.58" x2="69.7" y2="237.36" xlink:href="#Áåçûìÿííûé_ãðàäèåíò_151"/><linearGradient id="Áåçûìÿííûé_ãðàäèåíò_151-5" x1="70.98" y1="257.68" x2="70.98" y2="236.25" xlink:href="#Áåçûìÿííûé_ãðàäèåíò_151"/><linearGradient id="Áåçûìÿííûé_ãðàäèåíò_151-6" x1="74.31" y1="256.46" x2="74.31" y2="236.31" xlink:href="#Áåçûìÿííûé_ãðàäèåíò_151"/><linearGradient id="Áåçûìÿííûé_ãðàäèåíò_46" x1="-351.92" y1="281.76" x2="-351.92" y2="262.85" gradientTransform="matrix(-0.99, 0.12, 0.12, 0.99, -307.78, 19.06)" gradientUnits="userSpaceOnUse"><stop offset="0" stop-color="#c2aec0"/><stop offset="1" stop-color="#c6c3cc"/></linearGradient><radialGradient id="Áåçûìÿííûé_ãðàäèåíò_37" cx="-354.15" cy="272.25" r="3.61" gradientTransform="matrix(-0.99, 0.12, 0.12, 0.99, -307.78, 19.06)" gradientUnits="userSpaceOnUse"><stop offset="0.02" stop-color="#5a4153"/><stop offset="0.95" stop-color="#3e2645"/></radialGradient><linearGradient id="Áåçûìÿííûé_ãðàäèåíò_151-7" x1="136.92" y1="291.5" x2="136.92" y2="278.26" xlink:href="#Áåçûìÿííûé_ãðàäèåíò_151"/><linearGradient id="Áåçûìÿííûé_ãðàäèåíò_151-8" x1="137.75" y1="291.56" x2="137.75" y2="277.54" xlink:href="#Áåçûìÿííûé_ãðàäèåíò_151"/><linearGradient id="Áåçûìÿííûé_ãðàäèåíò_151-9" x1="139.93" y1="290.78" x2="139.93" y2="277.57" xlink:href="#Áåçûìÿííûé_ãðàäèåíò_151"/><radialGradient id="Áåçûìÿííûé_ãðàäèåíò_42-2" cx="-413.76" cy="317.77" r="2.37" xlink:href="#Áåçûìÿííûé_ãðàäèåíò_42"/><linearGradient id="Áåçûìÿííûé_ãðàäèåíò_151-10" x1="160.49" y1="279.15" x2="160.49" y2="261.95" xlink:href="#Áåçûìÿííûé_ãðàäèåíò_151"/><linearGradient id="Áåçûìÿííûé_ãðàäèåíò_151-11" x1="161.58" y1="279.24" x2="161.58" y2="261.01" xlink:href="#Áåçûìÿííûé_ãðàäèåíò_151"/><linearGradient id="Áåçûìÿííûé_ãðàäèåíò_151-12" x1="164.41" y1="278.21" x2="164.41" y2="261.06" xlink:href="#Áåçûìÿííûé_ãðàäèåíò_151"/><linearGradient id="Áåçûìÿííûé_ãðàäèåíò_46-2" x1="-438.46" y1="314.41" x2="-438.46" y2="298.32" xlink:href="#Áåçûìÿííûé_ãðàäèåíò_46"/><radialGradient id="Áåçûìÿííûé_ãðàäèåíò_37-2" cx="-440.35" cy="306.32" r="3.07" xlink:href="#Áåçûìÿííûé_ãðàäèåíò_37"/></defs><title>Asset 4</title><g class="cls-1"><g id="Layer_2" data-name="Layer 2"><g id="skate"><path class="cls-2" d="M100.79,56.48c-2.47,10.62-5,16.56-8.16,18.45s-5.3-6-10.92-11.83c-2-2.08-3.55-3.79-5.52-5.51-3.61-3.17-8.61-6.39-20.19-12a15.25,15.25,0,0,1-1.93-1.09c-6.65-4.32-5.1-10.81-.85-17.1,4.75-7,12.89-13.84,16.68-17C77.35,4.1,86.72.89,88.34,1.54s5.49,6.34,5.49,6.34a37.49,37.49,0,0,1,2.56,5.84C100.9,26.55,102.9,47.43,100.79,56.48Z"/><path class="cls-3" d="M96.39,13.72v1.36s-11.84-.92-19.17,2-8.46,8.79-8.33,9.54,19.69-6.3,19.69-6.3l-.67,21.85L83.26,61.65l-7.07-4.06L54.09,44.9l0-.4-.85-17.1c4.75-7,12.89-13.84,16.68-17C77.35,4.1,86.72.89,88.34,1.54s5.49,6.34,5.49,6.34A37.49,37.49,0,0,1,96.39,13.72Z"/><path class="cls-4" d="M118.56,233.83s9.19-5.34,17.78-17.92l5-13.56-3-1.86s-15.25,2.46-24.54,14.25-5.06,22.89-5.06,22.89S114.74,236.55,118.56,233.83Z"/><path class="cls-4" d="M46.28,215.64s13.13-2.77,20-6.37c0,0,11.26-10.15,11.76-12.29s-3.74-10-7.1-10.33-25.18,16.2-27.52,21.6,0,6.2,0,6.2S45.7,215.77,46.28,215.64Z"/><path class="cls-5" d="M132.18,207.72s.5,18.29,2.39,25.55l-11.84,5.78s-2.6-5-2.52-5.72,1.48-3.79,1.48-4.3-3-14.58-3-14.58S127.61,206.52,132.18,207.72Z"/><path class="cls-6" d="M17.73,151.73c.88.76,11.81-4.41,22.23-8.09s32.35-.39,32.35-.39L53.73,124.7S41,122.93,29.86,129.24,17.73,151.73,17.73,151.73Z"/><path class="cls-7" d="M81.71,71.64s3.62,8.63,8.68,8.72S97,72,95.73,67.85s-8.91-4.75-8.91-4.75S82.47,68.14,81.71,71.64Z"/><path class="cls-8" d="M84.71,49.76S81.86,57.59,78.89,61c0,0-.69,10,6.92,15.41,0,0,1.65-6.09,4.58-9.75C90.39,66.69,86.64,60.45,84.71,49.76Z"/><path class="cls-9" d="M183.55,123.08c-1.61,3.32-6.06,6.16-6.06,6.16-.75-.32-1.51-.63-2.29-.94-15-6.06-33.33-11.37-33.33-11.37-6-14.82,11.46-15.39,13-14.82s8.21,6.27,12.51,9.17S183.55,123.08,183.55,123.08Z"/><path class="cls-10" d="M214.86,118.15a8.37,8.37,0,0,1-6.16,2.38l-.09.07a22.68,22.68,0,0,0-3.6,3l0,0c-.45.44-.93.93-1.43,1.47-.82.88-1.57,1.84-2.29,2.78l-.11.14c-1.87,2.45-3.49,4.78-5.32,5.42s-5.61-.53-7.19-.19c-2,.43-5.08,1.55-7.39,1.23s-4.51-2.65-5.51-2.74a16.63,16.63,0,0,0-3.48.51h0a19.5,19.5,0,0,1-4.25,1.24c-1.93.26-5.21-1.56-5.53-1.77s-.47-1.7,0-2c.31-.19,3.5-.29,7.15-.62a61.51,61.51,0,0,0,6.12-.8c5.3-1.05,10.92-9.51,12.25-12,1.25-2.34,3.27-6.88,3.72-7.93l0-.09,0-.07c.25-.6,6.41-6.06,6.88-6.09s1.33.19,1.39.63-1.58,6.36-5.55,7.32c0,0-2.31,5.72-2.56,9.76,0,0,.53.46.87.32a.22.22,0,0,0,.08-.1c.69-.94,4.35-8.12,5.46-9.7a2.22,2.22,0,0,1,.19-.24c.85-.9,7.43-6.21,10-6.87a2.22,2.22,0,0,1,.44,2.22,3.1,3.1,0,0,1,.11,2.21c-.39,1.2-2.13,5.34-5.16,6.41a54.91,54.91,0,0,0-2.78,7.68l.25.19s4.11-2.73,6.19-3.8l.21-.1h0a24,24,0,0,1,7-1.43C215.19,116.69,215.17,117.61,214.86,118.15Z"/><path class="cls-11" d="M160.39,106.08l-5.55-4s-17.16,1.18-13,14.82l1.57.66a26.42,26.42,0,0,1-2.3,2.24c-.38.19-3.92-2-3.92-2a224,224,0,0,0-32.6,6.31c-3.81,1.07-7.66,2.28-11.35,3.67v1.9c0,.18-.21.41-.53.66-1,.76-3,1.67-3.07,1.86a11,11,0,0,0,2.48.86h0c1.75.52,3.84,1.15,4.2,1.54s-1,1.84-2.52,3.32c-1.64,1.64-3.45,3.25-3.45,3.25L92.51,143S90,144.65,69,143s-28.67-7.83-37.39-5.56-13.89,14.28-13.89,14.28a5.31,5.31,0,0,1-1.9-4.42s-4,1.57-5.55,1.13.85-17.68,2.93-24.5,17.53-20.28,17.53-20.28l1-16.29s-5.88-8.62-16.3-10.19L13,78.8s.53-4.25,4.19-5.58c0,0,.91-15.11,8.46-18.35.95-.4,7.83,3.71,12.83,6.28a20.91,20.91,0,0,0,4.6,2s1.14-4.34,1.8-4.63c.41-.17,2.93.23,5.34.57h0a34.76,34.76,0,0,0,3.84.38,29.3,29.3,0,0,0,5.75-1.53c4.1-1.33,9-3.06,10.64-3,2.66,0,8.06,3.91,9.53,6.56s3.3,14.5,8.82,16.77a0,0,0,0,1,0,0l.06-.11A.9.9,0,0,1,88.9,78c.73-1.11,3.86-6.36,2.81-9.79,0,0,10.21.48,15.89,4.47l3,2.09c3.64,2.56,9.79,6.87,13.51,9.41h0c1.67,1.14,2.85,1.92,3.1,2,1.07.44,4.11.82,5,1.33s.89,3.66.89,3.66l7.39,3.54a7.24,7.24,0,0,1,2.08-1.11c.57,0,3.22,2.81,3.22,2.81s2.15-2.79,2.78-2.81h0l.14,0c.77.42,2.69,3.72,2.69,3.72s5.69-2,7.27-1.33c1,.38.26,3-.44,5.07-.45,1.29-.89,2.32-.89,2.32S161,104.5,160.39,106.08Z"/><path class="cls-12" d="M31.62,137.45S23,153.81,24.11,161c0,0,3.73,4.61,14,4.87l-1.9-29.06A10.76,10.76,0,0,0,31.62,137.45Z"/><path class="cls-13" d="M47.29,208.73s1.64,11.79,1.55,12.55-1.19,1.47-1.19,1.9,2.45,5.1,2.45,5.1,7.17-9,13.17-10.93c0,0-1.33-13.5,0-22.89C63.27,194.46,55.13,197.52,47.29,208.73Z"/><path class="cls-14" d="M175.4,250.25h0a45.72,45.72,0,0,0-19.2-1.25,51.42,51.42,0,0,0-8.85,2.32c-4.35,1.56-7.62,3.36-12,4.81a45.57,45.57,0,0,1-6.05,1.47,73.91,73.91,0,0,1-9.62,1.06c-1.13-5.43.61-18.06.61-18.06l-.61-3.42,1.47-1.51,2.09,2.63c1.7-.13,4.29-2.46,4.29-2.46s2-6.12,5.37-7.78,9.9.19,9.76.76-1.66,5.26-1.22,6.85,3.35,7.84,9.17,8.88,16.49.57,16.49.57A24.22,24.22,0,0,1,175.4,250.25Z"/><path class="cls-14" d="M50.1,228.28a18.13,18.13,0,0,0-2.05,3.85c-.19,1.07,1.46,13.35,1.46,13.35s-.7-13.08,2.71-19.66c0,0,6-6.77,11.05-8.47,0,0,1.13-3.22.82-3.47s-8.47,2.4-10,5.18S50.1,228.28,50.1,228.28Z"/><path class="cls-15" d="M178.09,254.17s-8.8-3.28-17.92-1.95a101.11,101.11,0,0,0-14.64,3.55c-4.93,1.51-9.63,3.17-13.3,4.4a68.9,68.9,0,0,1-12,3.05l-.61-4.57a44.44,44.44,0,0,0,9.62-1.06,49.4,49.4,0,0,0,8-2.36c3.88-1.51,7.06-2.92,10.1-4.08a40.85,40.85,0,0,1,13.82-3c8.65-.36,13.67,1.87,14.23,2.13h0A7.66,7.66,0,0,1,178.09,254.17Z"/><path class="cls-16" d="M178.09,254.17s-4.91,3.06-19.18,6.28S124.44,266.57,123,266s-2.8-2.78-2.8-2.78a156,156,0,0,0,20-5.76C152.82,253.1,168.61,248.11,178.09,254.17Z"/><path class="cls-17" d="M83.49,217s-.64-4.87-3.17-6.39c0,0-12.7.76-21.6,7.33s-9.18,14.66-9.66,19.2.7,20.84.7,20.84-.32-15.79,1-22.61S63.49,212.31,83.49,217Z"/><path class="cls-16" d="M83.49,217s1.27,8.86-.72,15.09S73.83,246,72.12,247s-3.26,1.1-4,2.71-3.18,7.66-6.6,10.21-7.27,2.73-11.73-1.35c0,0-.72-18.2.67-24.26S61.84,211.61,83.49,217Z"/><path class="cls-18" d="M100.79,69.68s-5.69,10-12,10.68h0l-.85-.52c-1.93-1.24-6.64-4.58-9-9-3.06-5.58-1.47-12.21-4.68-14.65s-16.57,1.2-18.37.63-1.13-5.49-2.08-6.25-12.13-5.3-13-12.6c0,0,2.09-12.22,16.11-22S77.35,4.1,77.35,4.1,78.47,3.34,80,2.48l.07,0a27,27,0,0,1,4-1.89l.49-.16A6.27,6.27,0,0,1,86.63,0c3,.1,7,7.38,7.19,7.84-.35-.41-5.55-6.55-10-4.9-4.59,1.7-16,12.79-16.52,15.25-.45,1.92-.14,3.31-.62,4.81a5.16,5.16,0,0,1-.61,1.29c-1.33,2.05-6.73,12.75-5.21,18.63,1.28,5,12.7,9.54,19.69,14.34a23.69,23.69,0,0,1,3.27,2.62s.59,4.64.65,9.38v.42a10.68,10.68,0,0,0,2.07,5.94,15.5,15.5,0,0,0,1.94,2.28l.29.26a24.85,24.85,0,0,0,2.93-10S98.47,65.91,100.79,69.68Z"/><path class="cls-19" d="M96.39,15.08s-9.86-4.16-15.73-4.26-13.35,7.39-13.35,7.39S76.45,2.77,85,2.11,96.39,15.08,96.39,15.08Z"/><path class="cls-20" d="M87.91,79.83c-1.93-1.24-6.64-4.58-9-9-3.06-5.58-1.47-12.21-4.68-14.65s-16.57,1.2-18.37.63C57.83,57,67.5,54,67.12,53.5s-6.78-4.17-9.85-4-3.51,1.16-3.51,1.16c-.95-.76-12.13-5.3-13-12.6,0,0,12.76.73,15.79-5s4.61-9.58,4.61-9.58c-8.38,1.27-15.11,7-15.52,7.31,4.88-7.22,18.55-12.88,18.55-12.88L66.69,23a5.16,5.16,0,0,1-.61,1.29c-1.33,2.05-6.73,12.75-5.21,18.63,1.28,5,12.7,9.54,19.69,14.34l3.92,12,2.07,6.36Z"/><path class="cls-21" d="M151.43,97.35h0c-10.87,4.78-14.19,20.51-14.19,20.51a224,224,0,0,0-32.6,6.31c1.88-3.16,0-5.26,0-5.26a1.07,1.07,0,0,1-.07-.19c-.34-1.15.32-3.75.86-5.54.33-1.07.61-1.85.61-1.85s3-3.22,3-4-1-1.71-1-1.71,4.25-8.19,7.62-14.23c.64-1.15,1.25-2.23,1.79-3.15.69-1.18,1.27-2.11,1.66-2.65a3.87,3.87,0,0,1,.32-.38.57.57,0,0,1,.17-.14,29.77,29.77,0,0,1,4.56-.95h0c1.67,1.14,2.85,1.92,3.1,2,1.07.44,4.11.82,5,1.33s.89,3.66.89,3.66l7.39,3.54a7.24,7.24,0,0,1,2.08-1.11c.57,0,3.22,2.81,3.22,2.81s2.15-2.79,2.78-2.81h0l.14,0C149.51,94.05,151.43,97.35,151.43,97.35Z"/><path class="cls-22" d="M55.28,92.58A57.47,57.47,0,0,1,48.71,96s-10.11-3-17-8.62A17.16,17.16,0,0,0,17.16,73.22s.91-15.11,8.46-18.35c1.33-.56,14.31,7.74,17.43,8.23,0,0,1.14-4.34,1.8-4.63.41-.17,2.93.23,5.34.57h0s5.83,3.79,6.4,6.35-.19,3.69-.76,5.68-2.5,5.69-2.34,7.39,4.43,9.1,4.71,10.42S57,91.35,55.28,92.58Z"/><path class="cls-23" d="M160.39,106.08l-5.55-4s-17.16,1.18-13,14.82l1.57.66a26.42,26.42,0,0,1-2.3,2.24c-.38.19-3.92-2-3.92-2a224,224,0,0,0-32.6,6.31c-3.81,1.07-7.66,2.28-11.35,3.67a58.88,58.88,0,0,0-16.62-.63c-8.65,1-9.22,3.1-9.22,3.1.38.31,11.44-3.3,25.31.09-1,.76-3,1.67-3.07,1.86a11,11,0,0,0,2.48.86c-7,.37-29.49,1.7-31.73,3.65S82.05,139.2,93.84,138c-1.64,1.64-3.45,3.25-3.45,3.25L92.51,143S90,144.65,69,143s-28.67-7.83-37.39-5.56-13.89,14.28-13.89,14.28a5.31,5.31,0,0,1-1.9-4.42s-4,1.57-5.55,1.13.85-17.68,2.93-24.5,17.53-20.28,17.53-20.28l1-16.29s-5.88-8.62-16.3-10.19L13,78.8a19.08,19.08,0,0,1,3.18-2.75c.9-.38,8.48,3.74,10.23,4.31s-3.19-6.23-9.22-7.14c0,0,.91-15.11,8.46-18.35A54.82,54.82,0,0,0,24,66.24c0,5.12,15.44,16.39,20.37,17.34,0,0,2.84-.57,3.32-1.23S38.79,72.26,37.09,67.21c0,0,8.16,7.46,12.46,10s20.92,8.1,31,8.39l-8.23,3.79s11.19-1.23,16.27-3.89l-1.71-.54-.11,0c-2.65-.83-7.91-2.52-13.83-4.51l-.23-.08c-7.06-2.36-15-5.13-20.51-7.41l-.32-.12S61.53,69,62.38,68s-4.13-3.41-4.13-3.41-10.09-.31-15.2-1.53c0,0,1.14-4.34,1.8-4.63a21.53,21.53,0,0,0,9.71,3.77c6.31,1,5.23-4.35,5.23-4.35,4.1-1.33,9-3.06,10.64-3,2.66,0,8.06,3.91,9.53,6.56s3.3,14.5,8.82,16.77a0,0,0,0,1,0,0l.06-.11A.9.9,0,0,1,88.9,78c.57-1.06,3-5.86,2.81-9.79,0,0,10.21.48,15.89,4.47l3,2.09s-10.75,1.45-14.92,3.82a189.63,189.63,0,0,0,23.7,6.68,48.17,48.17,0,0,0,7.09.91c-1.19,0-3.74-.13-7.41-.53-1.46-.16-3.11-.37-4.92-.63l-.64-.1a155.94,155.94,0,0,1-17-3.56l-.3-.08h0a155,155,0,0,0,15.56,5.48l.52.14,1.64.49h0c1.12.31,2.28.61,3.45.91A101.16,101.16,0,0,0,132.49,91s-7.5.22-16.92.45c-8.17.18-17.78.37-25.18.43-16,.13-26,11.44-26,11.44s33.34,4.55,44.65,4.07a130.79,130.79,0,0,0,19.47-2.23c-.46.27-9.07,4.09-23.05,8.06a372.49,372.49,0,0,1-41.07,8.6S53.79,113.27,45,115.61c0,0-22.11,2.18-24.13,6S24,130.43,24,130.43s2.36-1,5.76-2.81a0,0,0,0,1,0,0c1-.56,2.21-1.19,3.43-1.9A77.3,77.3,0,0,0,44,118.31s18.29,6.21,29.47,5.87c6.83-.21,19.79-2.61,31.08-5.45a124.25,124.25,0,0,0,17.52-5.44c9.21-4,19.34-13,20.61-14.14-1.33,1.48-13.51,14.85-16.83,16.46a12.89,12.89,0,0,0,11.09-3.51c4.74-4.84,11.65-18.51,11.65-18.51h0l.14,0c.77.42,2.69,3.72,2.69,3.72h0c-.33.26-5.67,4.34-6.13,5.21s10.85-1.92,13-1.48c-.45,1.29-.89,2.32-.89,2.32S161,104.5,160.39,106.08Z"/><path class="cls-24" d="M142.34,199.28l.82,3.29-6.82,13.34,4.42-12.52c-22.48,8.21-30.44,33.43-30.44,33.43,3.13-.36,7.59-2.65,8.18-3-6.32,4.53-10.65,5.71-10.65,5.71-6.1-7.81-4.26-18.82-4.26-18.82.38-1.33,3-5.11,3-5.11V199.16s-1.23-1-1.23-1.61,1.23-7,1.23-7l-3-4.27c.29-5.87,5.84-20,5.84-20l-3.66-.45-1.14-1.4c-14.78-2.1-34.49,0-34.49,0-5.68-3.68-4.19-22-4.19-22s13-1.68,25.41-2.17h0c3.42-.14,6.8-.18,9.84-.07,14,.52,28.61,4.6,29.66,5.27s5,.94,5,.94c1.32,1.52,2.74,6.92,2.74,6.92a19,19,0,0,1-.56,3.13c-.38,1.13-2.18,17.43-2.18,19s4,7.15,4,8.05a30.26,30.26,0,0,1-1.65,4.95l0,.1s6.82,2.59,6.82,3.23S142.34,199.28,142.34,199.28Z"/><path class="cls-25" d="M60.77,98.88l-2.52,9.46s-36.52,10.58-45,15.6c2.09-6.82,17.53-20.28,17.53-20.28l1-16.29s16.1,3.31,26.52,1.51c0,0,2,6.84,0,9.58S60.77,98.88,60.77,98.88Z"/><path class="cls-25" d="M43.72,125.83s-25,7.43-27.89,21.48c0,0-4,1.57-5.55,1.13,0,0,7-13.11,19.49-20.82a0,0,0,0,1,0,0,39.12,39.12,0,0,1,3.43-1.9,35.55,35.55,0,0,1,6.06-2.34Z"/><path class="cls-25" d="M125.85,115.61s-8.61,3.64-21.23,8.57l-11.35,3.67s17.72-9,28.8-14.56a106.8,106.8,0,0,0,20.61-14.14S128.72,114.42,125.85,115.61Z"/><path class="cls-25" d="M96.19,81.25h0c3,2,11.35,4.38,15.56,5.48l.52.14c1.23.32,2,.5,2,.5h-.36c-2.75-.1-20.5-.79-27-2.43l-.11,0c-2.65-.67-8.05-2.48-13.83-4.51l-.23-.08C63.78,77.18,54,73.59,52.19,72.9l-.32-.12-12.23-9.2-1.19-2.43a20.91,20.91,0,0,0,4.6,2s1.14-4.34,1.8-4.63c.41-.17,2.93.23,5.34.57h0a34.76,34.76,0,0,0,3.84.38,29.3,29.3,0,0,0,5.75-1.53c4.1-1.33,9-3.06,10.64-3,2.66,0,8.06,3.91,9.53,6.56s3.3,14.5,8.82,16.77a0,0,0,0,1,0,0l.06-.11A.9.9,0,0,1,88.9,78c.57-1.06,3-5.86,2.81-9.79,0,0,10.21.48,15.89,4.47l3,2.09c3.64,2.56,9.79,6.87,13.51,9.41h0c1.67,1.14,2.85,1.92,3.1,2-2.77.33-7.83-.28-13.08-1.18l-.64-.1c-7.52-1.31-15.24-3.14-17-3.56Z"/><path class="cls-26" d="M66.08,24.31c-1.33,2.05-6.73,12.75-5.21,18.63s17.15,11.17,23,17a91.51,91.51,0,0,1,.65,9.8c0,4.1,3,7.3,4,8.22l.29,2.44h0c-.34-.28-5.87-4.83-7.05-9.59a51.55,51.55,0,0,1-1-11.45S69.14,50.94,61.31,49.16,55.75,36,60.3,28.82,63.83,20,64.21,17.88C64.5,16.3,72.46,7,80,2.48l.07,0a20.18,20.18,0,0,1,4-1.89l.49-.16A10,10,0,0,1,86.63,0c3,.1,7,7.38,7.19,7.84-.35-.41-5.55-6.55-10-4.9-4.59,1.7-16,12.79-16.52,15.25S67.4,22.26,66.08,24.31Z"/><path class="cls-27" d="M93.22,76.85s1-2.32,2.23-2.6a105.12,105.12,0,0,1,18-2.52c8.95-.34,13.51.47,14.51,0s4.42-2.17,4.67-4.25-1.2-2.08-1.39-3.53,1.42-2.3,1.42-2.3l-1.73-3.08.82-1,1.89,3.68s6,4.36,3.42,9-8.78,4.69-14.15,3.49S101.45,74.42,93.22,76.85Z"/><path class="cls-28" d="M78.87,63.31A5,5,0,0,1,80.57,68a140.58,140.58,0,0,0-14.33-1.45c-5.75-.12-15.48-8.9-23.31-14.55S33,41.79,33,41.79l-5.43-2.86V37.81l5.05,2.38s1.9-2.13,3-1.85,4,7.91,8.91,12.84S57.9,59.35,61.56,61.26A61.53,61.53,0,0,0,69.71,65C70.59,65.2,78.87,63.31,78.87,63.31Z"/><path class="cls-25" d="M17.89,68s5.87-1.29,6.61,0,8.8,11,19.22,15.37l-14.21-2s-2.91-5.78-12.35-8.21C17.16,73.22,17.59,69.42,17.89,68Z"/><path class="cls-29" d="M63.87,110a221.49,221.49,0,0,0,30.34,1.26c18.68-.31,25.18-4.71,25.18-4.71s-13.14,2.65-39.77-1.34C79.62,105.19,66.68,105.78,63.87,110Z"/><path class="cls-30" d="M77.35,100.3s3.2,1.33,4.14,1.28,3.15-1.48,4.4-1.8h0l.35-.06c1.12-.07,5.76,1.35,6.19,2s-.36,2.53-.69,2.67-2.06-.14-4.47-.13a26,26,0,0,0-4.53.37c-4.22.76-8.29,3.17-9.33,3.22s-3.62-.82-4.25-.76-2.22,2.07-4.29,2.71a0,0,0,0,0,0,0,4.31,4.31,0,0,1-1,.19c-2.53.16-7-2.4-7.8-2.65s-18.79-2.34-29.5-4.42a189.19,189.19,0,0,1-23.4-6.68s-2.84-1-3.13-2S1,92,1,92a35.84,35.84,0,0,1,2.82-4.63h0A28,28,0,0,1,6.68,84c.59-.59,1.22-1.18,1.87-1.74a61.18,61.18,0,0,1,6.84-5c9.92.87,16.3,10.19,16.3,10.19A59.41,59.41,0,0,0,48.88,96l.89.28.67.21.38.12.18,0a72.35,72.35,0,0,0,8.54,2h0l.29,0,.19,0,.32,0,.42.06c6-7,13.51-12.65,14-12.65s3.73.6,3.73.6,1.64-1.1,2-1.26,2.27-.51,2.27-.51a10.14,10.14,0,0,1,1.42-1c.32-.09,9.18-1.37,9.44-1.23s.22.35.26.59a3,3,0,0,1,0,.38l.23,1c-.83,1.45-7.06,6.23-8.14,6.75a13.47,13.47,0,0,1-3.37.76A13.72,13.72,0,0,0,77.35,100.3Z"/><path class="cls-31" d="M80,94.9a13.34,13.34,0,0,0-2.65,5.4s3.2,1.33,4.14,1.28,3.15-1.48,4.4-1.8a19.11,19.11,0,0,0-3.07,1.94c-.21.38-1.11,2.44-1.11,2.44s2.94-.11,5.26,0a.67.67,0,0,1,.31.08,26,26,0,0,0-4.53.37c-4.22.76-8.29,3.17-9.33,3.22s-3.62-.82-4.25-.76-2.78,2.75-5.3,2.91-7-2.4-7.8-2.65-18.79-2.34-29.5-4.42a189.19,189.19,0,0,1-23.4-6.68s-2.84-1-3.13-2S1,92,1,92a35.84,35.84,0,0,1,2.82-4.63h0a13.06,13.06,0,0,0,1.33,3.5c.85,1.33,9,7.61,22.36,9s27.91,1.77,32-1.18h0l.29,0,.19,0,.32,0,.42.06s-2.84,3.61-3.88,5.28c0,0,3,3.14,6.15,4.08a6.64,6.64,0,0,0,3.37-2.07l0-.09L70.2,94.62s2.6-3.56,5.44-4.5c0,0,4.93.85,6.19.41A2.36,2.36,0,0,0,83.35,89l-1.52-.67.64-.47a28.16,28.16,0,0,0,5.44.1,4.71,4.71,0,0,0,2.48-1.84l-1.26-.34a14.82,14.82,0,0,0,3.16-.45,3.1,3.1,0,0,0,1.64-1.87,3,3,0,0,1,0,.38l.23,1c-.83,1.45-7.06,6.23-8.14,6.75a13.47,13.47,0,0,1-3.37.76A13.48,13.48,0,0,0,80,94.89Z"/><path class="cls-32" d="M1,92A4.42,4.42,0,0,1,3.5,91.3c1,.24,5.69,4.36,5.69,4.36a58.37,58.37,0,0,0-4-4.79C3.69,89.45,2.85,88.8,2.85,88.8S1.51,91.33,1,92Z"/><path class="cls-33" d="M48.88,96c-4-1.27-12.92-4.18-20.16-7.24-9.67-4.08-13.42-7.12-19.53-6.61l-.64,0a61.18,61.18,0,0,1,6.84-5c9.92.87,16.3,10.19,16.3,10.19A59.41,59.41,0,0,0,48.88,96Z"/><path class="cls-34" d="M15.39,77.18s10.37,3.43,16.3,10.19C31.69,87.37,25.05,77.79,15.39,77.18Z"/><path class="cls-34" d="M78.52,86.83l3.31,1.45.64-.47Z"/><path class="cls-34" d="M89.13,85.73s-3.39-.4-6.32-.67c0,0,5.66.35,7.12.62Z"/><path class="cls-35" d="M94.21,84.83c-.83,1.45-7.06,6.23-8.14,6.75a13.47,13.47,0,0,1-3.37.76A13.48,13.48,0,0,0,80,94.89l1-2.36-7.24.33a21.37,21.37,0,0,0-3.56,3.84c-.7,1.33-3.45,8.49-3.8,9.38L70.2,94.62s2.6-3.56,5.44-4.5c0,0,4.93.85,6.19.41A2.36,2.36,0,0,0,83.35,89l-1.52-.67.64-.47a28.16,28.16,0,0,0,5.44.1,4.71,4.71,0,0,0,2.48-1.84l-1.26-.34a14.82,14.82,0,0,0,3.16-.45,3.1,3.1,0,0,0,1.64-1.87,3,3,0,0,1,0,.38Z"/><path class="cls-36" d="M73.42,107.83c-1,0-3.62-.82-4.25-.76s-2.22,2.07-4.29,2.71c2.07-1.08,3.61-4.6,5.08-4.13A13.73,13.73,0,0,1,73.42,107.83Z"/><path class="cls-37" d="M175.72,128.3h-.52c-15-6.06-33.33-11.37-33.33-11.37-6-14.82,11.46-15.39,13-14.82,0,0-6.37,1.43-8.65,4.27,0,0,11.78,7,18.89,12.73S175.72,128.3,175.72,128.3Z"/><path class="cls-34" d="M141.87,116.93l1.57.66s-4.61-11.63,11.4-15.48C154.84,102.11,137.74,103,141.87,116.93Z"/><path class="cls-38" d="M201.14,128c-1.87,2.45-3.49,4.78-5.32,5.42s-5.61-.53-7.19-.19c-2,.43-5.08,1.55-7.39,1.23s-4.51-2.65-5.51-2.74a16.63,16.63,0,0,0-3.48.51c.2-.13,1.69-1.17,1.16-1.7s-4-1.28-4-1.28l.17-.14a61.51,61.51,0,0,0,6.12-.8c5.3-1.05,10.92-9.51,12.25-12,1.25-2.34,3.27-6.88,3.72-7.93l-6.4,14.87,2.9,2.09c7.9-1.15,10.55,1.83,10.55,1.83-7.45,3.16-16.44,1.14-16.44,1.14s-1.46,3.65.11,4.5,8.81-1.2,8.81-1.2l3.6,1C198.38,131.9,200.61,128.64,201.14,128Z"/><path class="cls-39" d="M208.7,120.53l-.09.07-3.6,3,0,0c-1.31-.9-9.32-2.87-12.1-3.55.69-.94,4.35-8.12,5.46-9.7,0,0,1.61,1.78,3.38,1.4s6.63-5.59,7.23-6.22c-1.82,2.81-6.8,6.83-6.8,6.83.07,1.14,1.81,1.72,1.81,1.72a54.91,54.91,0,0,0-2.78,7.68l.25.19s4.11-2.73,6.19-3.8l.21-.1C207.3,119.36,208.7,120.53,208.7,120.53Z"/><path class="cls-40" d="M119,38.34c-1.06,4-4.34,8.4-5.22,12.12,0,.12-.06.23-.08.34-.76,3.79,0,5.18-2.49,9.17-6.32,2.58-11.72,11.15-16.32,10.2-4.35-.89-10.15-10.68-10.22-20.41h0c0-.52,0-1,0-1.55a47.37,47.37,0,0,1,2.42-12.61c2.25-6.52,6-11.79,11.06-13.45A24.91,24.91,0,0,1,103.54,21a17.17,17.17,0,0,1,10.92,2.22A10.9,10.9,0,0,1,119,29S120.12,34.17,119,38.34Z"/><path class="cls-41" d="M87,48.1a7.8,7.8,0,0,1-3.18,1.49c-1.44.15-4.45-6.37-4.83-9.43s.82-7.32,1.36-7.7a5.56,5.56,0,0,1,3-.56c.86.13,5.25,6,5.48,9.54A12.19,12.19,0,0,1,87,48.1Z"/><path class="cls-42" d="M105.68,37.21s2.37-1.14,2.32-1.92-5.69-.83-8-.52-5.81,2.44-5.81,2.44a32.51,32.51,0,0,1,6.8-1A17.89,17.89,0,0,1,105.68,37.21Z"/><path class="cls-43" d="M117.44,42.39s.43-1.41-1.15-1.35C115,41.1,111.9,44,111.9,44s4-5.43,6.85-4.67C118.75,39.28,118.62,41.68,117.44,42.39Z"/><path class="cls-44" d="M104.14,43.09s.72-1.56.4-2S99,39.88,95.7,43.73C95.7,43.73,100.64,41.41,104.14,43.09Z"/><path class="cls-44" d="M110.41,47.39s2.58-3.18,5.3-2.35a3.56,3.56,0,0,1-1,1.69S114.33,45.21,110.41,47.39Z"/><path class="cls-45" d="M104.21,42.12a15,15,0,0,1-.48,3,9,9,0,0,1-.59,1.64,5.46,5.46,0,0,1-1.53,2.09,7.48,7.48,0,0,1-2.88-.08,4.09,4.09,0,0,1-1.57-.7c-1-.74-1.75-2.09-1.46-4.51C97.12,42.27,101.11,39.8,104.21,42.12Z"/><path class="cls-45" d="M115.23,46a17.77,17.77,0,0,1-1,1.68,12.61,12.61,0,0,1-.8,1.12c-1.72,2.15-3,2.43-3,2.43a7.19,7.19,0,0,1-.18-1.27,9.69,9.69,0,0,1,0-1.33,8.56,8.56,0,0,1,.17-1.26C113.47,44.52,115.23,46,115.23,46Z"/><path class="cls-46" d="M103.73,45.12a9,9,0,0,1-.59,1.64,5.46,5.46,0,0,1-1.53,2.09,7.48,7.48,0,0,1-2.88-.08,4.09,4.09,0,0,1-1.57-.7,4.25,4.25,0,0,1,1.9-3C100.76,43.93,102.82,43.94,103.73,45.12Z"/><path class="cls-47" d="M111.67,50.57l-1.26,1.24a9.5,9.5,0,0,1-.2-2.21Z"/><path class="cls-48" d="M103.14,46.76a5.46,5.46,0,0,1-1.53,2.09,7.48,7.48,0,0,1-2.88-.08,2.45,2.45,0,0,1,1.19-2.44c1.11-.78,2.48-.75,3,.06A1.27,1.27,0,0,1,103.14,46.76Z"/><path class="cls-49" d="M114.23,47.7a12.61,12.61,0,0,1-.8,1.12c-1.72,2.15-3,2.43-3,2.43a7.19,7.19,0,0,1-.18-1.27,9.69,9.69,0,0,1,0-1.33c1.49-1.39,3.18-2,3.81-1.3A.73.73,0,0,1,114.23,47.7Z"/><path class="cls-50" d="M97.09,58.57s.36,4.26,2.25,5.12,3.21-.61,3.81-1.35Z"/><path class="cls-48" d="M113.43,48.82c-1.72,2.15-3,2.43-3,2.43a7.19,7.19,0,0,1-.18-1.27,4.7,4.7,0,0,1,.57-.63c1-.91,2.08-1.3,2.49-.87A.55.55,0,0,1,113.43,48.82Z"/><path class="cls-51" d="M99.34,45.21a.67.67,0,0,1-.66.66.66.66,0,0,1-.65-.66.65.65,0,0,1,.65-.65A.66.66,0,0,1,99.34,45.21Z"/><path class="cls-51" d="M111.9,47.79a.33.33,0,0,1-.33.33.34.34,0,0,1,0-.67A.34.34,0,0,1,111.9,47.79Z"/><path class="cls-52" d="M119,29a10.9,10.9,0,0,0-4.57-5.78L103.54,21a24.91,24.91,0,0,0-5.32,1.13c-5.07,1.66-8.81,6.93-11.06,13.45a15.09,15.09,0,0,1,.63,2.74c.39,3.31-1.48,8-2.48,10.17,1-2.09,3.15-6.07,4.17-6.28a9.87,9.87,0,0,1,3.69.43s1.61,7.3,8.29,7.53c0,0,4.5-5,6-9.45,0,0,4.47-.62,4.47,3.22,0,0-2.34,1-1.49,7.86,0,0,2.65-.51,3.39-1.34h0c.88-3.72,4.16-8.07,5.22-12.12S119,29,119,29Zm-14.82,4c-.59,1.1-5.68,1.66-7.3,1.15s2-3.82,3-4C102.11,29.82,104.8,32,104.21,33Z"/><path class="cls-47" d="M95.64,45.21s.06,4.39,5.58,4.39l.39-.75S96.47,50,95.64,45.21Z"/><path class="cls-53" d="M101.64,53s2.17,1.45,2.09,2.43c0,0,.81,1.77,1.19,1.93s4.23-.19,5.49-1.36a22,22,0,0,1-4.86-1.86A8,8,0,0,0,101.64,53Z"/><path class="cls-34" d="M102.74,53.86l1,1.55S104.13,53.82,102.74,53.86Z"/><path class="cls-54" d="M110.41,56a18.39,18.39,0,0,0,0-4.73c-.18-1.27-1.44-3.43-3.22-3.13S102.11,53,102.11,53a20.11,20.11,0,0,1,3,1C107,54.83,110.41,56,110.41,56Z"/><path class="cls-55" d="M106.6,59.56l-.27.24a6.59,6.59,0,0,0-2.79,2,4.12,4.12,0,0,1-2.12,1.74,3.14,3.14,0,0,1-1.64,0c-1.42-.34-2.59-2.84-2.82-6.19a16.52,16.52,0,0,1,0-2.34h.22a7.2,7.2,0,0,0,2.55,3.27A8,8,0,0,0,104.52,60C105.27,59.94,106,59.47,106.6,59.56Z"/><path class="cls-56" d="M106.6,59.56l-.27.24a6.59,6.59,0,0,0-2.79,2,4.12,4.12,0,0,1-2.12,1.74c.17-.12,1.62-1.22,1.18-2.22s-5.33-3.81-5.64-4a16.52,16.52,0,0,1,0-2.34h.22a7.2,7.2,0,0,0,2.55,3.27A8,8,0,0,0,104.52,60C105.27,59.94,106,59.47,106.6,59.56Z"/><path class="cls-45" d="M98.68,57.41a8.44,8.44,0,0,0,2.23,2.89c1.36,1,2.87-.28,2.87-.28A10.16,10.16,0,0,1,98.68,57.41Z"/><path class="cls-57" d="M97.16,55A9.83,9.83,0,0,0,101,58.82c2.71,1.47,3.68,1.15,4.12,1,1.25-.38,1.44-.28,1.44-.28a6.53,6.53,0,0,0-1.51.4C103.7,60.5,98.94,59.78,97.16,55Z"/><path class="cls-50" d="M102.48,61.17a.85.85,0,0,1,.56.73c0,.54-1.28,1.41-1.28,1.41A1.94,1.94,0,0,0,102.48,61.17Z"/><path class="cls-50" d="M98.43,55a3.38,3.38,0,0,0-2.67.61s.46-1.18,1.4-1.33A1.18,1.18,0,0,1,98.43,55Z"/><path class="cls-45" d="M97.27,59.58A5.07,5.07,0,0,0,99,62.45c1.82,1.24,3,.79,3.34.43a2.15,2.15,0,0,1-2.21.81C98.52,63.45,97.53,61.2,97.27,59.58Z"/><path class="cls-58" d="M87,43.73s-1.35-7.57-6.34-9.14c0,0-.57,1.68-1.08,4s1.83,7.55,1.83,7.55a24.23,24.23,0,0,1-1.3-5.41,8.65,8.65,0,0,1,.69-3.51,3.84,3.84,0,0,1,2.46,1.84s-.33,2.68-.35,4.27A4.18,4.18,0,0,0,83.84,46l.43.16s.75-2.5,1.28-2.91S87,43.73,87,43.73Z"/><path class="cls-59" d="M84.63,37.81a14.48,14.48,0,0,0-1.36,5.37c0,2.41.68,2.58.68,2.58s1-2.7,1.62-2.82a2.58,2.58,0,0,1,1.31.16A20.64,20.64,0,0,0,84.63,37.81Z"/><path class="cls-60" d="M127.42,27.4c-1.71,1.42-6.73,3.51-6.73,3.51.62,1.42-1.17,4.31-1.17,4.31a13.09,13.09,0,0,0-.31-3,3.81,3.81,0,0,0-.15-.5A9.44,9.44,0,0,1,114.3,33a28.5,28.5,0,0,0-3-4.81v0c-.34-.43-.71-.87-1.1-1.28A10.53,10.53,0,0,0,105,23.52C99.58,22.38,95.63,26.3,95,28a6.91,6.91,0,0,0-.22,3.5c-5.11,2.4-7,9.26-7,9.26-2.15-6.15-2.08-16.46-2.08-16.46l-1.86.13,0,0a27.59,27.59,0,0,1,5.57-5.65s0,0,0,0a32.57,32.57,0,0,1,3-2c.5-.31,1-.59,1.51-.86a40.12,40.12,0,0,1,10.83-3.86c-1.57-1.33-1.52-4-1.52-4s3.46,2.61,3.74,2.66,5.21-.71,5.88-.38,1.7,2.84,1.7,2.84a11.35,11.35,0,0,0,4.07.43,10.57,10.57,0,0,0-1.51-3.75s6,2.47,6.86,6.87c.49,2.55-1.08,6.87-2.5,10.06-1,2.33-2,4.06-2,4.06.45-.27.88-.55,1.29-.85a22.77,22.77,0,0,0,7.46-8.92S129.12,26,127.42,27.4Z"/><path class="cls-61" d="M114.3,33s2.46-1,4.88-6.82-2-16.48-2-16.48,5.74,1.91,6.94,7.59-5,14.43-5,14.43S116.24,33.32,114.3,33Z"/><path class="cls-62" d="M111.25,28.18s2.07-14-3.25-17.73c0,0,4.15-.83,5.35-.32,0,0,5.17,8.71-.29,20.65Z"/><path class="cls-63" d="M104.78,11.91l1.38,6s-2-4-5.8-4.81C100.36,13.07,103.89,11.82,104.78,11.91Z"/><path class="cls-64" d="M114.58,13a17.1,17.1,0,0,1,4.94,12.13s1.4-1.77-1.07-11.69Z"/><path class="cls-65" d="M121.5,26.61a6.54,6.54,0,0,1-4.25,1.28c-3-.24-8.48-6.53-8.48-6.53a12.81,12.81,0,0,0-2.61-3.48l.69,2.47c-.29-.32-5.09-5.77-10.46-5.27a8,8,0,0,0-2.44.69,19.66,19.66,0,0,0-4.48,2.9s0,0,0,0a46.23,46.23,0,0,0-5.57,5.65l0,0,1.86-.13s-.07,10.31,2.08,16.46c0,0,1.9-6.86,7-9.26A6.91,6.91,0,0,1,95,28c.63-1.67,4.58-5.59,10-4.45a10.53,10.53,0,0,1,5.19,3.36c.39.41.76.85,1.1,1.28v0a28.5,28.5,0,0,1,3,4.81,9.44,9.44,0,0,0,4.76-1.28,3.81,3.81,0,0,1,.15.5l1-.88.59-1.51,1.54-3.91A6.48,6.48,0,0,1,121.5,26.61Z"/><path class="cls-66" d="M102.11,23.36s-7.37-6.57-5.2-12.54c0,0-2.86,5.9-2.51,8.34s7.1,4.29,7.1,4.29Z"/><path class="cls-67" d="M84.85,49.45l.28-.58C85,49.11,84.93,49.31,84.85,49.45Z"/><path class="cls-68" d="M94.92,70.17C92,68.23,85.16,63,84.7,49.76,84.7,49.76,84.7,66.77,94.92,70.17Z"/><path class="cls-69" d="M86.63,45.21s3.18-.31,4.89,3.66c1.26,2.93-.62,11.81-1.71,11.8s-5.19-10.55-4.5-12.17S86.63,45.21,86.63,45.21Z"/><path class="cls-70" d="M142.34,199.28l.82,3.29-6.82,13.34,4.42-12.52c-22.48,8.21-30.44,33.43-30.44,33.43,3.13-.36,7.59-2.65,8.18-3-6.32,4.53-10.65,5.71-10.65,5.71-6.1-7.81-4.26-18.82-4.26-18.82l7.86-5.11h-4.83V199.16s-1.23-1-1.23-1.61,1.23-7,1.23-7l-3-4.27c.29-5.87,5.84-20,5.84-20l-3.66-.45-1.14-1.4c-14.78-2.1-34.49,0-34.49,0-5.68-3.68-4.19-22-4.19-22s13-1.68,25.41-2.17c-.61.22-13,4.74-17.94,12.58,0,0,10.62,1,23.76,1.71a192.08,192.08,0,0,0,27.79-.88l-10.48,2.4s-14.86,1.13-15.29,1.32,13.39,1.2,17.31,1.08a82.79,82.79,0,0,0,9.09-1s-10.23,12.63-11,19.07l6.44-6.06s-8.84,22.73-8.84,26.15,27.71-13.08,27.71-13.08l-1.65,4.95,0,.1s-18.55,12.44-23.48,21.91c.61-.52,20-17.07,30.3-18.68C145.05,192.53,142.34,199.28,142.34,199.28Z"/><path class="cls-70" d="M68.11,155.69s25.3.68,36.52,8.78c0,0-10.48-1.93-34.49,0l-5.48-4.34Z"/><path class="cls-70" d="M135.9,175.57s-3.79-5.72-3.51-11.1c0,0,2.36,4.54,4.07,4.93Z"/><path class="cls-71" d="M78.74,197.71c-3.3,4.95-11.88,11.15-12.41,11.53.58-.6,9.89-10.15,10.26-12.23s-2.21-5.68-2.21-5.68c-18.13.94-30.31,21.79-30.31,22.61s2.21,1.7,2.21,1.7-4.46-.09-5-1.2.19-7.8,0-9.6-10.77-8.59-11.67-11.28a1.09,1.09,0,0,1-.07-.37c.08-2.22,4.5-10.1,5.05-11.08l.06-.1s-2.08-4-2-4.74,2.51-2.88,2.51-2.88-2-28.18-1.46-32.26,1.85-22.48,2.93-23.56c2-2,9.29-5,12.63-5.24s9.48,1,10.17,2.9.44,11,1.27,15.6a12.35,12.35,0,0,0,.88,2.67h0c2,4.74,6.67,11.18,6.88,12.8.26,1.95-.69,12.82-.69,12.82l2.46,3.22a34.78,34.78,0,0,0,0,5.2,78.94,78.94,0,0,0,1.25,9.39,25.33,25.33,0,0,1,8.14,2.4A65.39,65.39,0,0,0,78.74,197.71Z"/><path class="cls-70" d="M35.14,174.39s-2-28.18-1.46-32.26,1.85-22.48,2.93-23.56c0,0-.77,15.82-.35,19.56s11,18.14,11,18.14,9.72,2.53,9.85,3.16-20.7,12.08-22,14.95c.45-.22,14.88-7.31,20.6-11.73L34.62,182s-2.08-4-2-4.74S35.14,174.39,35.14,174.39Z"/><path class="cls-70" d="M78.74,197.71c-3.3,4.95-11.88,11.15-12.41,11.53.58-.6,9.89-10.15,10.26-12.23s-2.21-5.68-2.21-5.68c-18.13.94-30.31,21.79-30.31,22.61s2.21,1.7,2.21,1.7-4.46-.09-5-1.2.19-7.8,0-9.6-10.77-8.59-11.67-11.28c1.23-.67,19.51-10.63,25.7-14,4.31-2.38,11-7.72,15-11a78.94,78.94,0,0,0,1.25,9.39s-20.72,5-27.76,18.12c0,0-4.2,2.34,8.87-2.65a220,220,0,0,0,27-13.07A65.39,65.39,0,0,0,78.74,197.71Z"/><path class="cls-70" d="M67.75,160.13s-10.45-9-13.19-14.21c0,0,7.88-1,13.88,1.39C68.7,149.26,67.75,160.13,67.75,160.13Z"/><path class="cls-72" d="M61.56,134.5c-.27-.44-7-11.42-6.28-13.06s4.13-5.21,4.13-5.21c.7,1.9.44,11,1.27,15.6A12.35,12.35,0,0,0,61.56,134.5Z"/><path class="cls-73" d="M36.61,118.57s4.87-1.14,7.52-.88,11.68,2.83,11.68,2.83l3.6-4.29s-1.8-3.21-10.17-2.9S36.61,118.57,36.61,118.57Z"/><path class="cls-74" d="M48.28,216.09s7.32-13.33,14.45-14.94l.54-6.69s-11.36,5.55-16,14.27Z"/><path class="cls-74" d="M132.38,212.68a34.34,34.34,0,0,0-10.82,15.6l-2-9.22s7.79-8.62,12.58-11.34Z"/><path class="cls-75" d="M119.6,246.12s10.28,5.34,11.21,11.12c0,0-7.89,1.89-11.21,1.41C119.6,258.65,118,251.1,119.6,246.12Z"/><path class="cls-70" d="M147.32,251.15v3.95l-1.79.67c-4.93,1.51-9.63,3.17-13.3,4.4a68.9,68.9,0,0,1-12,3.05l-.61-4.57c-1.13-5.43.61-18.06.61-18.06l-.61-3.42,1.47-1.51,2.09,2.63c1.7-.13,4.29-2.46,4.29-2.46s2-6.12,5.37-7.78,9.9.19,9.76.76-1.66,5.26-1.22,6.85l-4.9-1.39-7.7,5.3S139.77,249.3,147.32,251.15Z"/><path class="cls-70" d="M109.43,166.32l-.56-1.2s13.26-7.26,16.73-7.58c0,0-15.6,1.38-19.83,8.33Z"/><path class="cls-70" d="M41.25,204.84l-1.48-5s5.71-10.54,20.48-17.77l1.88-7.15s-18,12.09-32.55,18.63c0,0,.37,1.32,3.79,4.09A77.79,77.79,0,0,1,41.25,204.84Z"/><path class="cls-76" d="M79.62,180.34s-25.55,14.13-35.9,15.72c0,0,7-13.57,27.76-18.12C71.48,177.94,77.08,178.86,79.62,180.34Z"/><path class="cls-76" d="M132.39,164.47S130,177,139.92,183.62C139.92,183.62,132.13,171.4,132.39,164.47Z"/><path class="cls-76" d="M91.36,140.34s28,2.3,39.52,5.2C130.88,145.54,116,139.44,91.36,140.34Z"/><polygon class="cls-76" points="140.51 94.7 117.98 91.36 133.12 91.16 140.51 94.7"/><path class="cls-76" d="M145.81,96.4l-4.06,9.26,7-12S148.36,93.12,145.81,96.4Z"/><path class="cls-76" d="M107,112.74s12.54-.59,18.22-1.45S144,97.54,144,97.54l-15.56,7.59Z"/><path class="cls-76" d="M37.09,67.21S46.13,76,51.23,78s20.48,4.24,20.48,4.24l1-2s-19.52-6.54-20.83-7.53l-12.23-9.2-7.95-1.93Z"/><path class="cls-76" d="M54.56,145.92l-14.5-9.13s6,19.16,7.23,19.48,13,3.81,13,3.81L48,172.74s18-6,22.2-9.39l-2.46-3.22L53,155.69Z"/><path class="cls-76" d="M128.73,74.38A4.49,4.49,0,0,1,131,70.7c2.32-1.33,2.23-5.92,2.23-5.92s2.56-.57,3.65,1.32S137.4,73.89,128.73,74.38Z"/><path class="cls-76" d="M69.54,11.13S80.25,3.7,84.63,2.75s9.19,5.11,9.19,5.11S89.62.46,86.63,0,74,6,69.54,11.13Z"/><path class="cls-77" d="M138.23,188.67s-15.61,9.08-23.48,21.91c0,0,17.31-15.26,30.3-18.68C145.05,191.9,143.37,190.56,138.23,188.67Z"/><path class="cls-76" d="M135.9,146.48h-6.66s6.8,2.47,9.4,6.92C138.64,153.4,137.28,148,135.9,146.48Z"/><path class="cls-78" d="M192.9,259.82l-13.05,7.32-103.61-19s-9.42-2.6-21.61-6.13C32.17,235.53.33,225.9.79,223.7a6,6,0,0,1,.28-.9c1.38-3.73,6.84-10.53,13.73-10.56,20.64-.1,51.19,17.2,51.19,17.2l104,28.46c8.77.88,20.94-1.91,20.94-1.91C192.43,256.71,192.9,259.82,192.9,259.82Z"/><path class="cls-79" d="M143,282.49l-.56.05L25.67,263.84h0C24.89,263.37.34,248.73.08,227.1a8.34,8.34,0,0,1,1-4.3c4.87-8.8,27.6-6.13,64,8.76,2,.8,4,1.65,6,2.52l98.28,26.45c9.29,1.14,22.82-2.08,23.58-.71C194.4,262.51,175.33,279.6,143,282.49Z"/><path class="cls-80" d="M143,282.49l-2.78-3.25,29.11-18.71c9.29,1.14,22.82-2.08,23.58-.71C194.4,262.51,175.33,279.6,143,282.49Z"/><polygon class="cls-80" points="61.59 269.2 129.68 249.86 81.3 236.84 69.7 237.36 58.97 248.75 47.45 258.39 40.46 261.06 38.83 265.4 61.59 269.2"/><path class="cls-81" d="M47.45,269.59a4.52,4.52,0,0,1,0,.52,7.63,7.63,0,0,1-.19,1.54,8.58,8.58,0,0,1-2.07,4.21,3.56,3.56,0,0,1-.49.46,4.35,4.35,0,0,1-2.78,1.05h0a4,4,0,0,1-1.82-.44h0c-2.16-1.05-3.72-3.94-3.72-7.34a9.51,9.51,0,0,1,.06-1.08,8.92,8.92,0,0,1,1.9-4.86l.05-.06a4.72,4.72,0,0,1,3.54-1.78,2.94,2.94,0,0,1,.59.05,3.64,3.64,0,0,1,.86.23,5.17,5.17,0,0,1,2.06,1.47,7.24,7.24,0,0,1,1.2,1.9A10.12,10.12,0,0,1,47.45,269.59Z"/><path class="cls-82" d="M47.45,276.2h0a8.64,8.64,0,0,1-5.53,1.16h0a8.41,8.41,0,0,1-1.82-.44h0l-1.28-9.67-.48-3.61.05-.06A7.26,7.26,0,0,1,45,261l.08.52.33,2,.41,2.52h0l.55,3.41.31,1.9.24,1.51.47,2.89Z"/><path class="cls-83" d="M50.73,271.88a6.15,6.15,0,0,1-3.28,4.32h0a4.56,4.56,0,0,1-1,.28,4.13,4.13,0,0,1-1.71-.17c-2.36-.71-4.35-3.44-4.76-6.88a10,10,0,0,1,0-2.79,7.17,7.17,0,0,1,2.53-4.79,4.17,4.17,0,0,1,2-.82,3.91,3.91,0,0,1,.49,0c2,0,3.84,1.46,5,3.7a11,11,0,0,1,1,3.37A10.34,10.34,0,0,1,50.73,271.88Z"/><path class="cls-84" d="M40.6,269.39c.49,4,3.2,6.93,6,6.58s4.76-3.86,4.27-7.85-3.19-6.93-6-6.58S40.11,265.41,40.6,269.39Z"/><path class="cls-85" d="M45.18,268.79c.22,1.75,1.41,3,2.66,2.89s2.09-1.7,1.88-3.45-1.41-3.05-2.66-2.89S45,267,45.18,268.79Z"/><polygon class="cls-84" points="61.69 256.13 53.99 261.68 52.51 262.75 53.49 260.35 47.45 258.39 58.97 248.75 59.24 256.33 61.37 256.15 61.69 256.13"/><path class="cls-86" d="M64.21,254v0h0l-2.52,2.08-.31,0-2.13.18L59,248.75l3.77,1.41v0l.09.24L64.2,254S64.2,254,64.21,254Z"/><path class="cls-84" d="M77.58,244v4.55l-.75.51-.94.64-.08.06h0l-5.21,3.59-.71.49-2.74,1.87-.89.62,0,0L50.76,267l-.06,0-1.06.74-1.47,1-.72-2.18,1-.78,1.37-1,.08-.05,4-3,7.38-5.53L64.19,254h0v0l2.46-1.84,1.5-1.12.71-.53L74,246.68l1.24-.92,1-.79.34-.26Z"/><path class="cls-87" d="M76.92,247.47a14,14,0,0,1-.09,1.6,9.53,9.53,0,0,1-.17,1.07,10.83,10.83,0,0,1-.43,1.63A10,10,0,0,1,74,255.63a6.84,6.84,0,0,1-.64.58,5.65,5.65,0,0,1-3.62,1.37h-.15a5.34,5.34,0,0,1-2.23-.57l-.21-.1a5.82,5.82,0,0,1-.86-.57,8.48,8.48,0,0,1-2-2.3v0s0,0,0,0c-.17-.28-.34-.58-.49-.89a6.36,6.36,0,0,1-.28-.65,11.07,11.07,0,0,1-.68-2.29v0a13.87,13.87,0,0,1-.26-2.69A12,12,0,0,1,65,239.76l0,0a6.16,6.16,0,0,1,4.64-2.35,5.12,5.12,0,0,1,.78.06,4.78,4.78,0,0,1,1.11.29,6.69,6.69,0,0,1,2.66,1.91,9.57,9.57,0,0,1,1.56,2.49,10.83,10.83,0,0,1,.83,2.6,2.82,2.82,0,0,1,.07.31A13.88,13.88,0,0,1,76.92,247.47Z"/><path class="cls-88" d="M76.92,256.05h0a11.43,11.43,0,0,1-7.37,1.52,10.92,10.92,0,0,1-2.23-.57l-.18-1.29-.47-3.54-.91-7L65,239.76l0,0a9.47,9.47,0,0,1,8.65-3.4h0l.11.69.42,2.62.54,3.3.31,1.91.16.93.63,4,0,.12.32,1.94.61,3.77Z"/><path class="cls-89" d="M76.92,256.05h0a4.92,4.92,0,0,1-1.38.36,5.06,5.06,0,0,1-2.22-.21,7.28,7.28,0,0,1-3.44-2.36,10.74,10.74,0,0,1-1.71-2.79,13.3,13.3,0,0,1-1-3.79,12.64,12.64,0,0,1-.06-2.74,9.63,9.63,0,0,1,3.4-7.11,5.43,5.43,0,0,1,2.6-1.07,4.44,4.44,0,0,1,.63,0h0c3.72,0,7.11,3.95,7.76,9.2v0C82.08,250.39,80.09,254.74,76.92,256.05Z"/><path class="cls-90" d="M68,247.21c.64,5.18,4.15,9,7.85,8.56s6.19-5,5.55-10.21-4.15-9-7.85-8.55S67.38,242,68,247.21Z"/><path class="cls-91" d="M74,246.43c.28,2.28,1.82,4,3.45,3.76s2.72-2.21,2.44-4.49-1.83-4-3.45-3.76S73.7,244.15,74,246.43Z"/><path class="cls-92" d="M81.48,245.51v0l-.06,0-1.6-.18-2.24-.27-.87-.09L76.3,245l-1.2-.14L74,244.71l-6-.7-.94.52-1.32.7L62.51,247a16.83,16.83,0,0,0,.33,3.45,12.81,12.81,0,0,0,.59,2.05,6.36,6.36,0,0,0,.28.65,9.8,9.8,0,0,0,.48.92,0,0,0,0,0,0,0,8.32,8.32,0,0,0,2,2.31L50.76,267a9.54,9.54,0,0,1,.2,1.09,10.34,10.34,0,0,1-.23,3.8l-.1.06h0L49,271l-1.58-.92-1.07-.61-1.17-.67-4.46-2.58h0l-.77.4-1.17.61-2.38,1.25a8.92,8.92,0,0,1,1.9-4.86l.05-.06A7.26,7.26,0,0,1,45,261c2,0,3.84,1.46,5,3.7l4-3-1.48,1.07,1-2.4-6-2L59,248.75l3.77,1.41a13.87,13.87,0,0,1-.26-2.69A12,12,0,0,1,65,239.76l0,0a9.47,9.47,0,0,1,8.65-3.4h0C77.44,236.32,80.83,240.26,81.48,245.51Z"/><path class="cls-93" d="M141.65,284.88V285a2.48,2.48,0,0,1,0,.38,6.35,6.35,0,0,1-.17,1.31,3.48,3.48,0,0,1-.14.64c0,.14-.09.28-.13.43a6.69,6.69,0,0,1-1.48,2.51,3.22,3.22,0,0,1-.43.39,3.64,3.64,0,0,1-2.36.89,3.38,3.38,0,0,1-1.56-.37,5,5,0,0,1-2-1.89,2.6,2.6,0,0,1-.28-.49,8.37,8.37,0,0,1-.9-3.87,5.42,5.42,0,0,1,.06-.91,7.47,7.47,0,0,1,1.61-4.14l0-.05a4,4,0,0,1,3-1.52,2.89,2.89,0,0,1,.5,0,3.56,3.56,0,0,1,.73.19,4.88,4.88,0,0,1,1.76,1.25,6.16,6.16,0,0,1,1,1.63,7.43,7.43,0,0,1,.51,1.53A9.17,9.17,0,0,1,141.65,284.88Z"/><path class="cls-94" d="M141.65,290.5l0,0a7.44,7.44,0,0,1-4.71,1,7.61,7.61,0,0,1-1.56-.37l-.43-3.29-.67-4.94-.4-3.07,0-.05a6.21,6.21,0,0,1,5.65-2.21l.07.45.29,1.72.34,2.16h0l.47,2.9.26,1.61h0l.13.82.08.46.4,2.46Z"/><path class="cls-95" d="M144.44,286.83a6.58,6.58,0,0,1-.28.82,4.84,4.84,0,0,1-2.51,2.85l0,0a5.31,5.31,0,0,1-.89.24,3.63,3.63,0,0,1-1.46-.15,5.87,5.87,0,0,1-3.46-3.58,9.08,9.08,0,0,1-.58-2.28,8.15,8.15,0,0,1,0-2.37,6.07,6.07,0,0,1,2.15-4.08,3.43,3.43,0,0,1,1.71-.69,3.13,3.13,0,0,1,.42,0c1.68,0,3.27,1.25,4.22,3.16a6.62,6.62,0,0,1,.3.66,6.91,6.91,0,0,1,.39,1.27,6.2,6.2,0,0,1,.14.75l0,.19A8.83,8.83,0,0,1,144.44,286.83Z"/><path class="cls-84" d="M135.82,284.71c.42,3.39,2.72,5.9,5.14,5.61s4-3.29,3.63-6.69-2.72-5.9-5.14-5.6S135.4,281.32,135.82,284.71Z"/><path class="cls-96" d="M139.72,284.2c.18,1.49,1.19,2.6,2.26,2.46s1.78-1.44,1.6-2.93-1.2-2.6-2.27-2.47S139.53,282.71,139.72,284.2Z"/><polygon class="cls-84" points="153.76 275.91 147.21 280.65 145.96 281.55 146.63 279.92 146.79 279.51 141.65 277.84 151.45 269.63 151.69 276.09 153.5 275.93 153.58 275.92 153.76 275.91"/><path class="cls-86" d="M155,271.93l.69,2.66-.12.22-.15.23-.08.15-.23.4-1.32.32h-.26l-1.81.16-.24-6.46,2.9,1.08.32.12v0l.06.21Z"/><path class="cls-86" d="M155.92,274.13v1.46l-.23-.88,0-.12Z"/><path class="cls-84" d="M168.38,267.44l-.47,3.84-.69.35-.68.36-.18.08-.06.05h0l-.55.28-.11.06-1.73.91-2.38,1.24-.67.34-.06,0-.66.34-1.77.93-.21.1-.62.33h0l-.75.39-.19.1-12,6.23,0,0-1,.5-.24.13-.06,0-1,.51-1.35.7-.38-1.92.84-.48.13-.07,1.26-.73.08,0h0l1.1-.63.06,0,2.56-1.47,6.8-3.91.15-.09,1.64-.94.12-.06.2-.11.15-.1.23-.13.12-.07h0l1.72-1,.56-.31.57-.33.65-.37.15-.09.66-.38.83-.48,3-1.7.94-.53.14-.09,1-.56.22-.14.74-.42.32-.19Z"/><path class="cls-97" d="M166.64,270.56a10.24,10.24,0,0,1-.09,1.36.17.17,0,0,1,0,.07,6.07,6.07,0,0,1-.12.84,10.94,10.94,0,0,1-.37,1.39c-.06.15-.11.32-.17.47a8.36,8.36,0,0,1-1.76,2.81c-.19.18-.37.35-.56.5a4.8,4.8,0,0,1-3.07,1.15h-.13a4.27,4.27,0,0,1-1.89-.48l-.05,0-.14-.06a4.83,4.83,0,0,1-.73-.48,6.51,6.51,0,0,1-1-.93,6.87,6.87,0,0,1-.76-1h0c-.15-.24-.28-.51-.42-.77,0-.05,0-.11-.08-.17l-.09-.21-.06-.17a9.12,9.12,0,0,1-.58-1.94v0a5.5,5.5,0,0,1-.11-.69,9.79,9.79,0,0,1-.11-1.45v-.15a10.26,10.26,0,0,1,2.17-6.57l0,0a5.26,5.26,0,0,1,4-2,4.76,4.76,0,0,1,.66.06,3.42,3.42,0,0,1,.94.24,5.67,5.67,0,0,1,2.28,1.63,8.29,8.29,0,0,1,1.32,2.12,10,10,0,0,1,.71,2.21,1.09,1.09,0,0,1,0,.26s0,0,0,.07A12,12,0,0,1,166.64,270.56Z"/><path class="cls-98" d="M166.64,277.86h0a9.77,9.77,0,0,1-6.25,1.27,8.2,8.2,0,0,1-1.89-.48l-.16-1.08-.16-1.24-.24-1.78-.14-1.05-.35-2.67-.28-2.2-.62-4.66,0,0a8,8,0,0,1,7.36-2.9h0l.09.58h0l.37,2.23.45,2.81.27,1.63.13.78,0,.14.5,3.16v.07l0,.08h0l.27,1.66.11.65.4,2.55h0Z"/><path class="cls-99" d="M168.54,276.46a5.16,5.16,0,0,1-1.9,1.4h0a4.51,4.51,0,0,1-1.15.29,4.24,4.24,0,0,1-1.9-.17,6.23,6.23,0,0,1-2.91-2,7.22,7.22,0,0,1-.52-.66,9.65,9.65,0,0,1-.94-1.71c-.1-.24-.2-.48-.29-.73a10.79,10.79,0,0,1-.57-2.43.07.07,0,0,1,0-.06,11.5,11.5,0,0,1-.05-2.34,8.19,8.19,0,0,1,2.89-6,4.59,4.59,0,0,1,2.22-.92,4.71,4.71,0,0,1,.53,0h0c3.16,0,6.06,3.36,6.6,7.82v0A9.6,9.6,0,0,1,168.54,276.46Z"/><path class="cls-100" d="M159.06,270.34c.54,4.41,3.54,7.67,6.68,7.28s5.27-4.28,4.73-8.68-3.54-7.67-6.69-7.29S158.52,265.93,159.06,270.34Z"/><path class="cls-101" d="M164.13,269.67c.24,1.94,1.55,3.37,2.94,3.2s2.31-1.88,2.08-3.82-1.56-3.37-2.94-3.2S163.89,267.73,164.13,269.67Z"/><path class="cls-92" d="M168.54,276.46l-.2-.14-2.18-1.45-.28-.18-2-1.32-2.71-1.81L159,270.14l-.71.31-.91.4L155,271.93l-.51.23a9.13,9.13,0,0,0,.88,2.76.61.61,0,0,0,0,.12,11,11,0,0,0,3,3.61l-.14-.06a4.83,4.83,0,0,1-.73-.48,6.51,6.51,0,0,1-1-.93l-12,6.23,0,.19a8.83,8.83,0,0,1-.19,3.23,6.58,6.58,0,0,1-.28.82h-.08l-2.76-.36-.21,0-4.82-.63h0l-.46.41-.89.81-1.56,1.4a2.6,2.6,0,0,1-.28-.49,8.37,8.37,0,0,1-.9-3.87,5.42,5.42,0,0,1,.06-.91,7.47,7.47,0,0,1,1.61-4.14l0-.05a6.21,6.21,0,0,1,5.65-2.21c1.68,0,3.27,1.25,4.22,3.16a6.62,6.62,0,0,1,.3.66l2.56-1.47.16-.41-5.14-1.67,9.8-8.21,2.9,1.08v-.15a10.26,10.26,0,0,1,2.17-6.57l0,0a8,8,0,0,1,7.36-2.9h0c3.16,0,6.06,3.36,6.6,7.82v0A9.6,9.6,0,0,1,168.54,276.46Z"/><path class="cls-102" d="M66.79,232.85,54.63,242l-29,21.82h0C24.89,263.37.34,248.73.08,227.1a8.34,8.34,0,0,1,1-4.3c1.38-3.73,6.84-10.53,13.73-10.56,20.64-.1,51.19,17.2,51.19,17.2l-1,2.12Z"/><polygon class="cls-102" points="23.35 218.55 13.37 254.1 14.43 255.13 29.68 219.78 23.35 218.55"/><path class="cls-102" d="M36.4,221.53l4.06-3.75a88.5,88.5,0,0,0-11.71-3.62l-1.53,5.26S34.69,220.74,36.4,221.53Z"/></g></g></g></svg>