<svg xmlns="http://www.w3.org/2000/svg" xmlns:xlink="http://www.w3.org/1999/xlink" viewBox="0 0 511.11 135.76"><defs><style>.cls-1{isolation:isolate;}.cls-10,.cls-11,.cls-12,.cls-13,.cls-14,.cls-15,.cls-16,.cls-17,.cls-18,.cls-2,.cls-3,.cls-5,.cls-6,.cls-7,.cls-8,.cls-9{fill-rule:evenodd;}.cls-2{fill:url(#Áåçûìÿííûé_ãðàäèåíò_151);}.cls-15,.cls-3,.cls-8{fill:#fff;}.cls-4{fill:#573e69;}.cls-5{fill:#7f607a;opacity:0.5;}.cls-16,.cls-20,.cls-5{mix-blend-mode:multiply;}.cls-6{fill:url(#Áåçûìÿííûé_ãðàäèåíò_151-2);}.cls-7{fill:url(#Áåçûìÿííûé_ãðàäèåíò_151-3);}.cls-8{opacity:0.8;}.cls-15,.cls-22,.cls-8{mix-blend-mode:soft-light;}.cls-9{fill:url(#Áåçûìÿííûé_ãðàäèåíò_13);}.cls-10{fill:url(#Áåçûìÿííûé_ãðàäèåíò_40);}.cls-11{fill:#a12a38;}.cls-12{fill:url(#Áåçûìÿííûé_ãðàäèåíò_151-4);}.cls-13{fill:url(#Áåçûìÿííûé_ãðàäèåíò_151-5);}.cls-14{fill:url(#Áåçûìÿííûé_ãðàäèåíò_151-6);}.cls-16,.cls-20{fill:#b37a73;}.cls-16,.cls-17,.cls-20,.cls-21{opacity:0.2;}.cls-17,.cls-18,.cls-21{fill:#7f3b1a;mix-blend-mode:screen;}.cls-18{opacity:0.3;}.cls-19{fill:#bd3e40;}.cls-22{fill:#ffc068;}.cls-23{fill:#a995ab;}.cls-24{fill:#ff7545;}.cls-25{fill:#ff9363;}</style><linearGradient id="Áåçûìÿííûé_ãðàäèåíò_151" x1="247.32" y1="40.14" x2="247.32" y2="7.29" gradientUnits="userSpaceOnUse"><stop offset="0" stop-color="#8d6687"/><stop offset="1" stop-color="#9a95a5"/></linearGradient><linearGradient id="Áåçûìÿííûé_ãðàäèåíò_151-2" x1="266.54" y1="40.98" x2="266.54" y2="12.62" xlink:href="#Áåçûìÿííûé_ãðàäèåíò_151"/><linearGradient id="Áåçûìÿííûé_ãðàäèåíò_151-3" x1="239.36" y1="40.08" x2="239.36" y2="10.39" xlink:href="#Áåçûìÿííûé_ãðàäèåíò_151"/><linearGradient id="Áåçûìÿííûé_ãðàäèåíò_13" x1="379.29" y1="135.31" x2="379.29" y2="32.86" gradientUnits="userSpaceOnUse"><stop offset="0" stop-color="#867f93"/><stop offset="1" stop-color="#8d6687"/></linearGradient><radialGradient id="Áåçûìÿííûé_ãðàäèåíò_40" cx="171.36" cy="11457.67" r="176.75" gradientTransform="translate(0 -4739.09) scale(1 0.42)" gradientUnits="userSpaceOnUse"><stop offset="0.02" stop-color="#ea7f1a"/><stop offset="0.95" stop-color="#db6436"/></radialGradient><linearGradient id="Áåçûìÿííûé_ãðàäèåíò_151-4" x1="418.46" y1="37.08" x2="418.46" y2="0" xlink:href="#Áåçûìÿííûé_ãðàäèåíò_151"/><linearGradient id="Áåçûìÿííûé_ãðàäèåíò_151-5" x1="430.96" y1="35.79" x2="430.96" y2="7.44" xlink:href="#Áåçûìÿííûé_ãðàäèåíò_151"/><linearGradient id="Áåçûìÿííûé_ãðàäèåíò_151-6" x1="411.43" y1="34.36" x2="411.43" y2="4.67" xlink:href="#Áåçûìÿííûé_ãðàäèåíò_151"/></defs><title>Asset 5</title><g class="cls-1"><g id="Layer_2" data-name="Layer 2"><g id="skate"><path class="cls-2" d="M284.9,24.57v0c-.18,7.18-1.1,14.86-1.1,14.86l-2.42-.23s1.05-19.8-1.23-23.54c-.66-1.09-45.82-6.54-60-4.18l-.06,0a13.2,13.2,0,0,0-2.58.65c-5.43,2.15-3.95,28-3.95,28h-2s-2.91-28.22-1.45-31.5,71.13-.15,73.68,4.77a9.7,9.7,0,0,1,.81,3A54.29,54.29,0,0,1,284.9,24.57Z"/><path class="cls-3" d="M210.34,10l2.66.92s.85-1.75,1.89-2.17a7.62,7.62,0,0,0-4.36-.13S210.28,8.75,210.34,10Z"/><path class="cls-4" d="M280.17,15.82h0v-.25a3.41,3.41,0,0,0,2.28-.87,2.49,2.49,0,0,0,.6-1.94h.25a2.69,2.69,0,0,1-.67,2.12A3.67,3.67,0,0,1,280.17,15.82Z"/><path class="cls-4" d="M283.17,28.78a7.5,7.5,0,0,1-1.58-.15l.06-.24a7.93,7.93,0,0,0,3.07,0l0,.25A8.66,8.66,0,0,1,283.17,28.78Z"/><path class="cls-4" d="M211.56,28.73a1.66,1.66,0,0,1-.72-.14.84.84,0,0,1-.47-.43l.24-.08-.12,0,.12,0a.6.6,0,0,0,.35.29c.36.16,1.09.22,2.51-.37l.1.23A5.51,5.51,0,0,1,211.56,28.73Z"/><path class="cls-4" d="M230.58,11l-.22-.12a2.51,2.51,0,0,0-.51-3.45l.14-.2A2.77,2.77,0,0,1,230.58,11Z"/><path class="cls-4" d="M259.7,12.83l-.19-.16a3.09,3.09,0,0,0,.91-2.47A1.94,1.94,0,0,0,259.55,9l.11-.22a2.17,2.17,0,0,1,1,1.4A3.33,3.33,0,0,1,259.7,12.83Z"/><path class="cls-5" d="M284.9,24.57v0c-.18,7.18-1.1,14.86-1.1,14.86l-2.42-.23s1.05-19.8-1.23-23.54c-.66-1.09-45.82-6.54-60-4.18.8-.16,8.24-1.52,30-.15s31.68,2.44,34.45,5A54.29,54.29,0,0,1,284.9,24.57Z"/><path class="cls-6" d="M268.54,13.63l-1.14,13.9L266.3,41l-1.77-.14.63-21.59.18-6.23S267.41,11.79,268.54,13.63Z"/><path class="cls-7" d="M241.08,11.32l-.77,13.21v0l-.91,15.52-1.75-.14.21-23.11h0l.05-5.89S239.94,9.48,241.08,11.32Z"/><path class="cls-5" d="M241.08,11.32l-.77,13.21v0c.35-5.89-2.45-7.73-2.45-7.73h0l.05-5.89S239.94,9.48,241.08,11.32Z"/><path class="cls-5" d="M268.54,13.63l-1.14,13.9c-.06-5.78-2.24-8.28-2.24-8.28l.18-6.23S267.41,11.79,268.54,13.63Z"/><path class="cls-8" d="M234.43,9s19,1.24,35.63,2.87A191.58,191.58,0,0,0,234.43,9Z"/><path class="cls-9" d="M507,131.81l-255.43,3.5L376.27,32.86,451,39.38S452.48,99.66,507,131.81Z"/><path class="cls-10" d="M200.65,39.28l186.15-6.8s-22.17,95.94-145.37,101.63H2.28S149.59,126.65,200.65,39.28Z"/><path class="cls-11" d="M241.43,134.11l5.89,1.65s108.41-7.69,143.06-100l58.51,3.41s7.51,67.2,58.12,92.61h4.1s-47.32-16.74-60.45-94.52L386.8,32.48S370.3,119.32,241.43,134.11Z"/><path class="cls-12" d="M449,22.18v0c-.18,7.18-1.1,14.86-1.1,14.86l-2.42-.23s1.05-19.8-1.23-23.54c-.71-1.17-5.26-2.67-11.32-4.1-10.37-2.44-25.15-4.67-32.7-4.76a11.31,11.31,0,0,0-4.39.47c-5.24,2.61-4,27.94-4,27.94h-2s-3.5-28.54-1.46-31.5c3.4-4.92,56.9,4.74,59.45,9.67C449,13,449.16,17.46,449,22.18Z"/><path class="cls-3" d="M388.71,2.68l2.66.92s.86-1.76,1.89-2.18a7.58,7.58,0,0,0-4.36-.12S388.65,1.47,388.71,2.68Z"/><path class="cls-4" d="M407.31,4.9l-.25,0a3.82,3.82,0,0,0-2.9-4.24l.06-.25A4.15,4.15,0,0,1,407.31,4.9Z"/><path class="cls-4" d="M421.58,7l0-.25a3.24,3.24,0,0,0,2.85-3.19h.25C424.67,6.56,421.61,7,421.58,7Z"/><path class="cls-4" d="M444.3,13.43h0v-.25h0a3.46,3.46,0,0,0,2.28-.88,2.45,2.45,0,0,0,.6-1.93l.25,0a2.7,2.7,0,0,1-.68,2.13A3.67,3.67,0,0,1,444.3,13.43Z"/><path class="cls-4" d="M447.3,26.39a7.46,7.46,0,0,1-1.57-.15l.06-.25a7.81,7.81,0,0,0,3.07,0l.05.25A8.84,8.84,0,0,1,447.3,26.39Z"/><path class="cls-4" d="M389.93,21.45a1.85,1.85,0,0,1-.72-.13.88.88,0,0,1-.47-.43l.24-.09-.12,0,.12,0a.59.59,0,0,0,.35.3,3.47,3.47,0,0,0,2.51-.37l.1.23A5.45,5.45,0,0,1,389.93,21.45Z"/><path class="cls-5" d="M449,22.18v0c-.18,7.18-1.1,14.86-1.1,14.86l-2.42-.23s1.05-19.8-1.23-23.54c-.71-1.17-5.26-2.67-11.32-4.1-10.37-2.44-25.15-4.67-32.7-4.76h0s34.65,0,47.07,8.87C448.5,14.14,448.8,18,449,22.18Z"/><path class="cls-13" d="M433,8.45l-1.15,13.89-1.1,13.45L429,35.66l.63-21.59.18-6.23S431.83,6.61,433,8.45Z"/><path class="cls-14" d="M413.15,5.6l-.77,13.21v0l-.91,15.52-1.75-.14.21-23.11h0L410,5.21S412,3.76,413.15,5.6Z"/><path class="cls-5" d="M413.15,5.6l-.77,13.21v0c.35-5.89-2.45-7.73-2.45-7.73h0L410,5.21S412,3.76,413.15,5.6Z"/><path class="cls-5" d="M433,8.45l-1.15,13.89c-.06-5.77-2.24-8.27-2.24-8.27l.18-6.23S431.83,6.61,433,8.45Z"/><path class="cls-15" d="M394.19,1a86.39,86.39,0,0,1,24.89,2.19S406.73,1.86,394.19,1Z"/><polygon class="cls-11" points="2.28 134.11 0 135.76 247.32 135.76 241.43 134.11 2.28 134.11"/><path class="cls-16" d="M105.09,134.11s97-25.79,118-95.65h7.84s-26.71,69.31-108.27,95.65Z"/><path class="cls-17" d="M245.53,37.64s-13.24,32.47-43.47,57.27h23.47s36-25.24,44.53-58.16Z"/><path class="cls-16" d="M169.49,134.11S249,95.66,270.06,36.75l2.26-.09s-18.87,58.68-99,97.45Z"/><path class="cls-16" d="M212.61,134.11s76.12-6.92,118-41.93l21.5-3.67S318,126,241.43,134.11Z"/><path class="cls-18" d="M278.06,112.15s52.8-28.66,68.67-78.21l18.32-.67s-9.51,52-65.62,78Z"/><path class="cls-18" d="M184.24,134.11S292,119.6,346.73,33.94h-1.51s-36.79,72.34-163.45,100.17Z"/><path class="cls-16" d="M359.94,49.11h21s3.59-9,5.85-16.63l-21.75.79S361.1,46.43,359.94,49.11Z"/><path class="cls-19" d="M104.43,134.35l-.12-.48a258.25,258.25,0,0,0,53.6-21C183.75,99.27,217.23,75.27,230,38.38l.48.17c-5.65,16.36-15.8,31.58-30.15,45.23-11.48,10.92-25.67,20.87-42.16,29.57A257.48,257.48,0,0,1,104.43,134.35Z"/><path class="cls-19" d="M179.38,134.35l-.09-.49c.2,0,20-3.92,43.57-17.91a162.17,162.17,0,0,0,68.38-80.19l.46.19a162.63,162.63,0,0,1-68.6,80.44C199.45,130.42,179.58,134.32,179.38,134.35Z"/><path class="cls-19" d="M228.53,134.35l-.14-.48c48-13.26,78.12-39.74,94.92-59.62,18.2-21.55,25.13-40.2,25.2-40.39L349,34c-.06.19-7,18.91-25.27,40.52C306.86,94.49,276.68,121.06,228.53,134.35Z"/><path class="cls-20" d="M481.28,112.15,299.39,123s-10,6.37-47.81,12.29L507,131.81S494.79,125.83,481.28,112.15Z"/><polygon class="cls-20" points="469.7 96.91 415.94 94.91 415.94 72.71 457.68 72.71 469.7 96.91"/><polygon class="cls-20" points="455.05 63.73 374.8 65.83 376.27 63.63 452.78 57.81 455.05 63.73"/><path class="cls-21" d="M373.37,69.75l42.56,3v29.18l-82.76,4S363.31,88.08,373.37,69.75Z"/><polygon class="cls-21" points="441.11 95.85 442.82 101.89 473.04 101.89 469.7 96.91 441.11 95.85"/><polygon class="cls-20" points="346.73 120.19 344.02 134.05 418.46 133.03 418.46 115.9 346.73 120.19"/><polygon class="cls-20" points="451.19 51.56 387.85 42.07 390.38 35.79 448.88 39.2 451.19 51.56"/><path class="cls-22" d="M180.67,65.27l-7.38,68.84-149.9-.06V132S123.66,122.41,180.67,65.27Z"/><polygon class="cls-23" points="376.27 92.03 377.21 87.33 378.01 86.63 376.27 92.03"/><polygon class="cls-23" points="383.01 104.26 385.56 105.9 383.96 105.9 383.01 104.26"/><polygon class="cls-23" points="429.58 107.16 431.27 105.08 439.25 104.26 429.58 107.16"/><polygon class="cls-23" points="428.95 99.97 428.95 98.87 430.96 94.91 431.27 99.97 428.95 99.97"/><polygon class="cls-24" points="280.15 75.09 293.61 79.74 284.75 77.42 280.15 75.09"/><polygon class="cls-25" points="191.72 105.9 202.06 102.36 196.89 105.08 191.72 105.9"/><polygon class="cls-24" points="189.92 86.29 200.56 86.63 193.52 87.82 189.92 86.29"/></g></g></g></svg>