<svg xmlns="http://www.w3.org/2000/svg" xmlns:xlink="http://www.w3.org/1999/xlink" viewBox="0 0 135.21 107.22"><defs><style>.cls-1{isolation:isolate;}.cls-2{fill:#521156;}.cls-10,.cls-2,.cls-3,.cls-4,.cls-5,.cls-6,.cls-7,.cls-8,.cls-9{fill-rule:evenodd;}.cls-3{fill:#7f2783;}.cls-4{fill:url(#Áåçûìÿííûé_ãðàäèåíò_234);}.cls-5{fill:url(#Áåçûìÿííûé_ãðàäèåíò_234-2);}.cls-6{fill:url(#Áåçûìÿííûé_ãðàäèåíò_234-3);}.cls-7{fill:url(#Áåçûìÿííûé_ãðàäèåíò_234-4);}.cls-8{fill:#00cad1;}.cls-9{fill:#fff;}.cls-10{fill:#b839b1;opacity:0.2;mix-blend-mode:multiply;}</style><radialGradient id="Áåçûìÿííûé_ãðàäèåíò_234" cx="22.48" cy="17.23" r="37.65" gradientUnits="userSpaceOnUse"><stop offset="0.02" stop-color="#ffbac7"/><stop offset="0.99" stop-color="#b866dd"/></radialGradient><radialGradient id="Áåçûìÿííûé_ãðàäèåíò_234-2" cx="65.26" cy="17.89" r="33.68" xlink:href="#Áåçûìÿííûé_ãðàäèåíò_234"/><radialGradient id="Áåçûìÿííûé_ãðàäèåíò_234-3" cx="112.22" cy="12.56" r="52.06" xlink:href="#Áåçûìÿííûé_ãðàäèåíò_234"/><radialGradient id="Áåçûìÿííûé_ãðàäèåíò_234-4" cx="111.85" cy="11.78" r="50.75" xlink:href="#Áåçûìÿííûé_ãðàäèåíò_234"/></defs><title>Asset 3</title><g class="cls-1"><g id="Layer_2" data-name="Layer 2"><g id="skate"><path class="cls-2" d="M102.17,3.7l-5.26,10-57.59-3.3L23.1,1.78,21.63,63.45s7.4,6,16.32,8.1l62.55.74s9.92-1.29,17.71-5.79Z"/><path class="cls-3" d="M0,12.44S3.53,28.37,18.19,46.1l3.44,17.35s14.62,5.4,26.87.85l2-18S63.78,31.73,68.33,4.73c0,0-13.65-6.81-26.55-4.09L34.16,11.31,23.1,1.78S9.47-.95,0,12.44Z"/><path class="cls-3" d="M102.17,3.7S96.2,37,97.84,63.64a85.57,85.57,0,0,0,20.37,2.86s17-33.77,17-60.94A40.57,40.57,0,0,0,102.17,3.7Z"/><path class="cls-4" d="M2.29,14s7-13.3,20.57-9.6c0,0,6,16.18,12.21,19.89,0,0,7.11-13.69,9.46-21.54,0,0,11.11-2.74,17.56,3.57,0,0-7.2,27.45-20.16,40.37l2.33,15.18s-11.25,5.08-20.58,0l2.75-15.18S14.63,40.88,2.29,14Z"/><path class="cls-3" d="M50.77,5s31-8.85,45.43,1.13c0,0,3.85,35.51-6.41,57.07,0,0-19,6.48-37.45,0C52.34,63.23,41.38,33.06,50.77,5Z"/><path class="cls-5" d="M94.6,7.68C69.22-1.24,55.92,5.35,55.92,5.35,43.85,29.08,54.55,61,54.55,61a53,53,0,0,0,33.33.82C96.93,46,94.6,7.68,94.6,7.68ZM76.49,40.05H68.33s-3-5.35-2.26-16.87c0,0,9.47-4.66,13.44,0C79.51,23.18,81.84,34,76.49,40.05Z"/><path class="cls-6" d="M104.54,5.57s-4,23.27-1.67,40.83l17.56,2.48s12-17.61,11.95-40.2C132.38,8.68,121.36-1.2,104.54,5.57Z"/><polygon class="cls-7" points="101.33 50.6 101.33 58.69 116.17 61.16 119.35 53.12 101.33 50.6"/><path class="cls-2" d="M52.34,63.23,48.5,64.3s-7.67-25.48-4.24-49.9c0,0,3.5-6.77,6.51-9.37C50.77,5,43.38,37,52.34,63.23Z"/><path class="cls-8" d="M54.05,52.86s.92,5.71,2.35,6.8,22.23,3.94,28.52.84,7.46-19,7.46-19-2.17,13.87-9.55,16.89-20.58,2-24.16.59S54.05,52.86,54.05,52.86Z"/><path class="cls-8" d="M26.62,51.72s-2.22,8-1.68,9.5,14.21,1.36,16.61,0,0-14.82,0-14.82.07,11-1.73,13.31S29,60.88,27.64,60,26.62,51.72,26.62,51.72Z"/><path class="cls-8" d="M102.12,52.39s-.39,4,.5,5.31,11,2.29,12.3,1.84,2.8-4.69,2.8-4.69-1.4,3-4,3.86-8.78-.62-10-1.4S102.12,52.39,102.12,52.39Z"/><path class="cls-8" d="M104.18,38.53s-.86,3.66,0,5.92,14.16,3.07,15.83,2.74,4.86-8.66,4.86-8.66-2.66,5.66-7.15,7-10.63-.89-11.86-2.23S104.18,38.53,104.18,38.53Z"/><path class="cls-9" d="M123.76,6.9a16.13,16.13,0,0,1,1.11,8.47l6.18,1.09s1.64-4.78.67-6.88A16,16,0,0,0,123.76,6.9Z"/><path class="cls-9" d="M85.67,6.9a19.4,19.4,0,0,1,2.52,8h5.45s.37-4.89-.58-7A45.2,45.2,0,0,0,85.67,6.9Z"/><path class="cls-9" d="M84.39,6.53s3.24,4.53,3,8.42H86.23s.56-3.55-3.18-8Z"/><path class="cls-9" d="M21.18,5.55a28.07,28.07,0,0,0,1.7,5.19l-5.07,1s-1.42-1.34-2.26-4.86C15.55,6.9,18.62,4.53,21.18,5.55Z"/><path class="cls-9" d="M67.16,40.05a17,17,0,0,1-2.74-6.29l-2.33.9s1.61,4,3.51,5.39Z"/><path class="cls-2" d="M46.16,71.65c1.77,0,2.73,6.36,2.73,16.11,0,10.23-2.08,18.76.6,19.43s.45-10.48,0-20.84,1.3-14.65,1.3-14.65Z"/><path class="cls-10" d="M107,13.23c5.27-5,12.39,4.78,11.07,12.17s-10.42,10-13,6.46S104.46,15.67,107,13.23Z"/><path class="cls-10" d="M6.77,17.56c.78-7.24,12.55-4.33,16.3,2.16S21.53,34.06,17.29,33,6.39,21.06,6.77,17.56Z"/><path class="cls-10" d="M115.5,33.52c0,2.11,2.68,4.83,4,4.92s5.16-5.29,3.15-7S115.5,32.09,115.5,33.52Z"/><path class="cls-10" d="M55.11,47.73c0,2.11,2.68,4.84,4,4.92s5.16-5.28,3.15-7S55.11,46.3,55.11,47.73Z"/><path class="cls-10" d="M26,26c0,2.12,2.68,4.84,4,4.92s5.16-5.28,3.15-7S26,24.53,26,26Z"/><path class="cls-10" d="M78.75,48.78c-1.61-3.16,1-11.05,3.35-11.75s9.35,1.38,8.89,7.48S80.43,52.07,78.75,48.78Z"/><path class="cls-10" d="M76.51,50.37c-.65-.21-1.37-1.65-1.14-2.07a1.48,1.48,0,0,1,2.24-.18C78.37,49,77.19,50.6,76.51,50.37Z"/><path class="cls-10" d="M57.61,14.66c-.65-.22-1.37-1.66-1.14-2.07a1.47,1.47,0,0,1,2.24-.18C59.48,13.31,58.29,14.88,57.61,14.66Z"/><path class="cls-10" d="M37.19,42.88c-.65-.22-1.37-1.66-1.14-2.07a1.47,1.47,0,0,1,2.24-.18C39.06,41.53,37.87,43.1,37.19,42.88Z"/><path class="cls-2" d="M94.31,71.86a4.79,4.79,0,0,1,2.26,4.29c.05,3.19-2.19,10.19.09,10.84s.08-8.71.25-11.14A4.73,4.73,0,0,1,99,72.27Z"/></g></g></g></svg>