<svg xmlns="http://www.w3.org/2000/svg" xmlns:xlink="http://www.w3.org/1999/xlink" viewBox="0 0 197.05 108.09"><defs><style>.cls-1{fill:none;clip-rule:evenodd;}.cls-2{isolation:isolate;}.cls-3{fill:#7c1338;}.cls-10,.cls-11,.cls-12,.cls-122,.cls-123,.cls-124,.cls-125,.cls-126,.cls-127,.cls-128,.cls-129,.cls-13,.cls-130,.cls-131,.cls-132,.cls-133,.cls-134,.cls-135,.cls-136,.cls-137,.cls-138,.cls-139,.cls-14,.cls-140,.cls-141,.cls-142,.cls-143,.cls-144,.cls-145,.cls-146,.cls-147,.cls-148,.cls-149,.cls-15,.cls-150,.cls-151,.cls-155,.cls-156,.cls-16,.cls-17,.cls-18,.cls-19,.cls-20,.cls-21,.cls-22,.cls-23,.cls-24,.cls-25,.cls-26,.cls-27,.cls-28,.cls-29,.cls-3,.cls-30,.cls-31,.cls-32,.cls-33,.cls-34,.cls-35,.cls-36,.cls-37,.cls-38,.cls-39,.cls-55,.cls-56,.cls-59,.cls-6,.cls-60,.cls-61,.cls-62,.cls-63,.cls-64,.cls-65,.cls-66,.cls-67,.cls-68,.cls-69,.cls-7,.cls-70,.cls-71,.cls-72,.cls-73,.cls-74,.cls-75,.cls-76,.cls-77,.cls-78,.cls-79,.cls-8,.cls-80,.cls-81,.cls-9{fill-rule:evenodd;}.cls-4{clip-path:url(#clip-path);}.cls-5,.cls-6{fill:#d32833;}.cls-7{fill:#d42933;}.cls-8{fill:#d52a33;}.cls-9{fill:#d62b33;}.cls-10{fill:#d72c34;}.cls-11{fill:#d82d34;}.cls-12{fill:#d92e34;}.cls-13{fill:#d92f34;}.cls-14{fill:#da3034;}.cls-15{fill:#db3134;}.cls-16{fill:#dc3234;}.cls-17{fill:#dd3334;}.cls-18{fill:#de3435;}.cls-19{fill:#df3535;}.cls-20{fill:#e03635;}.cls-21{fill:#e13735;}.cls-22{fill:#e23835;}.cls-23{fill:#e33935;}.cls-24{fill:#e43a35;}.cls-25{fill:#e43b35;}.cls-26{fill:#e53c36;}.cls-27{fill:#e63d36;}.cls-28{fill:#e73e36;}.cls-29{fill:#e83f36;}.cls-30{fill:#e94136;}.cls-31{fill:#ea4236;}.cls-32{fill:#eb4336;}.cls-33{fill:#ec4436;}.cls-34{fill:#ed4537;}.cls-35{fill:#ee4637;}.cls-36{fill:#ef4737;}.cls-37{fill:#ef4837;}.cls-38{fill:#f04937;}.cls-39{fill:#f14a37;}.cls-40{fill:#f24b37;}.cls-41{fill:#f34c37;}.cls-42{fill:#f44d38;}.cls-43{fill:#f54e38;}.cls-44{fill:#f64f38;}.cls-45{fill:#f75038;}.cls-46{fill:#f85138;}.cls-47{fill:#f95238;}.cls-48{fill:#fa5338;}.cls-49{fill:#fa5438;}.cls-50{fill:#fb5539;}.cls-51{fill:#fc5639;}.cls-52{fill:#fd5739;}.cls-53{fill:#fe5839;}.cls-54{fill:#ff5939;}.cls-55{fill:#1d1039;}.cls-56{fill:#2a2251;}.cls-57{clip-path:url(#clip-path-2);}.cls-58,.cls-59{fill:#ff9a20;}.cls-60{fill:#ff9b20;}.cls-61{fill:#ff9c20;}.cls-62{fill:#ff9d20;}.cls-63{fill:#ff9e20;}.cls-64{fill:#ff9f1f;}.cls-65{fill:#ffa01f;}.cls-66{fill:#ffa11f;}.cls-67{fill:#ffa21f;}.cls-68{fill:#ffa31f;}.cls-69{fill:#ffa41f;}.cls-70{fill:#ffa51f;}.cls-71{fill:#ffa61f;}.cls-72{fill:#ffa71f;}.cls-73{fill:#ffa81e;}.cls-113,.cls-74{fill:#ffa91e;}.cls-114,.cls-75{fill:#ffaa1e;}.cls-115,.cls-76{fill:#ffab1e;}.cls-116,.cls-77{fill:#ffac1e;}.cls-117,.cls-78{fill:#ffad1e;}.cls-118,.cls-79{fill:#ffae1e;}.cls-119,.cls-80{fill:#ffaf1e;}.cls-120,.cls-81{fill:#ffb01d;}.cls-122,.cls-82{fill:#ffb11d;}.cls-123,.cls-83{fill:#ffb21d;}.cls-124,.cls-84{fill:#ffb31d;}.cls-125,.cls-85{fill:#ffb51d;}.cls-126,.cls-86{fill:#ffb61d;}.cls-127,.cls-87{fill:#ffb71d;}.cls-128,.cls-88{fill:#ffb81d;}.cls-129,.cls-89{fill:#ffb91d;}.cls-130,.cls-90{fill:#ffba1c;}.cls-131,.cls-91{fill:#ffbb1c;}.cls-132,.cls-92{fill:#ffbc1c;}.cls-133,.cls-93{fill:#ffbd1c;}.cls-134,.cls-94{fill:#ffbe1c;}.cls-135,.cls-95{fill:#ffbf1c;}.cls-136,.cls-96{fill:#ffc01c;}.cls-137,.cls-97{fill:#ffc11c;}.cls-138,.cls-98{fill:#ffc21c;}.cls-139,.cls-99{fill:#ffc31b;}.cls-100,.cls-140{fill:#ffc41b;}.cls-101,.cls-141{fill:#ffc51b;}.cls-102,.cls-142{fill:#ffc61b;}.cls-103,.cls-143{fill:#ffc71b;}.cls-104,.cls-144{fill:#ffc81b;}.cls-105,.cls-145{fill:#ffc91b;}.cls-106,.cls-146{fill:#ffca1b;}.cls-107,.cls-147{fill:#ffcb1a;}.cls-108,.cls-148{fill:#ffcc1a;}.cls-109,.cls-149{fill:#ffcd1a;}.cls-110,.cls-150{fill:#ffce1a;}.cls-111,.cls-151{fill:#ffcf1a;}.cls-112{clip-path:url(#clip-path-3);}.cls-121{clip-path:url(#clip-path-4);}.cls-152{clip-path:url(#clip-path-5);}.cls-153{clip-path:url(#clip-path-6);}.cls-154{mix-blend-mode:overlay;}.cls-155{fill:#b839b1;}.cls-156{fill:#f4ffff;}</style><clipPath id="clip-path"><path class="cls-1" d="M21.36,81.91s15.46,1,29.52-4.11l2.58,3.56s113.19-.79,136.12-6.64c0,0,2.73-11.09.8-20.54l-3.83.08-.43-11.14,1.72,0s6.7-4.07,9.21-20c0,0-7.85-2.36-26.29-4L168.31,7.74,115.57,9.63l-7,12.64H101.9s-18-7.63-48.39-6.38l-1.44,2.9s-23.66-.34-33.85,5.77c0,0-3.85,14.24-2.29,26L0,56.81S5.46,76.72,21.36,81.91Z"/></clipPath><clipPath id="clip-path-2"><path class="cls-1" d="M61.69,61.77c-.83,2.09-2.73,4-5.27,5.68-10.7,7.18-32.67,10.94-32.67,10.94C11.11,69,11,57.42,11,57.42l7.22-.94,19.68-2.59,0-1.77-11.49.25c-6.35-11.45-.46-20.46-.46-20.46,15.52-6.09,24.41-1.47,24.41-1.47.39,11-6,13.79-6,13.79l-5.66.34.12,1.69L52.27,45a9.34,9.34,0,0,1,2,1.61,30.93,30.93,0,0,1,5.12,8.66A61.67,61.67,0,0,1,61.69,61.77Z"/></clipPath><clipPath id="clip-path-3"><path class="cls-1" d="M101.69,67.72s-1.69,4-9.38,6h0a39.87,39.87,0,0,1-9.74,1.09L74.43,64.18l-1,10.8s-10.59,1.78-15.56.33c0,0-.67-3-1.45-7.86-.38-2.4-.78-5.25-1.16-8.42-.43-3.75-.81-8-1-12.39a124.6,124.6,0,0,1,.61-21s8.32-5.93,16.52-2.4L71.69,37l8.06-13.94s13.46-2,16.65,4.46L80.33,49.11l9.42,8.21,6.78,5.91Z"/></clipPath><clipPath id="clip-path-4"><path class="cls-1" d="M128.07,59.43a112.21,112.21,0,0,0-8.69-23.24c-.75-1.48-1.22-2.32-1.22-2.32a12.08,12.08,0,0,0-1.18-.63c-7.34-3.41-18.27,1.06-18.27,1.06-5,6.73-7.62,15.56-9,23-.29,1.61-.52,3.15-.7,4.59a83.76,83.76,0,0,0-.72,10.39,12.41,12.41,0,0,0,4,1.37h0c5.83,1.07,13.33-.35,13.33-.35l2-8.6,4.9,8.9c7.83.49,17.24-2.47,17.24-2.47A63.94,63.94,0,0,0,128.07,59.43ZM108.18,43.18c6.41,4.83,5.5,12.7,5.5,12.7l-9.28.21A19.91,19.91,0,0,1,108.18,43.18Z"/></clipPath><clipPath id="clip-path-5"><path class="cls-1" d="M164.16,26.43a13.61,13.61,0,0,1-2.36,6.81l-6.37.5-7.35.58,2.13,26,.84,10.34c-8.84,5.26-21.22.47-21.22.47l.71-11.29,1.51-24-13.75.3a21.16,21.16,0,0,1-1.32-3,18.14,18.14,0,0,1,2.59-16.67l41.83-1.7A20.09,20.09,0,0,1,164.16,26.43Z"/></clipPath><clipPath id="clip-path-6"><path class="cls-1" d="M185.49,38.54l-15.2.89L170.4,41l9.34-.52c3.36,5.18-.36,15.17-.36,15.17l-8.57.19.27,1.9,11.13.15,2,0c3.13,5.35-.27,12.52-.27,12.52l-27.71,1.2a48.22,48.22,0,0,1-2.18-13.3,148.1,148.1,0,0,1,1.37-24.56c.41-3,.73-4.82.73-4.82a69.86,69.86,0,0,1,8-2.49A62.5,62.5,0,0,1,187.89,25C190.29,32.18,185.49,38.54,185.49,38.54Z"/></clipPath></defs><title>Asset 2</title><g class="cls-2"><g id="Layer_2" data-name="Layer 2"><g id="skate"><path class="cls-3" d="M21.36,81.91s12.07,2.55,28,4.93l0,1.79s107.12-1.15,130-6l10.2-7.92-138.75.65Z"/><g class="cls-4"><rect class="cls-5" y="7.74" width="197.05" height="75.14"/><path class="cls-6" d="M162.59,19.76A66.87,66.87,0,1,1,29.94,9.22c.39-2.18.9-4.33,1.5-6.44v4H160.93V6.31A67.61,67.61,0,0,1,162.59,19.76Z"/><path class="cls-7" d="M161.22,19.79A65.51,65.51,0,1,1,31.28,9.47c.39-2.14.88-4.25,1.47-6.31V6.74H159.6V6.62A66.27,66.27,0,0,1,161.22,19.79Z"/><path class="cls-8" d="M159.86,19.82A64.15,64.15,0,0,1,31.6,22.67a65.25,65.25,0,0,1,1-13c.38-2.09.86-4.16,1.44-6.18V6.74H156.55V.81q1,3,1.72,6.11A65.13,65.13,0,0,1,159.86,19.82Z"/><path class="cls-9" d="M158.49,19.85A62.78,62.78,0,1,1,34,10q.57-3.08,1.42-6.05V6.74H155.26V1.25q1,2.93,1.68,6A63.06,63.06,0,0,1,158.49,19.85Z"/><path class="cls-10" d="M157.13,19.88A61.42,61.42,0,1,1,35.31,10.2a58.32,58.32,0,0,1,1.38-5.91V6.74H154V1.68q1,2.87,1.65,5.85A62.65,62.65,0,0,1,157.13,19.88Z"/><path class="cls-11" d="M155.76,19.91A60,60,0,1,1,36.65,10.45Q37.19,7.51,38,4.66V6.74H152.67V2.12q.93,2.79,1.61,5.72A60.57,60.57,0,0,1,155.76,19.91Z"/><path class="cls-12" d="M154.4,19.94a58.68,58.68,0,0,1-117.34,2.6A59.46,59.46,0,0,1,38,10.69c.35-1.91.79-3.8,1.32-5.65v1.7H151.37V2.55a55.71,55.71,0,0,1,1.57,5.59A58.7,58.7,0,0,1,154.4,19.94Z"/><path class="cls-13" d="M153,20A57.32,57.32,0,1,1,42.43.11V6.74H150.08V3a55,55,0,0,1,1.53,5.46A57.36,57.36,0,0,1,153,20Z"/><path class="cls-14" d="M151.67,20A56,56,0,1,1,43.7.61V6.74H148.79V3.42q.87,2.61,1.49,5.33A56.3,56.3,0,0,1,151.67,20Z"/><path class="cls-15" d="M150.31,20A54.59,54.59,0,1,1,45,1.12V6.74H147.49V3.86A52.51,52.51,0,0,1,149,9.06,54.87,54.87,0,0,1,150.31,20Z"/><path class="cls-16" d="M148.94,20.06A53.22,53.22,0,1,1,46.24,1.62V6.74h100V4.29c.55,1.65,1,3.35,1.42,5.07A53.09,53.09,0,0,1,148.94,20.06Z"/><path class="cls-17" d="M147.58,20.09a51.86,51.86,0,1,1-100.07-18V6.74h95.55V0A51.71,51.71,0,0,1,147.58,20.09Z"/><path class="cls-18" d="M146.21,20.12A50.49,50.49,0,1,1,48.78,2.62V6.74h93V.56A50.2,50.2,0,0,1,146.21,20.12Z"/><path class="cls-19" d="M144.85,20.15a49.13,49.13,0,1,1-94.8-17V6.74h90.51V1.12A48.88,48.88,0,0,1,144.85,20.15Z"/><path class="cls-20" d="M143.48,20.18A47.76,47.76,0,1,1,51.32,3.63V6.74h88V1.68A47.55,47.55,0,0,1,143.48,20.18Z"/><path class="cls-21" d="M142.12,20.21A46.4,46.4,0,1,1,52.59,4.13V6.74h85.48V2.24A46.19,46.19,0,0,1,142.12,20.21Z"/><path class="cls-22" d="M140.76,20.24a45,45,0,1,1-86.9-15.6v2.1h83V2.79A45,45,0,0,1,140.76,20.24Z"/><path class="cls-23" d="M139.39,20.27A43.67,43.67,0,1,1,55.12,5.14v1.6h80.46V3.35A43.41,43.41,0,0,1,139.39,20.27Z"/><path class="cls-24" d="M138,20.3A42.31,42.31,0,1,1,56.39,5.64v1.1h78V3.91A42.26,42.26,0,0,1,138,20.3Z"/><path class="cls-25" d="M136.66,20.33a40.94,40.94,0,1,1-79-14.18v.59h75.43V4.47A40.71,40.71,0,0,1,136.66,20.33Z"/><path class="cls-26" d="M135.3,20.36A39.58,39.58,0,1,1,58.93,6.65v.09h72.92V5A39.56,39.56,0,0,1,135.3,20.36Z"/><path class="cls-27" d="M133.93,20.39A38.23,38.23,0,1,1,63.58.59V6.74h67V5.59A37.88,37.88,0,0,1,133.93,20.39Z"/><path class="cls-28" d="M132.57,20.42A36.85,36.85,0,1,1,61.47,7.66a36.48,36.48,0,0,1,3.26-6.34V6.74h64.63V6.15A36.69,36.69,0,0,1,132.57,20.42Z"/><path class="cls-29" d="M131.2,20.45A35.48,35.48,0,1,1,65.87,2.06V6.74h62.24v0A35.18,35.18,0,0,1,131.2,20.45Z"/><path class="cls-30" d="M129.84,20.48A34.12,34.12,0,1,1,64,8.66,33.75,33.75,0,0,1,67,2.8V6.74h56.57V1.54a33.88,33.88,0,0,1,6.25,18.94Z"/><path class="cls-31" d="M128.48,20.51A32.75,32.75,0,1,1,65.28,9.17a31.81,31.81,0,0,1,2.89-5.63v3.2h54.31V2.33a33.14,33.14,0,0,1,3.14,5.5A32.68,32.68,0,0,1,128.48,20.51Z"/><path class="cls-32" d="M127.11,20.55A31.39,31.39,0,1,1,66.54,9.67a32,32,0,0,1,2.78-5.4V6.74h52V3.12a30.73,30.73,0,0,1,3,5.26A31.05,31.05,0,0,1,127.11,20.55Z"/><path class="cls-33" d="M125.75,20.58A30,30,0,1,1,74,.49V6.74h46.22V3.91a30.47,30.47,0,0,1,2.88,5A29.9,29.9,0,0,1,125.75,20.58Z"/><path class="cls-34" d="M124.38,20.61A28.66,28.66,0,1,1,75,1.43V6.74h40.52V.53A28.55,28.55,0,0,1,124.38,20.61Z"/><path class="cls-35" d="M123,20.64A27.3,27.3,0,1,1,76,2.37V6.74H114.6V1.52A27.21,27.21,0,0,1,123,20.64Z"/><path class="cls-36" d="M121.65,20.67A25.93,25.93,0,1,1,77,3.32V6.74h36.66V2.5A25.81,25.81,0,0,1,121.65,20.67Z"/><path class="cls-37" d="M120.29,20.7A24.57,24.57,0,1,1,78,4.26V6.74h34.73V3.49A24.5,24.5,0,0,1,120.29,20.7Z"/><path class="cls-38" d="M118.93,20.73A23.2,23.2,0,1,1,79,5.2V6.74h32.8V4.48A23.15,23.15,0,0,1,118.93,20.73Z"/><path class="cls-39" d="M117.56,20.76A21.84,21.84,0,1,1,80,6.15v.59h30.87V5.46A21.77,21.77,0,0,1,117.56,20.76Z"/><circle class="cls-40" cx="95.73" cy="21.24" r="20.47"/><circle class="cls-41" cx="95.73" cy="21.24" r="19.11"/><circle class="cls-42" cx="95.73" cy="21.24" r="17.74"/><circle class="cls-43" cx="95.73" cy="21.24" r="16.38"/><circle class="cls-44" cx="95.73" cy="21.24" r="15.01"/><circle class="cls-45" cx="95.73" cy="21.24" r="13.65"/><circle class="cls-46" cx="95.73" cy="21.24" r="12.28"/><circle class="cls-47" cx="95.73" cy="21.24" r="10.92"/><circle class="cls-48" cx="95.73" cy="21.24" r="9.55"/><circle class="cls-49" cx="95.73" cy="21.24" r="8.19"/><circle class="cls-50" cx="95.73" cy="21.24" r="6.82"/><circle class="cls-51" cx="95.73" cy="21.24" r="5.46"/><circle class="cls-52" cx="95.73" cy="21.24" r="4.09"/><circle class="cls-53" cx="95.73" cy="21.24" r="2.73"/><circle class="cls-54" cx="95.73" cy="21.24" r="1.36"/></g><path class="cls-55" d="M51.83,28.92l1.05,1.6L73,21.86l3.11,2.38L97.86,27.5l3,3.7,8.54-1.42s6.49-13,9.18-15.2L160.48,26.1l-5.43,47-2-1.16-37.34-2.17L62,73.69,46.85,67.53,36.3,43.09Z"/><path class="cls-56" d="M45.57,45.18S54,37.9,51.83,28.92c0,0-13.76-5.11-27.82,1.52,0,0-5.56,13.66-.61,23.14l-15.53,3s5.24,16.22,14.41,22.93c0,0,28.5,1.52,43.23-14.46,0,0-8.6-18.83-12.74-21.08Z"/><g class="cls-57"><rect class="cls-58" x="11.02" y="25.82" width="50.67" height="52.57"/><path class="cls-59" d="M68.91,36.39A32.75,32.75,0,1,1,3.43,37.84H10v-13H62.69V36.39Z"/><path class="cls-60" d="M68.31,36.4A32.14,32.14,0,0,1,4,37.83h6v-13H62.69V36.4Z"/><path class="cls-61" d="M67.7,36.42a31.54,31.54,0,0,1-63.06,1.4H10v-13H62.69v11.6Z"/><path class="cls-62" d="M67.1,36.43A30.94,30.94,0,0,1,5.24,37.8H10V25.71H7.41a30.94,30.94,0,0,1,2.73-5.31v4.42H62.69V36.43Z"/><path class="cls-63" d="M66.49,36.44A30.33,30.33,0,1,1,5.85,37.79H10V25.93H8a30.87,30.87,0,0,1,2.68-5.21v4.1h52V36.44Z"/><path class="cls-64" d="M65.89,36.46A29.73,29.73,0,0,1,6.45,37.78H10V26.16H8.53a29.35,29.35,0,0,1,2.63-5.11v3.77H60.45V20a30,30,0,0,1,2.85,5h-.61V36.46Z"/><path class="cls-65" d="M65.29,36.47A29.12,29.12,0,1,1,7.06,37.76h3V26.38H9.09a28.47,28.47,0,0,1,2.58-5v3.44H60V20.3a29.49,29.49,0,0,1,2.8,4.89h-.06V36.47Z"/><path class="cls-66" d="M64.68,36.48a28.52,28.52,0,1,1-57,1.27H10V26.6H9.65a28.38,28.38,0,0,1,2.53-4.9v3.12H59.46V20.65a28.33,28.33,0,0,1,5.22,15.83Z"/><path class="cls-67" d="M64.08,36.5A27.92,27.92,0,1,1,16,17.82v7H59V21a27.92,27.92,0,0,1,5.11,15.5Z"/><path class="cls-68" d="M63.47,36.51a27.31,27.31,0,1,1-47-18.27v6.58h42V21.35a26.23,26.23,0,0,1,2.62,4.58A27.07,27.07,0,0,1,63.47,36.51Z"/><path class="cls-69" d="M62.87,36.52a26.71,26.71,0,1,1-46-17.86v6.16H54.63v-7A26.59,26.59,0,0,1,62.87,36.52Z"/><path class="cls-70" d="M62.27,36.54a26.1,26.1,0,1,1-45-17.47v5.75h36.9V18.26A26,26,0,0,1,62.27,36.54Z"/><path class="cls-71" d="M61.66,36.55A25.5,25.5,0,1,1,17.75,19.49v5.33H53.8V18.69A25.41,25.41,0,0,1,61.66,36.55Z"/><path class="cls-72" d="M61.06,36.56A24.9,24.9,0,1,1,18.18,19.91v4.91h35.2V19.13A24.8,24.8,0,0,1,61.06,36.56Z"/><path class="cls-73" d="M60.46,36.58A24.29,24.29,0,1,1,18.62,20.33v4.49H53V19.56A24.25,24.25,0,0,1,60.46,36.58Z"/><path class="cls-74" d="M59.85,36.59a23.69,23.69,0,1,1-40.8-15.85v4.08H52.54V20A23.59,23.59,0,0,1,59.85,36.59Z"/><path class="cls-75" d="M59.25,36.61A23.09,23.09,0,1,1,19.49,21.16v3.66H52.13V20.44A23,23,0,0,1,59.25,36.61Z"/><path class="cls-76" d="M58.64,36.62a22.48,22.48,0,1,1-38.71-15v3.24H51.71V20.87A22.37,22.37,0,0,1,58.64,36.62Z"/><path class="cls-77" d="M58,36.63A21.88,21.88,0,1,1,20.36,22v2.82H51.29V21.31A21.77,21.77,0,0,1,58,36.63Z"/><path class="cls-78" d="M57.44,36.65A21.27,21.27,0,1,1,20.8,22.41v2.41H50.87V21.75A21.17,21.17,0,0,1,57.44,36.65Z"/><path class="cls-79" d="M56.83,36.66A20.67,20.67,0,1,1,21.24,22.83v2H50.46V22.18A20.59,20.59,0,0,1,56.83,36.66Z"/><path class="cls-80" d="M56.23,36.67A20.06,20.06,0,1,1,21.67,23.25v1.57H50v-2.2A20,20,0,0,1,56.23,36.67Z"/><path class="cls-81" d="M55.62,36.69a19.45,19.45,0,1,1-33.51-13v1.15H49.62V23.06A19.33,19.33,0,0,1,55.62,36.69Z"/><circle class="cls-82" cx="36.17" cy="37.12" r="18.85"/><circle class="cls-83" cx="36.17" cy="37.12" r="18.25"/><circle class="cls-84" cx="36.17" cy="37.12" r="17.65"/><circle class="cls-85" cx="36.17" cy="37.12" r="17.04"/><circle class="cls-86" cx="36.17" cy="37.12" r="16.44"/><circle class="cls-87" cx="36.17" cy="37.12" r="15.83"/><circle class="cls-88" cx="36.17" cy="37.12" r="15.23"/><circle class="cls-89" cx="36.17" cy="37.12" r="14.63"/><circle class="cls-90" cx="36.17" cy="37.12" r="14.02"/><circle class="cls-91" cx="36.17" cy="37.12" r="13.42"/><circle class="cls-92" cx="36.17" cy="37.12" r="12.82"/><circle class="cls-93" cx="36.17" cy="37.12" r="12.21"/><circle class="cls-94" cx="36.17" cy="37.12" r="11.61"/><circle class="cls-95" cx="36.17" cy="37.12" r="11"/><circle class="cls-96" cx="36.17" cy="37.12" r="10.4"/><circle class="cls-97" cx="36.17" cy="37.12" r="9.8"/><circle class="cls-98" cx="36.17" cy="37.12" r="9.19"/><circle class="cls-99" cx="36.17" cy="37.12" r="8.59"/><circle class="cls-100" cx="36.17" cy="37.12" r="7.98"/><circle class="cls-101" cx="36.17" cy="37.12" r="7.38"/><circle class="cls-102" cx="36.17" cy="37.12" r="6.78"/><circle class="cls-103" cx="36.17" cy="37.12" r="6.17"/><circle class="cls-104" cx="36.17" cy="37.12" r="5.57"/><circle class="cls-105" cx="36.17" cy="37.12" r="4.96"/><circle class="cls-106" cx="36.17" cy="37.12" r="4.36"/><circle class="cls-107" cx="36.17" cy="37.12" r="3.76"/><circle class="cls-108" cx="36.17" cy="37.12" r="3.15"/><circle class="cls-109" cx="36.17" cy="37.12" r="2.55"/><circle class="cls-110" cx="36.17" cy="37.12" r="1.94"/><circle class="cls-111" cx="36.17" cy="37.12" r="1.34"/></g><path class="cls-56" d="M53.86,76.7s-2.28-35.87-.55-52.15c0,0,10.89-4.3,19.67-2.69l1.74,4.39,3.38-5s13.6-2,19.76,6.21L86.13,49l18,18.68S97.71,78.8,80.93,76.08l-4.37-2.36L74,76.08S58.36,79,53.86,76.7Z"/><g class="cls-112"><rect class="cls-58" x="53.92" y="19.72" width="47.77" height="57.04"/><path class="cls-59" d="M101,34.41a31.23,31.23,0,0,1-52.8,23.26h4.69V18.72H91.4V12.54A31.15,31.15,0,0,1,101,34.41Z"/><path class="cls-60" d="M100.46,34.43A30.65,30.65,0,0,1,48.63,57.25h4.29V18.72H91V13A30.54,30.54,0,0,1,100.46,34.43Z"/><path class="cls-61" d="M99.88,34.44A30.07,30.07,0,0,1,49,56.84h3.89V18.72H90.6V13.38A30,30,0,0,1,99.88,34.44Z"/><path class="cls-62" d="M99.31,34.45a29.5,29.5,0,0,1-49.88,22h3.49V18.72H90.21V13.79A29.47,29.47,0,0,1,99.31,34.45Z"/><path class="cls-63" d="M98.73,34.46A28.91,28.91,0,0,1,49.83,56h3.09V18.72H89.81V14.21A28.81,28.81,0,0,1,98.73,34.46Z"/><path class="cls-64" d="M98.15,34.48A28.35,28.35,0,0,1,50.22,55.59h2.7V18.72H89.41v-4.1A28.26,28.26,0,0,1,98.15,34.48Z"/><path class="cls-65" d="M97.58,34.49a27.77,27.77,0,0,1-47,20.68h2.3V18.72H89V15A27.65,27.65,0,0,1,97.58,34.49Z"/><path class="cls-66" d="M97,34.5A27.2,27.2,0,0,1,51,54.76h1.9v-36H88.61V15.46A27.07,27.07,0,0,1,97,34.5Z"/><path class="cls-67" d="M96.43,34.52a26.61,26.61,0,0,1-45,19.82h1.5V18.72H88.21V15.87A26.55,26.55,0,0,1,96.43,34.52Z"/><path class="cls-68" d="M95.85,34.53a26,26,0,0,1-44,19.39h1.1V18.72h34.9V16.29A26,26,0,0,1,95.85,34.53Z"/><path class="cls-69" d="M95.27,34.54a25.47,25.47,0,0,1-43.06,19h.71V18.72h34.5v-2A25.37,25.37,0,0,1,95.27,34.54Z"/><path class="cls-70" d="M94.7,34.55A24.89,24.89,0,0,1,52.61,53.09h.31V18.72H87v-1.6A24.8,24.8,0,0,1,94.7,34.55Z"/><path class="cls-71" d="M94.12,34.57A24.31,24.31,0,0,1,47.63,45.06h5.29V18.72h33.7V17.54A24.21,24.21,0,0,1,94.12,34.57Z"/><path class="cls-72" d="M93.55,34.58a23.74,23.74,0,1,1-47.46,1.05h6.83V18.72h33.3V18A23.7,23.7,0,0,1,93.55,34.58Z"/><path class="cls-73" d="M93,34.59A23.16,23.16,0,1,1,69.3,12v6.77H85.83v-.35A23.1,23.1,0,0,1,93,34.59Z"/><circle class="cls-113" cx="69.82" cy="35.11" r="22.59"/><circle class="cls-114" cx="69.82" cy="35.11" r="22.01"/><circle class="cls-115" cx="69.82" cy="35.11" r="21.43"/><circle class="cls-116" cx="69.82" cy="35.11" r="20.86"/><circle class="cls-117" cx="69.82" cy="35.11" r="20.28"/><circle class="cls-118" cx="69.82" cy="35.11" r="19.71"/><circle class="cls-119" cx="69.82" cy="35.11" r="19.13"/><circle class="cls-120" cx="69.82" cy="35.11" r="18.55"/><circle class="cls-82" cx="69.82" cy="35.11" r="17.98"/><circle class="cls-83" cx="69.82" cy="35.11" r="17.4"/><circle class="cls-84" cx="69.82" cy="35.11" r="16.83"/><circle class="cls-85" cx="69.82" cy="35.11" r="16.25"/><circle class="cls-86" cx="69.82" cy="35.11" r="15.67"/><circle class="cls-87" cx="69.82" cy="35.11" r="15.1"/><circle class="cls-88" cx="69.82" cy="35.11" r="14.52"/><circle class="cls-89" cx="69.82" cy="35.11" r="13.95"/><circle class="cls-90" cx="69.82" cy="35.11" r="13.37"/><circle class="cls-91" cx="69.82" cy="35.11" r="12.8"/><circle class="cls-92" cx="69.82" cy="35.11" r="12.22"/><circle class="cls-93" cx="69.82" cy="35.11" r="11.64"/><circle class="cls-94" cx="69.82" cy="35.11" r="11.07"/><circle class="cls-95" cx="69.82" cy="35.11" r="10.49"/><circle class="cls-96" cx="69.82" cy="35.11" r="9.92"/><circle class="cls-97" cx="69.82" cy="35.11" r="9.34"/><circle class="cls-98" cx="69.82" cy="35.11" r="8.76"/><circle class="cls-99" cx="69.82" cy="35.11" r="8.19"/><circle class="cls-100" cx="69.82" cy="35.11" r="7.61"/><circle class="cls-101" cx="69.82" cy="35.11" r="7.04"/><circle class="cls-102" cx="69.82" cy="35.11" r="6.46"/><circle class="cls-103" cx="69.82" cy="35.11" r="5.88"/><circle class="cls-104" cx="69.82" cy="35.11" r="5.31"/><circle class="cls-105" cx="69.82" cy="35.11" r="4.73"/><circle class="cls-106" cx="69.82" cy="35.11" r="4.16"/><circle class="cls-107" cx="69.82" cy="35.11" r="3.58"/><circle class="cls-108" cx="69.82" cy="35.11" r="3.01"/><circle class="cls-109" cx="69.82" cy="35.11" r="2.43"/><circle class="cls-110" cx="69.82" cy="35.11" r="1.85"/><circle class="cls-111" cx="69.82" cy="35.11" r="1.28"/></g><path class="cls-56" d="M86.5,73.62S85.81,48.35,97.56,33c0,0,10.83-7.48,22.75-2.65,0,0,12.37,26.9,10.68,42.66L110.8,74.66l-2.53-3-1.23,3S92.07,75.84,86.5,73.62Z"/><g class="cls-121"><rect class="cls-58" x="103.85" y="43.18" width="10.74" height="12.92"/><rect class="cls-58" x="102.85" y="42.18" width="12.74" height="14.92"/><polygon class="cls-60" points="115.59 42.17 115.59 56.84 115.59 57.09 102.85 57.09 102.85 42.17 115.59 42.17"/><polygon class="cls-61" points="115.59 42.17 115.59 56.51 115.59 57.09 102.85 57.09 102.85 42.17 115.59 42.17"/><polygon class="cls-62" points="115.59 42.17 115.59 56.17 115.59 57.09 102.85 57.09 102.85 42.17 115.59 42.17"/><polygon class="cls-63" points="115.59 42.17 115.59 55.84 115.59 57.09 102.85 57.09 102.85 42.17 115.59 42.17"/><polygon class="cls-64" points="115.59 42.17 115.59 55.51 115.59 57.09 102.85 57.09 102.85 42.17 115.59 42.17"/><polygon class="cls-65" points="115.59 42.17 115.59 55.17 115.59 57.09 102.85 57.09 102.85 42.17 115.59 42.17"/><polygon class="cls-66" points="115.59 42.17 115.59 54.84 115.59 57.09 102.85 57.09 102.85 42.17 115.59 42.17"/><polygon class="cls-67" points="115.59 42.17 115.59 54.5 115.59 57.09 102.85 57.09 102.85 42.17 115.59 42.17"/><polygon class="cls-68" points="115.59 42.17 115.59 54.17 115.59 57.09 102.85 57.09 102.85 42.17 115.59 42.17"/><path class="cls-69" d="M115.59,42.18V57.09h-6.35v1.77a19.83,19.83,0,0,1-7.62-2h1.23V42.18Z"/><path class="cls-70" d="M115.59,42.18V57.09h-6.33v1.33A19.34,19.34,0,0,1,95.9,52h6.95V42.18Z"/><path class="cls-71" d="M115.59,42.18V56.89h1.13A18.92,18.92,0,0,1,96.24,51.7h6.61V42.18Z"/><path class="cls-72" d="M115.59,42.18V56.47h1a18.5,18.5,0,0,1-20-5.07h6.28V42.18Z"/><path class="cls-73" d="M115.59,42.18V52.5h6.76A18,18,0,0,1,96.9,51.1h5.95V42.18Z"/><path class="cls-74" d="M115.59,42.18v10h6.46A17.55,17.55,0,0,1,97.24,50.8h5.61V42.18Z"/><path class="cls-75" d="M115.59,42.18v9.65h6.16a17.12,17.12,0,0,1-24.18-1.32h5.28V42.18Z"/><path class="cls-76" d="M115.59,42.18V51.5h5.87A16.69,16.69,0,0,1,97.9,50.21h4.95v-8Z"/><path class="cls-77" d="M115.59,42.18v9h5.57a16.25,16.25,0,0,1-22.92-1.26h4.61V42.18Z"/><path class="cls-78" d="M115.59,42.18v8.65h5.27a15.78,15.78,0,0,1-22.29-1.22h4.28V42.18Z"/><path class="cls-79" d="M115.59,42.18V50.5h5a15.33,15.33,0,0,1-21.65-1.19h3.94V42.18Z"/><path class="cls-80" d="M115.59,42.18v8h4.67a14.88,14.88,0,0,1-21-1.15h3.61V42.18Z"/><path class="cls-81" d="M115.59,42.18v7.65H120a14.45,14.45,0,0,1-20.39-1.12h3.28V42.18Z"/><path class="cls-122" d="M115.59,42.18V49.5h4.07a14,14,0,0,1-23.3-11.19l6.49,3.87Z"/><path class="cls-123" d="M115.59,42.18v7h3.77A13.54,13.54,0,0,1,96.8,38.34l6,3.84Z"/><path class="cls-124" d="M115.59,42.18v6.65h3.47A13.09,13.09,0,0,1,97.25,38.36l5.6,3.82Z"/><path class="cls-125" d="M115.59,42.18V48.5h3.17A12.65,12.65,0,0,1,97.7,38.38l5.15,3.8Z"/><path class="cls-126" d="M122.51,39.75a12.2,12.2,0,0,1-24.36-1.34l4.7,3.77h12.74Z"/><path class="cls-127" d="M122.06,39.72a11.75,11.75,0,0,1-23.47-1.29l4.26,3.75h12.74Z"/><path class="cls-128" d="M121.61,39.7A11.3,11.3,0,0,1,99,38.46l3.81,3.72h12.74Z"/><path class="cls-129" d="M121.16,39.67a10.85,10.85,0,1,1-21.67-1.19l3.36,3.7h12.74Z"/><path class="cls-130" d="M120.72,39.65a10.41,10.41,0,0,1-20.78-1.14l2.91,3.67h12.74Z"/><path class="cls-131" d="M120.27,39.62a10,10,0,0,1-19.89-1.09l2.47,3.65h12.74Z"/><path class="cls-132" d="M119.82,39.6a9.51,9.51,0,0,1-19-1l2,3.62h12.74Z"/><path class="cls-133" d="M119.37,39.57a9.06,9.06,0,1,1-18.09-1l1.57,3.6h12.74Z"/><path class="cls-134" d="M118.93,39.55a8.61,8.61,0,1,1-17.2-.94l1.12,3.57h12.74Z"/><path class="cls-135" d="M118.48,39.52a8.17,8.17,0,0,1-16.31-.89l.68,3.55h12.74Z"/><path class="cls-136" d="M118,39.5a7.72,7.72,0,0,1-15.41-.85l.23,3.53h12.74Z"/><path class="cls-137" d="M117.58,39.48a7.27,7.27,0,0,1-14.51-.8v3.5h12.52Z"/><path class="cls-138" d="M117.14,39.45a6.82,6.82,0,1,1-13.62-.75v3.48h12.07Z"/><path class="cls-139" d="M116.69,39.43a6.37,6.37,0,0,1-12.73-.7v3.45h11.63Z"/><path class="cls-140" d="M116.24,39.4a5.92,5.92,0,0,1-11.83-.65v3.43h11.18Z"/><path class="cls-141" d="M115.79,39.38a5.47,5.47,0,0,1-10.93-.6v3.4h10.73Z"/><path class="cls-142" d="M115.35,39.35a5,5,0,1,1-10-.55v3.38h10Z"/><path class="cls-143" d="M114.9,39.33a4.58,4.58,0,0,1-9.15-.5v3.35h9.15Z"/><path class="cls-144" d="M114.45,39.3a4.13,4.13,0,0,1-8.25-.45v3.33h8.25Z"/><path class="cls-145" d="M114,39.28a3.68,3.68,0,0,1-7.35-.4v3.3H114Z"/><path class="cls-146" d="M113.56,39.25a3.23,3.23,0,1,1-6.46-.35v3.28h6.46Z"/><path class="cls-147" d="M113.11,42.18h0Z"/><path class="cls-148" d="M112.66,42.18h0Z"/><path class="cls-149" d="M112.21,42.18h0Z"/><path class="cls-150" d="M111.77,42.18h0Z"/><path class="cls-151" d="M111.32,42.18h0Z"/><rect class="cls-58" x="88.28" y="29.83" width="41.55" height="44.9"/><path class="cls-59" d="M134.59,40.41a24.3,24.3,0,1,1-46.1-12v.42h39.93v-6A24.28,24.28,0,0,1,134.59,40.41Z"/><path class="cls-60" d="M134.14,40.38A23.85,23.85,0,1,1,88.89,28.6v.23h39.2V23.16A23.8,23.8,0,0,1,134.14,40.38Z"/><path class="cls-61" d="M133.69,40.36A23.4,23.4,0,1,1,89.3,28.8v0h38.45V23.46A23.3,23.3,0,0,1,133.69,40.36Z"/><path class="cls-62" d="M133.24,40.34A22.95,22.95,0,1,1,95,22v6.85h32.41V23.76A22.89,22.89,0,0,1,133.24,40.34Z"/><path class="cls-63" d="M132.8,40.31a22.5,22.5,0,1,1-37.49-18v6.51h31.78V24.06A22.46,22.46,0,0,1,132.8,40.31Z"/><path class="cls-64" d="M132.35,40.29A22.06,22.06,0,1,1,95.61,22.65v6.18h31.14V24.36A22,22,0,0,1,132.35,40.29Z"/><path class="cls-65" d="M131.9,40.26A21.61,21.61,0,1,1,95.91,23v5.85h30.51V24.66A21.52,21.52,0,0,1,131.9,40.26Z"/><path class="cls-66" d="M131.45,40.24A21.16,21.16,0,1,1,96.21,23.32v5.51h29.88V25A21.09,21.09,0,0,1,131.45,40.24Z"/><path class="cls-67" d="M131,40.21a20.71,20.71,0,1,1-34.5-16.56v5.18h29.24V25.26A20.63,20.63,0,0,1,131,40.21Z"/><path class="cls-68" d="M130.56,40.19A20.27,20.27,0,1,1,96.8,24v4.85h28.62V25.56A20.17,20.17,0,0,1,130.56,40.19Z"/><path class="cls-69" d="M130.11,40.16a19.81,19.81,0,1,1-33-15.84v4.51h28v-3A19.74,19.74,0,0,1,130.11,40.16Z"/><path class="cls-70" d="M129.66,40.14A19.36,19.36,0,1,1,97.4,24.65v4.18h27.35V26.15A19.29,19.29,0,0,1,129.66,40.14Z"/><path class="cls-71" d="M129.22,40.11A18.92,18.92,0,1,1,97.7,25v3.84h26.72V26.45A18.9,18.9,0,0,1,129.22,40.11Z"/><path class="cls-72" d="M128.77,40.09A18.47,18.47,0,1,1,98,25.32v3.51h26.08V26.75A18.4,18.4,0,0,1,128.77,40.09Z"/><path class="cls-73" d="M128.32,40.06a18,18,0,1,1-30-14.41v3.18h25.45V27.05A18,18,0,0,1,128.32,40.06Z"/><path class="cls-74" d="M127.87,40A17.57,17.57,0,1,1,98.6,26v2.84h24.82V27.35A17.49,17.49,0,0,1,127.87,40Z"/><path class="cls-75" d="M127.43,40A17.13,17.13,0,1,1,98.9,26.32v2.51h12.36V22A17.12,17.12,0,0,1,127.43,40Z"/><circle class="cls-115" cx="110.33" cy="39.08" r="16.68"/><circle class="cls-116" cx="110.33" cy="39.08" r="16.23"/><circle class="cls-117" cx="110.33" cy="39.08" r="15.78"/><circle class="cls-118" cx="110.33" cy="39.08" r="15.33"/><circle class="cls-119" cx="110.33" cy="39.08" r="14.89"/><circle class="cls-120" cx="110.33" cy="39.08" r="14.44"/><circle class="cls-82" cx="110.33" cy="39.08" r="13.99"/><circle class="cls-83" cx="110.33" cy="39.08" r="13.54"/><circle class="cls-84" cx="110.33" cy="39.08" r="13.09"/><circle class="cls-85" cx="110.33" cy="39.08" r="12.65"/><circle class="cls-86" cx="110.33" cy="39.08" r="12.2"/><circle class="cls-87" cx="110.33" cy="39.08" r="11.75"/><circle class="cls-88" cx="110.33" cy="39.08" r="11.3"/><circle class="cls-89" cx="110.33" cy="39.08" r="10.85"/><circle class="cls-90" cx="110.33" cy="39.08" r="10.4"/><circle class="cls-91" cx="110.33" cy="39.08" r="9.96"/><circle class="cls-92" cx="110.33" cy="39.08" r="9.51"/><circle class="cls-93" cx="110.33" cy="39.08" r="9.06"/><circle class="cls-94" cx="110.33" cy="39.08" r="8.61"/><circle class="cls-95" cx="110.33" cy="39.08" r="8.16"/><circle class="cls-96" cx="110.33" cy="39.08" r="7.72"/><circle class="cls-97" cx="110.33" cy="39.08" r="7.27"/><circle class="cls-98" cx="110.33" cy="39.08" r="6.82"/><circle class="cls-99" cx="110.33" cy="39.08" r="6.37"/><circle class="cls-100" cx="110.33" cy="39.08" r="5.92"/><circle class="cls-101" cx="110.33" cy="39.08" r="5.48"/><circle class="cls-102" cx="110.33" cy="39.08" r="5.03"/><circle class="cls-103" cx="110.33" cy="39.08" r="4.58"/><circle class="cls-104" cx="110.33" cy="39.08" r="4.13"/><circle class="cls-105" cx="110.33" cy="39.08" r="3.68"/><circle class="cls-106" cx="110.33" cy="39.08" r="3.23"/><circle class="cls-107" cx="110.33" cy="39.08" r="2.79"/><circle class="cls-108" cx="110.33" cy="39.08" r="2.34"/><circle class="cls-109" cx="110.33" cy="39.08" r="1.89"/><circle class="cls-110" cx="110.33" cy="39.08" r="1.44"/><circle class="cls-111" cx="110.33" cy="39.08" r="0.99"/></g><path class="cls-56" d="M118.6,14.58S110.18,25,115.1,38l15.34-.34L127.63,73.4s10.93,5.16,25.46-1.5l-3.71-34.83,15.08-1.86s3.4-14.62-1.88-22.69C162.58,12.52,136.23,15.12,118.6,14.58Z"/><g class="cls-152"><rect class="cls-58" x="113.67" y="14.87" width="50.77" height="61.07"/><path class="cls-59" d="M171.16,24.29a31.68,31.68,0,0,1-63.34,1.41h4.85V13.87h52.76V24.29Z"/><path class="cls-60" d="M170.58,24.3a31.1,31.1,0,1,1-62.18,1.38h4.27V13.87h52.76V24.3Z"/><path class="cls-61" d="M170,24.32a30.51,30.51,0,1,1-61,1.35h3.68V13.87h52.76V24.32Z"/><path class="cls-62" d="M169.41,24.33a29.93,29.93,0,0,1-59.84,1.33h3.1V14h-1a29.71,29.71,0,0,1,2.65-5.14v5h51.12V24.33Z"/><path class="cls-63" d="M168.82,24.34a29.34,29.34,0,1,1-58.66,1.31h2.51V14.18h-.46a29,29,0,0,1,2.59-5v4.74h50.63V24.34Z"/><path class="cls-64" d="M168.24,24.36A28.77,28.77,0,1,1,115.29,9.45v4.42h50.14V24.36Z"/><path class="cls-65" d="M167.65,24.37a28.19,28.19,0,1,1-51.86-14.6v4.1H165.2v-.42A28,28,0,0,1,167.65,24.37Z"/><path class="cls-66" d="M167.07,24.38a27.6,27.6,0,1,1-50.79-14.3v3.79h48.38v-.18A27.41,27.41,0,0,1,167.07,24.38Z"/><path class="cls-67" d="M166.49,24.39a27,27,0,1,1-49.72-14v3.47h44.77V9.4a27.37,27.37,0,0,1,2.59,4.53A27,27,0,0,1,166.49,24.39Z"/><path class="cls-68" d="M165.9,24.41a26.42,26.42,0,1,1-51-9.16,27,27,0,0,1,2.34-4.54v3.16h43.8V9.74a26.17,26.17,0,0,1,4.84,14.67Z"/><path class="cls-69" d="M165.32,24.42a25.84,25.84,0,1,1-44.5-17.28v6.73h39.77V10.08a25.63,25.63,0,0,1,4.73,14.34Z"/><path class="cls-70" d="M164.73,24.43A25.25,25.25,0,1,1,121.24,7.54v6.33h38.87V10.41a25.38,25.38,0,0,1,2.42,4.24A25,25,0,0,1,164.73,24.43Z"/><path class="cls-71" d="M164.15,24.45A24.67,24.67,0,1,1,121.67,7.94v5.93h34.87V7.17A24.59,24.59,0,0,1,164.15,24.45Z"/><path class="cls-72" d="M163.57,24.46A24.09,24.09,0,1,1,122.09,8.35v5.52h34V7.59A24,24,0,0,1,163.57,24.46Z"/><path class="cls-73" d="M163,24.47A23.5,23.5,0,1,1,122.51,8.75v5.12h33.22V8A23.39,23.39,0,0,1,163,24.47Z"/><path class="cls-74" d="M162.4,24.49A22.92,22.92,0,1,1,122.93,9.16v4.71h32.4V8.44A22.82,22.82,0,0,1,162.4,24.49Z"/><path class="cls-75" d="M161.81,24.5A22.33,22.33,0,1,1,123.35,9.56v4.31h31.57v-5A22.22,22.22,0,0,1,161.81,24.5Z"/><path class="cls-76" d="M161.23,24.51A21.75,21.75,0,1,1,123.78,10v3.91h30.74V9.28A21.68,21.68,0,0,1,161.23,24.51Z"/><path class="cls-77" d="M160.65,24.52A21.17,21.17,0,1,1,124.2,10.37v3.5h29.92V9.7A21.12,21.12,0,0,1,160.65,24.52Z"/><path class="cls-78" d="M160.06,24.54a20.58,20.58,0,1,1-35.44-13.77v3.1h29.09V10.12A20.49,20.49,0,0,1,160.06,24.54Z"/><path class="cls-79" d="M159.48,24.55A20,20,0,1,1,125,11.17v2.7h28.27V10.55A19.93,19.93,0,0,1,159.48,24.55Z"/><path class="cls-80" d="M158.89,24.56a19.4,19.4,0,1,1-33.43-13v2.29h27.45V11A19.36,19.36,0,0,1,158.89,24.56Z"/><path class="cls-81" d="M158.31,24.58A18.82,18.82,0,1,1,125.89,12v1.89H152.5V11.39A18.8,18.8,0,0,1,158.31,24.58Z"/><path class="cls-122" d="M157.72,24.59a18.24,18.24,0,1,1-31.41-12.2v1.48H152.1V11.81A18.19,18.19,0,0,1,157.72,24.59Z"/><circle class="cls-83" cx="139.49" cy="24.99" r="17.66"/><circle class="cls-84" cx="139.49" cy="24.99" r="17.07"/><circle class="cls-85" cx="139.49" cy="24.99" r="16.49"/><circle class="cls-86" cx="139.49" cy="24.99" r="15.9"/><circle class="cls-87" cx="139.49" cy="24.99" r="15.32"/><circle class="cls-88" cx="139.49" cy="24.99" r="14.73"/><circle class="cls-89" cx="139.49" cy="24.99" r="14.15"/><circle class="cls-90" cx="139.49" cy="24.99" r="13.57"/><circle class="cls-91" cx="139.49" cy="24.99" r="12.98"/><circle class="cls-92" cx="139.49" cy="24.99" r="12.4"/><circle class="cls-93" cx="139.49" cy="24.99" r="11.81"/><circle class="cls-94" cx="139.49" cy="24.99" r="11.23"/><circle class="cls-95" cx="139.49" cy="24.99" r="10.64"/><circle class="cls-96" cx="139.49" cy="24.99" r="10.06"/><circle class="cls-97" cx="139.49" cy="24.99" r="9.48"/><circle class="cls-98" cx="139.49" cy="24.99" r="8.89"/><circle class="cls-99" cx="139.49" cy="24.99" r="8.31"/><circle class="cls-100" cx="139.49" cy="24.99" r="7.72"/><circle class="cls-101" cx="139.49" cy="24.99" r="7.14"/><circle class="cls-102" cx="139.49" cy="24.99" r="6.55"/><circle class="cls-103" cx="139.49" cy="24.99" r="5.97"/><circle class="cls-104" cx="139.49" cy="24.99" r="5.39"/><circle class="cls-105" cx="139.49" cy="24.99" r="4.8"/><circle class="cls-106" cx="139.49" cy="24.99" r="4.22"/><circle class="cls-107" cx="139.49" cy="24.99" r="3.63"/><circle class="cls-108" cx="139.49" cy="24.99" r="3.05"/><circle class="cls-109" cx="139.49" cy="24.99" r="2.46"/><circle class="cls-110" cx="139.49" cy="24.99" r="1.88"/><circle class="cls-111" cx="139.49" cy="24.99" r="1.3"/></g><path class="cls-56" d="M154.73,27.43s-5.57,30.62.32,45.63l30.42-.68s2.43-8.71-.34-15.29l-3.1-.24s.87-9.59.11-15.91l3.79-.55s5.52-4.86,4.94-16.9A124.29,124.29,0,0,0,154.73,27.43Z"/><g class="cls-153"><rect class="cls-58" x="153.65" y="23.12" width="36.64" height="48.48"/><path class="cls-59" d="M195.66,31.87a25,25,0,0,1-47.88,10.82h4.87V22.12h38.43V18a25.21,25.21,0,0,1,2.4,4.2h-2.19v9.7Z"/><path class="cls-60" d="M195.2,31.88a24.58,24.58,0,1,1-42.33-16.44v6.68H190.7V18.24a24.58,24.58,0,0,1,2.36,4.12h-1.77v9.52Z"/><path class="cls-61" d="M194.74,31.89A24.12,24.12,0,1,1,153.2,15.76v6.36h37.12V18.5a24.55,24.55,0,0,1,2.32,4.05h-1.35v9.34Z"/><path class="cls-62" d="M194.28,31.9a23.66,23.66,0,1,1-40.75-15.82v6H187V15.33A23.64,23.64,0,0,1,194.28,31.9Z"/><path class="cls-63" d="M193.82,31.91A23.2,23.2,0,1,1,153.87,16.4v5.72h32.79V15.67A23.14,23.14,0,0,1,193.82,31.91Z"/><path class="cls-64" d="M193.35,31.92a22.73,22.73,0,1,1-39.15-15.2v5.4h32.14V16A22.6,22.6,0,0,1,193.35,31.92Z"/><path class="cls-65" d="M192.89,31.93A22.27,22.27,0,1,1,154.53,17v5.09H186V16.34A22.16,22.16,0,0,1,192.89,31.93Z"/><path class="cls-66" d="M192.43,31.94a21.81,21.81,0,1,1-37.56-14.59v4.77H185.7V16.67A21.69,21.69,0,0,1,192.43,31.94Z"/><path class="cls-67" d="M192,32A21.35,21.35,0,1,1,155.2,17.67v4.45h30.18V17A21.28,21.28,0,0,1,192,32Z"/><path class="cls-68" d="M191.51,32a20.89,20.89,0,1,1-36-14v4.13h29.52V17.34A20.79,20.79,0,0,1,191.51,32Z"/><path class="cls-69" d="M191.05,32a20.42,20.42,0,1,1-35.18-13.67v3.81h28.87V17.67A20.38,20.38,0,0,1,191.05,32Z"/><path class="cls-70" d="M190.58,32A20,20,0,1,1,156.2,18.63v3.49h28.23V18A19.93,19.93,0,0,1,190.58,32Z"/><path class="cls-71" d="M190.12,32a19.5,19.5,0,1,1-33.58-13v3.17h27.57V18.34A19.45,19.45,0,0,1,190.12,32Z"/><path class="cls-72" d="M189.66,32a19,19,0,1,1-32.79-12.74v2.85h26.92V18.67A19,19,0,0,1,189.66,32Z"/><path class="cls-73" d="M189.2,32a18.57,18.57,0,1,1-32-12.43v2.53h26.27V19A18.55,18.55,0,0,1,189.2,32Z"/><path class="cls-74" d="M188.74,32a18.11,18.11,0,1,1-31.2-12.12v2.21h25.61V19.34A18.05,18.05,0,0,1,188.74,32Z"/><path class="cls-75" d="M188.28,32a17.65,17.65,0,1,1-30.41-11.81v1.89h25V19.67A17.64,17.64,0,0,1,188.28,32Z"/><path class="cls-76" d="M187.81,32.05a17.19,17.19,0,1,1-17.56-16.81v6.88h12.26V20A17.1,17.1,0,0,1,187.81,32.05Z"/><circle class="cls-116" cx="170.63" cy="32.43" r="16.73"/><circle class="cls-117" cx="170.63" cy="32.43" r="16.27"/><circle class="cls-118" cx="170.63" cy="32.43" r="15.8"/><circle class="cls-119" cx="170.63" cy="32.43" r="15.34"/><circle class="cls-120" cx="170.63" cy="32.43" r="14.88"/><circle class="cls-82" cx="170.63" cy="32.43" r="14.42"/><circle class="cls-83" cx="170.63" cy="32.43" r="13.96"/><circle class="cls-84" cx="170.63" cy="32.43" r="13.49"/><circle class="cls-85" cx="170.63" cy="32.43" r="13.03"/><circle class="cls-86" cx="170.63" cy="32.43" r="12.57"/><circle class="cls-87" cx="170.63" cy="32.43" r="12.11"/><circle class="cls-88" cx="170.63" cy="32.43" r="11.65"/><circle class="cls-89" cx="170.63" cy="32.43" r="11.19"/><circle class="cls-90" cx="170.63" cy="32.43" r="10.72"/><circle class="cls-91" cx="170.63" cy="32.43" r="10.26"/><circle class="cls-92" cx="170.63" cy="32.43" r="9.8"/><circle class="cls-93" cx="170.63" cy="32.43" r="9.34"/><circle class="cls-94" cx="170.63" cy="32.43" r="8.88"/><circle class="cls-95" cx="170.63" cy="32.43" r="8.41"/><circle class="cls-96" cx="170.63" cy="32.43" r="7.95"/><circle class="cls-97" cx="170.63" cy="32.43" r="7.49"/><circle class="cls-98" cx="170.63" cy="32.43" r="7.03"/><circle class="cls-99" cx="170.63" cy="32.43" r="6.57"/><circle class="cls-100" cx="170.63" cy="32.43" r="6.11"/><circle class="cls-101" cx="170.63" cy="32.43" r="5.64"/><circle class="cls-102" cx="170.63" cy="32.43" r="5.18"/><circle class="cls-103" cx="170.63" cy="32.43" r="4.72"/><circle class="cls-104" cx="170.63" cy="32.43" r="4.26"/><circle class="cls-105" cx="170.63" cy="32.43" r="3.8"/><circle class="cls-106" cx="170.63" cy="32.43" r="3.33"/><circle class="cls-107" cx="170.63" cy="32.43" r="2.87"/><circle class="cls-108" cx="170.63" cy="32.43" r="2.41"/><circle class="cls-109" cx="170.63" cy="32.43" r="1.95"/><circle class="cls-110" cx="170.63" cy="32.43" r="1.49"/><circle class="cls-111" cx="170.63" cy="32.43" r="1.02"/></g><g class="cls-154"><path class="cls-155" d="M150.21,60.34l.84,10.34c-8.84,5.26-21.22.47-21.22.47s-9.41,3-17.24,2.47l-4.9-8.9-2,8.6s-7.5,1.42-13.33.35h0a39.87,39.87,0,0,1-9.74,1.09L74.43,64.18l-1,10.8s-10.59,1.78-15.56.33c0,0-.67-3-1.45-7.86-10.7,7.18-32.67,10.94-32.67,10.94C11.11,69,11,57.42,11,57.42l7.22-.94s8.84-.85,11.47,1.27S27.2,65,28.39,67.06s1.83-3.7,4.69-4.24S38.64,67.87,42,69s4.55-1.72,6.64-2.37,3.78,2.29,4.78,2.12c.71-.12.22-5.76,1.83-9.7a5.62,5.62,0,0,1,3.38-3.54,7.16,7.16,0,0,1,.73-.19c4.78-.87,4,6.46,7.54,6.71,3.73.26,1.49-7.44,11.46-7.19,7.18.18,8.51,4.48,10.68,7.09a4.78,4.78,0,0,0,3.33,2,11.89,11.89,0,0,0,4.15-.63c7-2,18-7.89,22.07-7.45,5.08.53,2.07,7.38,4.39,8.2s-.27-3.44.74-5.19c.92-1.58,2.31-.8,4.34.64l.62.45a1.8,1.8,0,0,0,1.85,0c2.67-1.24,6.55-6.16,9.58-6.43,3.86-.35,5.57,7.94,7.5,8.75C148.66,62.63,149.52,61.49,150.21,60.34Z"/></g><g class="cls-154"><path class="cls-155" d="M184,70.4l-27.71,1.2a48.22,48.22,0,0,1-2.18-13.3c2.14.2,5.5,1.09,9.64,4.29,6.61,5.11,8-.73,10.92-3.1s4.42,1,5.87,1.67c.66.3,1.18-1.42,1.72-3.3l2,0C187.35,63.23,184,70.4,184,70.4Z"/></g><g class="cls-154"><path class="cls-155" d="M59.51,49.58c-2.21,1.5-1.64,3.62.1,4.42s4.76-1.71,4.6-2.85S61,48.57,59.51,49.58Z"/></g><g class="cls-154"><path class="cls-155" d="M166.48,59.17c-2.21,1.5-1.64,3.62.1,4.42s4.77-1.71,4.6-2.85S168,58.16,166.48,59.17Z"/></g><g class="cls-154"><path class="cls-155" d="M136.11,46.53c-1.83,1.24-1.36,3,.08,3.66s3.95-1.41,3.81-2.36S137.35,45.7,136.11,46.53Z"/></g><g class="cls-154"><path class="cls-155" d="M158.7,55.75c-1.1-.45-1.74.29-1.6,1.13s1.81,1.34,2.19,1A1.66,1.66,0,0,0,158.7,55.75Z"/></g><g class="cls-154"><path class="cls-155" d="M38.67,64.05c-.55-.09.16-2.51,1-2.75s3.45.64,2.91,1.8S39.47,64.18,38.67,64.05Z"/></g><g class="cls-154"><path class="cls-155" d="M174.11,33.3c-.55-.09.16-2.52,1-2.75s3.45.64,2.91,1.8S174.9,33.42,174.11,33.3Z"/></g><path class="cls-156" d="M157.12,30.3s-1.85,10.36-1,11.81,2.59-9.27,5.91-11.92,9.61-3.05,10.06-3.71S161.58,26,157.12,30.3Z"/><path class="cls-156" d="M173.77,26.34c0-.53,3.46-1,4.2-.5s-1.42,1.3-2.08,1.24S173.76,26.67,173.77,26.34Z"/><path class="cls-156" d="M117,28.6s.59-10.14,3-11.3,32.19-1.77,32.42-1.27S130,17.72,123.59,18.78C117.94,19.71,120.05,28.5,117,28.6Z"/><path class="cls-156" d="M117,30c-1.43-.07.5,2.86,1.31,2.7S118.36,30.08,117,30Z"/><path class="cls-156" d="M93.56,48.82c.13,1.87,8.41-10.1,7.43-12.55S93.14,42.86,93.56,48.82Z"/><path class="cls-156" d="M55.83,26.11c-.65.84-1.68,14.58-.42,15.46S55.78,30.32,58,27,57,24.57,55.83,26.11Z"/><path class="cls-156" d="M80.56,24.21c-1.3.84-3,5.13-2.37,5.25s5.12-3.91,5.2-4.68S81.44,23.65,80.56,24.21Z"/><path class="cls-156" d="M24.65,38.76c-.5.1.81-5.09,1.82-6.26s7.65-2.46,8.09-1.8-5.09,3.22-6.88,4.41S25.7,38.55,24.65,38.76Z"/><path class="cls-56" d="M183.08,72.43s.55.35,1.39,1c1.59,1.23-2.63,34.16-.66,34.63,3,.71.78-13.1.92-19.75s.74-15.94.74-15.94Z"/><path class="cls-56" d="M101.38,75a2.62,2.62,0,0,1,2,1.63c.46,1.4-2.25,8.71.2,9.23s.47-8.33.8-9.56,1.86-1.49,1.86-1.49Z"/></g></g></g></svg>