<?xml version="1.0" encoding="utf-8"?>
<!-- Generator: Adobe Illustrator 23.0.5, SVG Export Plug-In . SVG Version: 6.00 Build 0)  -->
<svg version="1.1" id="layer_1" xmlns="http://www.w3.org/2000/svg" xmlns:xlink="http://www.w3.org/1999/xlink" x="0px" y="0px"
	 viewBox="0 0 427.68 454.92" style="enable-background:new 0 0 427.68 454.92;" xml:space="preserve">
<style type="text/css">
	.st0{fill:#FFBE97;}
	.st1{fill:#D49A81;}
	.st2{fill:#F7931E;}
	.st3{fill:#FFF6DE;}
	.st4{fill:#405561;}
	.st5{fill:#F7E8BE;}
	.st6{fill:url(#SVGID_1_);}
	.st7{fill:#522B21;}
	.st8{fill:#E67640;}
	.st9{fill:#A66513;}
	.st10{fill:#FFF7E6;}
	.st11{fill:#3F4961;}
	.st12{fill:#2D3445;}
	.st13{fill:#BA3428;}
	.st14{fill:#6C93A6;}
	.st15{fill:#ED821D;}
	.st16{fill:#BD580B;}
	.st17{fill:#4D5B5C;}
	.st18{fill:#FFB54D;}
</style>
<g>
	<g>
		<path class="st0" d="M382.97,263.28c2.45,2.82,5.26,5.32,8.34,7.43c1.56,1.07,3.19,2.04,4.88,2.9c0.81,0.41,1.64,0.86,2.49,1.17
			c0.84,0.31,1.7,0.28,2.59,0.38c0.27,0.03,0.55,0.07,0.76,0.24c0.33,0.27,0.34,0.79,0.13,1.16c-0.21,0.37-0.57,0.62-0.94,0.83
			c-2.07,1.19-4.71,1.43-7.11,1.34c0.63,0.19,0.9,1.01,0.65,1.62c-0.25,0.61-0.89,0.98-1.53,1.1c-0.65,0.11-1.31,0.01-1.95-0.1
			c-1.71-0.29-3.43-0.62-4.98-1.39c-3.86-1.91-6.17-6.31-9.93-8.41c-0.2,1.75-0.11,3.54,0.29,5.26c0.38,1.66,1.55,2.73,2.62,4.01
			c0.15,0.18,0.3,0.37,0.31,0.6c0.01,0.32-0.29,0.59-0.6,0.65c-0.32,0.06-0.64-0.04-0.94-0.15c-2.6-0.98-4.52-3.25-5.78-5.72
			c-1.26-2.47-1.95-5.19-2.82-7.82c-0.87-2.63-1.98-5.27-3.89-7.28c-0.24-0.25,0.1-0.82,0.41-0.98c0.31-0.16,0.68-0.16,1.03-0.15
			c4.49,0.1,8.97,0.46,13.42,1.1C381.52,261.21,382.24,262.43,382.97,263.28z"/>
		<path class="st1" d="M382.97,263.28c2.45,2.82,5.26,5.32,8.34,7.43c1.56,1.07,3.19,2.04,4.88,2.9c0.81,0.41,1.64,0.86,2.49,1.17
			c0.84,0.31,1.7,0.28,2.59,0.38c0.27,0.03,0.55,0.07,0.76,0.24c0.33,0.27,0.34,0.79,0.13,1.16c-0.21,0.37-0.57,0.62-0.94,0.83
			c-2.07,1.19-4.71,1.43-7.11,1.34c0.63,0.19,0.9,1.01,0.65,1.62c-0.25,0.61-0.89,0.98-1.53,1.1c-0.65,0.11-1.31,0.01-1.95-0.1
			c-1.71-0.29-3.43-0.62-4.98-1.39c-3.86-1.91-6.17-6.31-9.93-8.41c-0.2,1.75-0.11,3.54,0.29,5.26c0.38,1.66,1.55,2.73,2.62,4.01
			c0.15,0.18,0.3,0.37,0.31,0.6c0.01,0.32-0.29,0.59-0.6,0.65c-0.32,0.06-0.64-0.04-0.94-0.15c-2.6-0.98-4.52-3.25-5.78-5.72
			c-1.26-2.47-1.95-5.19-2.82-7.82c-0.87-2.63-1.98-5.27-3.89-7.28c-0.24-0.25,0.1-0.82,0.41-0.98c0.31-0.16,0.68-0.16,1.03-0.15
			c4.49,0.1,8.97,0.46,13.42,1.1C381.52,261.21,382.24,262.43,382.97,263.28z"/>
		<path class="st0" d="M405.36,265.82c-1.29,0.94-2.73,1.69-4.22,2.22c-1.28,0.45-2.83,0.38-4.18,0.47c-3.33,0.2-6.69,0-9.98-0.6
			c-4.33-0.8-8.56-1.95-12.72-3.43c-1.5-0.54-3.05-1.01-4.63-1.26c-1.21-0.19-3.39-0.54-4.52,0.1c-0.95,0.53-1.73,2.44-2.11,3.46
			c-0.5,1.31-0.64,2.74-0.14,4.07c1.05,2.75,2.21,6.64,1.7,9.62c-0.39,2.22-2.65,4.08-4.63,4.83c-1.2,0.45-2.54,0.23-3.38-0.75
			c-0.17-0.19-0.24-0.43-0.24-0.68c-0.03-0.38,0.08-0.81,0.17-1.19c0.72-2.74,0.81-5.94-0.38-8.57c-0.08-0.18-0.18-0.38-0.28-0.55
			c-0.35-0.62-0.78-1.23-1.06-1.89c-0.54-1.35-0.09-3.22-0.2-4.68c-0.05-0.71-0.14-1.38-0.3-2.03c-0.38-1.74-1.08-3.31-1.85-5.04
			c-0.38-0.81-0.43-1.7-0.77-2.52c-0.46-1.09-1.01-2.17-1.62-3.18c-1.91-3.3-5.18-5.16-7.71-8.02c-7.25-8.24-16.73-14.51-25.1-21.61
			c-3.7-3.14-7.75-6.65-9.39-11.37c-1.76-5.06-0.96-11.71-0.32-16.91c0.2-1.52,1.65-2.6,3.11-3.06c1.44-0.46,3.01-0.35,4.53-0.23
			c3.86,0.31,7.94,0.73,11.06,3.04c0.62,0.45,1.19,0.98,1.7,1.54c1.81,1.95,3.04,4.48,4.24,6.89c6.92,13.96,10.73,31.92,23.92,40.2
			c2.86,1.8,6.57,1.61,9.62,3.1c2.12,1.03,3.77,2.81,5.65,4.23c1.39,1.04,2.9,1.89,4.51,2.53c1.52,0.6,2.98,0.67,3.95,2.11
			c0.66,0.98,0.73,1.96,1.86,2.43c1.15,0.45,2.31,0.84,3.49,1.22c1.42,0.46,2.88,0.82,4.31,1.2c1.16,0.32,2.3,0.95,3.52,1
			c0.84,0.04,1.67-0.3,2.53-0.13c1.06,0.18,1.9,1.11,2.98,1.22c1.52,0.14,3.16-0.3,4.69-0.4c0.91-0.05,2.16-0.3,3,0.16
			C407.46,263.98,406,265.37,405.36,265.82z"/>
		<path class="st1" d="M354.7,261.67c-0.09,1.06-0.21,2.18-0.42,3.26c-0.38-1.74-1.08-3.31-1.85-5.04c-0.38-0.81-0.43-1.7-0.77-2.52
			c-0.46-1.09-1.01-2.17-1.62-3.18c-1.91-3.3-5.18-5.16-7.71-8.02c-7.25-8.24-16.73-14.51-25.1-21.61
			c-3.7-3.14-7.75-6.65-9.39-11.37c-1.76-5.06-0.96-11.71-0.32-16.91c0.2-1.52,1.65-2.6,3.11-3.06c1.44-0.46,3.01-0.35,4.53-0.23
			c3.86,0.31,7.94,0.73,11.06,3.04c0.62,0.45,1.19,0.98,1.7,1.54c-0.58,2.9-2.15,5.79-4.11,8.36c-2.12,2.76-4.4,6.01-3.67,9.41
			c0.4,1.9,1.7,3.47,2.96,4.97l15.08,17.91c3.25,3.85,6.52,7.72,10.57,10.72c1.75,1.28,3.69,2.45,4.83,4.3
			C355.09,255.7,354.92,258.8,354.7,261.67z"/>
		<path class="st2" d="M334.69,393.26c-0.15,0.86-0.7,1.6-1.24,2.31c-1.15,1.5-1.91,2.15-3.3,3.46c-4.12,3.84-10.12,4.8-15.76,5.11
			c-4.88,0.24-10.24,0.3-15.56-0.19c-6.5-0.57-12.91-1.93-18.31-4.68c-0.6-0.31-1.17-0.59-1.75-0.88c-1.58-0.76-3.19-1.35-5.04-1.17
			l-0.02,0c-2.14,0.21-3.97,1.45-6.1,1.75c-2.32,0.33-5.34-0.4-7.62-0.84c-5.51-1.08-10.77-3.21-15.67-5.91
			c-1.45-0.78-2.93-1.67-3.78-3.08c-1.36-2.25-0.27-5.15,1.32-7.77c0.93-1.48,2.01-2.85,2.91-3.94c0.28-0.34,0.52-0.64,0.75-0.9
			c1.48-1.79,2.96-3.63,4.01-5.72c0.93-1.9,0.96-3.98,1.95-5.78c0.12-0.21,0.24-0.43,0.34-0.63c0.92-1.64,1.8-3.39,0.96-5.02
			c-1.3-0.53-1.9-2.1-1.76-3.51c0.24-2.27,1.96-5.02,3.94-6.19c5.12-3.02,11.74,3.69,17.69,3.75c3.76,0.02,7.33-1.43,10.9-2.59
			c0.52-0.17,1.05-0.33,1.57-0.48c3.14-0.85,6.46-1.31,9.47-0.22c2.07,0.74,4.04,2.65,3.65,4.82c-0.51,2.77-4.2,3.54-5.53,6.03
			c0.13,0.14,0.27,0.28,0.4,0.42c5.46,5.75,9.11,12.93,15.94,16.97c0.71,0.43,1.47,0.75,2.24,0.97c2.77,0.88,5.86,0.76,8.82,0.79
			c3.8,0.05,7.98,0.62,10.42,3.5c1.7,2.01,2.68,4.78,3.11,7.39l0,0.02C334.47,391.35,334.86,392.38,334.69,393.26z"/>
		<path class="st3" d="M334.7,393.26c-0.15,0.86-0.7,1.6-1.24,2.31c-1.15,1.5-1.9,2.15-3.3,3.46c-4.12,3.84-10.12,4.8-15.76,5.11
			c-10.81,0.54-24.03,0.14-33.87-4.86c-0.6-0.31-1.17-0.59-1.75-0.88l-0.02,0c-1.58-0.76-3.19-1.35-5.02-1.17l-0.02,0
			c-2.14,0.21-3.97,1.45-6.1,1.75c-2.32,0.33-5.34-0.4-7.62-0.84c-5.51-1.08-10.77-3.21-15.67-5.91c-1.45-0.78-2.93-1.67-3.78-3.08
			c-1.36-2.25-0.27-5.15,1.32-7.77c0.93-1.48,2.01-2.85,2.91-3.94c0.04,0.02,0.07,0.02,0.11,0.03c2.79,0.82,5.27,2.33,7.54,4.1
			c3.08,2.4,5.85,5.19,9.2,7.21c3.38,2.04,7.2,3.21,10.98,4.34c5.5,1.67,11,3.33,16.61,4.63c7.99,1.86,16.25,2.97,24.38,1.93
			c2.07-0.26,4.11-0.67,6.13-1.24c5.12-1.44,9.97-3.87,13.9-7.39l0,0.02C334.48,391.36,334.86,392.38,334.7,393.26z"/>
		<path class="st4" d="M311.29,379.37c-0.27,0.5-0.66,0.96-1.1,1.32c-2.72,2.27-6.8,2.3-10.1,1.01c-3.3-1.31-6.02-3.74-8.66-6.12
			c-2.87-2.61-5.76-5.21-8.65-7.84c-0.49-0.44-1.02-0.96-1.05-1.64c-0.04-1.02,1.09-1.63,2.06-1.99c2.33-0.09,5.35-1.79,7.68-2.37
			c0.65-0.15,1.19-0.26,1.65-0.3c5.46,5.75,9.11,12.93,15.94,16.97C309.76,378.83,310.52,379.15,311.29,379.37z"/>
		<path class="st4" d="M319.74,398.45c-2.02,0.57-4.07,0.98-6.13,1.24c-8.13,1.04-16.4-0.06-24.38-1.93
			c-5.61-1.3-11.11-2.96-16.61-4.63c-3.78-1.13-7.6-2.3-10.98-4.34c-3.34-2.02-6.11-4.82-9.2-7.21c-2.27-1.77-4.76-3.28-7.54-4.1
			c-0.04-0.02-0.07-0.02-0.11-0.03c0.28-0.34,0.52-0.64,0.75-0.9c1.48-1.79,2.96-3.63,4.01-5.72c0.93-1.9,0.96-3.98,1.95-5.78
			c0.12-0.21,0.24-0.43,0.34-0.63c2.39-0.04,5.18,1.06,7.27,1.67c3.21,0.97,6.36,2.2,9.35,3.71c3.59,1.78,6.32,3.5,7.92,7.17
			c1.4,3.21,3.24,6.51,6.46,8.21c2.51,1.33,5.51,1.47,8.06,2.74c2.57,1.29,4.42,3.6,6.63,5.44c3.24,2.72,7.14,2.68,11.14,3.13
			C312.37,396.89,316.13,397.39,319.74,398.45z"/>
		<path class="st1" d="M298.83,403.96c-6.5-0.57-12.91-1.93-18.31-4.68c-0.6-0.31-1.17-0.59-1.75-0.88
			c-1.58-0.76-3.19-1.35-5.04-1.17l-0.02,0c-2.14,0.21-3.97,1.45-6.1,1.75c-2.32,0.33-5.34-0.4-7.62-0.84
			c-5.51-1.08-10.77-3.21-15.67-5.91c-1.45-0.78-2.93-1.67-3.78-3.08c-1.36-2.25-0.27-5.15,1.32-7.77c0.93-1.48,2.01-2.85,2.91-3.94
			c0.28-0.34,0.52-0.64,0.75-0.9c1.48-1.79,2.96-3.63,4.01-5.72c0.93-1.9,0.96-3.98,1.95-5.78c0.12-0.21,0.24-0.43,0.34-0.63
			c0.92-1.64,1.8-3.39,0.96-5.02c-1.3-0.53-1.9-2.1-1.76-3.51c0.24-2.27,1.96-5.02,3.94-6.19c5.12-3.02,11.74,3.69,17.69,3.75
			c3.76,0.02,7.33-1.43,10.9-2.59c0.52-0.17,1.05-0.33,1.57-0.48c0.32,1.12,0.81,2.18,0.72,3.46c-0.17,1.76-1.09,3.49-2.45,4.6
			c-2.44,1.97-5.78,2.37-8.92,2.42c-3.13,0.07-6.35-0.14-9.3,0.87c2.91,8.35-1.63,18.39,2.72,26.1c2.84,5.07,8.7,7.53,14.12,9.63
			C287.61,399.63,293.22,401.8,298.83,403.96z"/>
		<path class="st0" d="M298.1,272.31c-0.47,3.85-0.2,9-1.94,12.49c-0.86,1.73-2.05,3.16-2.75,4.94c-0.88,2.22-1.32,4.63-1.92,6.93
			c-1.68,6.63-3.1,13.29-4.35,20.01c-2.44,13.26-4.12,26.66-5.5,40.08c-0.11,1.04-0.91,1.93-1.86,2.41
			c-0.95,0.46-2.02,0.59-3.07,0.68c-2.51,0.24-5.1,0.29-7.57-0.13c-1.36-0.22-2.67-0.59-3.93-1.14c-3.56-1.58-7.74-5.03-6.19-8.61
			c4.42-10.2,0.18-23.7-0.84-34.22c-0.69-7.1-0.6-14.24-0.2-21.35c0.32-5.83,2.03-12.59-0.7-18.08c-2.27-4.56-6.53-7.97-11.04-10.17
			c4.32-10.89,15.06-17.69,26.64-19.43c2.74,2.12,5.36,4.35,7.86,6.68C287.08,259.19,292.77,265.55,298.1,272.31z"/>
		<path class="st1" d="M286.46,292.09c-4.73,2.61-11.63-0.94-15.63,2.7c-1.6,1.47-2.21,3.71-2.6,5.86
			c-2.65,14.16,0.51,28.87-1.53,43.13c-0.52,3.56-1.35,7.18-0.61,10.71c0.42,1.99,1.52,3.94,3.05,5.23
			c-1.36-0.22-2.67-0.59-3.93-1.14c-3.56-1.58-7.74-5.03-6.19-8.61c4.42-10.2,0.18-23.7-0.84-34.22c-0.69-7.1-0.6-14.24-0.2-21.35
			c0.32-5.83,2.03-12.59-0.7-18.08c-2.27-4.56-6.53-7.97-11.04-10.17c4.32-10.89,15.06-17.69,26.64-19.43
			c2.74,2.12,5.36,4.35,7.86,6.68c-0.1,1.08-0.59,2.12-1.54,3.05c-4.01,3.84-7.85,7.87-11.75,11.81c-0.86,0.87-1.75,1.84-1.93,3.05
			c-0.33,2.33,2.18,4.06,4.46,4.66c2.28,0.59,4.9,0.8,6.46,2.56c0.92-1.6,1.83-3.19,2.75-4.79
			C279.65,280.41,282.22,286.93,286.46,292.09z"/>
		<path class="st5" d="M330.38,191.98c-3.12,9.93-12.91,16.14-23.07,16.08c-0.82,0-1.7-0.06-2.34-0.58
			c-0.34-0.26-0.57-0.58-0.73-0.96c-0.56-1.16-0.49-2.75-0.79-3.93c-0.6-2.26-1.71-4.51-2.61-6.65
			c-5.42-12.92-14.32-23.87-20.62-36.36c-0.75-1.49-8.91,0.67-10.35,1.18c-0.61,0.22-1.24,0.41-1.86,0.6
			c-4.44,1.26-8.97,1.55-13.52,0.32c1.21,0.56,0.89,2.68,0.24,3.86c-0.24,0.43-0.55,0.75-0.91,0.98c-1.49,1.08-3.74,1.02-4.1,2.98
			c-0.02,0.04-0.03,0.07-0.03,0.11c-0.17,1.17,0.27,2.32,0.64,3.44c0.37,1.12,0.66,2.36,0.21,3.46c-0.14-0.21-0.29-0.41-0.43-0.62
			c-9.08,4.43-19.22,5.28-29.32,4.87c-11.36-0.47-22.7-1.32-34-2.54c-9.56-1.02-19.22-2.34-28.06-6.09
			c-8.84-3.76-18.33-9.58-22.26-18.37c-0.78-1.78-1.63-4.57-1.6-7.03c-0.01-1.17,0.19-2.25,0.68-3.13c1.4-2.52,5.41-3.36,7.86-4.17
			c3.17-1.05,6.39-2.54,9.07-4.56c2.37-1.81,3.67-4.21,6.52-5.56c2.76-1.29,5.67-0.93,8.32-2.4c9.75-5.48,18.83-12.1,27.04-19.7
			l0.02-0.02c-0.34-0.88-0.69-1.76-1.01-2.62c-1.61-4-3.29-7.88-5.27-11.78c-1.36-2.65-2.72-5.35-3.4-8.26
			c-1.07-4.61-0.02-8.66,3.49-11.81c1.85-1.66,3.55-3.49,5.54-4.88c1.37-0.96,2.91-1.72,4.72-2.06c4.69-0.86,9.69,0.56,14.29,1.31
			c4.96,0.81,10.48-0.04,15.51-0.2c4.26-0.13,8.33-0.12,11.6,2.93c5.81,5.43,12.88,9.17,20.18,12.21
			c6.86,2.84,14.49,4.62,20.69,8.65c9.63,6.25,18.64,13.69,24.78,23.54c6.82,10.94,9.71,24.3,13.37,36.51
			C322.95,164.42,326.78,178.16,330.38,191.98z"/>
		<path class="st0" d="M295.87,115.67c-0.03,0.07-0.07,0.15-0.1,0.22c-0.2,0.43-0.42,0.86-0.66,1.27c-0.38,0.67-0.83,1.29-1.33,1.89
			c-5.98,7.03-16.1,9.98-25.07,7.69c-2.59-3.86-2.8-8.72-2.36-13.44c0.07-0.97,0.2-1.92,0.33-2.88c0.52-3.94,1.63-7.78,2.18-11.68
			c0.48-3.52,1.63-6.46,0.43-10.05c-0.16-0.49-0.33-1.12,0.05-1.48c0.3-0.29,0.76-0.23,1.16-0.19c1.52,0.18,3.74,0.44,5.23,0
			c1.84-0.56,3.69-2.66,5.06-3.95c1.74-1.65,3.35-3.45,4.81-5.38c1.28-1.69,2.44-3.49,3.44-5.37c3.2,2.12,3.85,6.23,4.8,9.68
			c0.85,3.05,1.39,6.17,1.8,9.29c0.15,1.07,0.28,2.16,0.4,3.23C296.82,101.48,298.5,109.5,295.87,115.67z"/>
		<path class="st0" d="M354.87,75.5c-0.24,1.25-0.54,2.5-0.95,3.72c-0.67,2.07-1.63,4.04-3.08,5.7c-1.5,1.68-3.41,2.92-5.2,4.3
			c-1.84,1.44-3.9,3.32-4.52,5.68c-0.35,1.33-0.81,2.6-1.46,3.79c-1.24,2.36-3.04,4.44-5.2,6.02c-1.86,1.38-4.04,2.16-6.08,3.19
			c-2.49,1.26-5.09,2.26-7.78,2.98c-3.77,1.02-7.72,1.67-11.31,3.23c-1.33,0.6-2.25,1.29-3.27,2.31c-0.9,0.89-1.82,1.88-3.11,2.18
			c-0.92,0.24-1.91,0.04-2.78-0.33c-0.89-0.39-1.76-0.83-2.62-1.34c-0.58-0.32-1.18-0.68-1.74-1.05c-1.2-0.77-2.36-1.57-3.52-2.34
			c-0.32-0.21-0.62-0.41-0.94-0.62c-1.12-0.72-2.23-1.45-3.1-2.43c-2.44-2.73-2.7-8.01-3.18-11.48c-0.64-4.75-1.27-9.76-0.63-14.51
			c0.29-2.29,0.72-4.55,1.2-6.81c0.61-3.01,1.36-6,2.14-8.96c1.26-4.83,5.06-9.37,8.65-13.24c0.82-0.89,1.63-1.76,2.38-2.57
			c4.68-4.98,10.52-9.09,17.17-10.55c3.62-0.8,7.36-0.78,11.02-0.33c1.15,0.14,2.29,0.31,3.41,0.53c0.26,0.04,0.5,0.09,0.75,0.14
			c4.59,0.9,8.69,4.13,12.32,6.93c5.32,4.14,10.47,7.68,12,14.78C356.25,68.12,355.59,71.83,354.87,75.5z"/>
		<path class="st1" d="M333.11,78.45c0.15-0.1,2.59,0.78,2.94,0.86c1.02,0.24,2.07,0.45,2.96,1.03c1.8,1.16,1.67,4.2,2.06,6.14
			c0.07,0.33,0.15,0.69,0.39,0.93c0.41,0.41,1.12,0.29,1.6-0.03c0.8-0.53,1.22-1.5,1.3-2.46c0.08-0.96-0.15-1.91-0.41-2.83
			c-0.45-1.61-1.01-3.18-1.68-4.71c-0.38-0.88-0.92-1.85-1.85-2.08c-0.61-0.15-1.24,0.05-1.82,0.27
			C336.66,76.3,334.81,77.27,333.11,78.45z"/>
		
			<linearGradient id="SVGID_1_" gradientUnits="userSpaceOnUse" x1="370.254" y1="61.2734" x2="317.6784" y2="65.771" gradientTransform="matrix(0.9993 -0.0384 0.0384 0.9993 -4.7349 8.7745)">
			<stop  offset="0" style="stop-color:#CF9A2A"/>
			<stop  offset="0.298" style="stop-color:#CC9729"/>
			<stop  offset="0.5554" style="stop-color:#C48C24"/>
			<stop  offset="0.797" style="stop-color:#B67A1C"/>
			<stop  offset="1" style="stop-color:#A66513"/>
		</linearGradient>
		<path class="st6" d="M366.05,54.98L365.52,55c1.07-0.19,2.13-0.5,3.14-0.92c1.11-0.48,2.18-1.11,3.14-1.87
			c-5.14-1.48-9.38-5-14.2-7.33c-3.68-1.79-7.66-2.95-11.73-3.43c1.17-0.45,2.08-1.01,3.09-1.74c-3.27-0.66-6.67-0.71-9.94-0.13
			c-5.65-3.12-12.3-4.09-18.64-2.98l-0.05,0c-3.01,0.5-5.96,1.47-8.68,2.91c-6.63,3.46-11.9,9.27-15.25,16
			c-0.91,1.82-1.7,3.71-2.32,5.65c-0.34,1.07,0.81,2.1,1.34,3.1c2.36-0.67,4.79-1.13,7.24-1.34c2.65-4.06,4.37-8.12,5.86-12.75
			c1.63-1.34,3.39-2.48,5.27-3.36c1.99-0.93,4.1-1.62,6.27-1.97c1.32-0.22,2.62-0.21,3.92-0.02c4.47,0.56,8.82,3.07,12.98,5.08
			c1.93,0.93,3.85,1.99,5.42,3.44c1.59,1.45,2.85,3.36,3.18,5.48c1.45-0.31,3.69,0.13,4.57,1.36c1.02,1.38,1.49,3.1,1.9,4.76
			c1.15,4.68,1.79,9.49,1.9,14.32l0,0.11c1.32,0.24,2.55,0.39,3.85,0.64c-0.06,0.82-0.36,1.55-0.77,2.25
			c0.14-0.22,1.84-0.53,2.16-0.65c0.76-0.27,1.49-0.6,2.19-0.98c1.39-0.75,2.76-1.69,3.85-2.85c2.14-2.22,2.6-6.41,2.23-9.33
			c2.4-0.71,4.76-0.95,7.26-0.83c0.85,0.68,1.63,1.23,2.46,1.93C375.89,63.26,371.77,57.82,366.05,54.98z"/>
		<path class="st7" d="M334.79,80.55c-0.83-1.31,1.44-1.36,2.02-1.27c1.23,0.19,2.4,0.69,3.39,1.44c0.94,2.59,1.28,5.37,1.03,8.12
			c0.11-1.78-0.4-3.5-0.97-5.18c-0.3,0.69-0.86,1.49-1.39,2.02c-0.54,0.53-1.25,0.9-2,0.93s-1.53-0.35-1.89-1.01
			c-0.24-0.44-0.28-0.97-0.22-1.47c0.13-1.09,0.7-2.13,1.56-2.82C336.22,80.68,335.39,80.35,334.79,80.55z"/>
		<path class="st0" d="M290.34,57.59c0.22-0.51,0.4-0.92,0.52-1.19c0.45-1.05,1.14-1.99,2.14-2.57c1.37-0.8,3.27-0.88,4.46,0.18
			c0.83,0.74,1.2,1.9,1.17,3.01s-0.4,2.18-0.84,3.2c-1.12,2.6-4.89,9.72-8.38,9.41C285.56,69.3,288.84,61.07,290.34,57.59z"/>
		<path class="st8" d="M295.05,55.34c0.8,0.56,1.13,1.61,1.06,2.59c-0.08,0.97-0.5,1.88-0.95,2.74c-0.95,1.8-2.07,3.51-3.35,5.1
			c0.52-1.04,1.06-2.12,1.15-3.29c0.05-0.63-0.02-1.29,0.22-1.88c0.19-0.45,0.56-0.81,0.92-1.15c0.36-0.34,0.74-0.68,0.96-1.12
			c0.22-0.44,0.26-1.01-0.05-1.4c-0.31-0.39-1-0.44-1.26-0.02c0.53-0.84-0.14-1.22-0.8-1.38C293.03,54.7,294.58,55.02,295.05,55.34z
			"/>
		<path class="st1" d="M323.97,44.8c1.29-0.67,2.67-1.14,4.1-1.42c-0.31-0.5-0.68-0.96-1.11-1.34c-0.66-0.65-1.45-1.15-2.32-1.48
			c1.6-0.68,3.21-1.36,4.81-2.05c-0.54,0.22-3.68-1.28-4.43-1.45c-1.53-0.31-3.08-0.48-4.65-0.48l-0.05,0
			c-3.01,0.5-5.96,1.47-8.68,2.91c-3.06,1.61-5.82,3.69-8.24,6.13c-1.26,1.29-2.45,2.67-3.51,4.13c-0.76,1.03-1.4,3.39-2.69,3.68
			c-1.77,0.43-3.22-0.19-4.92,1.01c-2.34,1.68-2.92,5.15-3.49,7.79c-0.59,2.7-1.43,5.49-1.76,8.24c-0.28,2.29-1.51,4.95-1.42,7.22
			c-1.46,1.93-3.07,3.73-4.81,5.38c-1.37,1.29-3.23,3.39-5.06,3.95c-1.5,0.44-3.71,0.18-5.23,0c-0.4-0.04-0.86-0.09-1.16,0.19
			c-0.39,0.36-0.22,0.99-0.05,1.48c1.2,3.58,0.05,6.53-0.43,10.05c-0.54,3.91-1.65,7.74-2.18,11.68c-0.13,0.95-0.25,1.91-0.33,2.88
			c0.26,0.56,0.62,1.07,1.08,1.49c1.3,1.21,3.18,1.54,4.94,1.78c7.53,0.99,15.16,1.19,22.75,0.58c0.24-0.41,0.46-0.84,0.66-1.27
			c0.56,0.36,1.16,0.72,1.74,1.05l0.16-0.01c-0.58-0.45-1.18-0.87-1.8-1.26c-2.15-1.41-4.44-2.67-6.14-4.6
			c-3.83-4.38-0.93-8.52,1.63-12.54c1.51-2.36,3.16-4.72,4.28-7.24c0.57-1.3,1.01-2.65,1.23-4.06c0.32-2.04,0.17-4.16,0.88-6.09
			c1.52-4.22,6.51-6.21,8.47-10.25c0.96-1.97,1.18-4.39,2.76-5.91c1.69-1.62,4.35-1.61,6.63-1.13c3.64,0.75,7.08,2.5,9.86,4.98
			c1.57-0.86,1.85-3.15,1.06-4.76c-0.79-1.61-2.35-2.7-3.83-3.72c-2.44-1.68-5.22-3.41-8.13-2.86
			C315.36,52.07,319.06,47.21,323.97,44.8z M290.45,70.52c-2.35,1.99-3.49-3.59-0.52-4.1c0.67-0.12,1.32,0.17,2.01,0.03
			c0.78-0.14,0.99-0.9,1.06,0.16C293.1,67.89,291.32,69.78,290.45,70.52z M291.48,62.55c-0.48,0.93-1.15,2.38-1.58,0.63
			c-0.26-1.01,0.4-2.37,0.95-3.17c0.36-0.51,2.28-1.53,2.34-1.77C292.75,59.73,292.17,61.16,291.48,62.55z M298.36,58.53
			c-0.53,1.33-1.25,2.56-2.16,3.68c-0.14,0.17-0.3,0.36-0.51,0.38c-0.34,0.07-0.65-0.29-0.68-0.61c-0.03-0.35,0.1-0.68,0.24-0.99
			c0.63-1.59,0.63-2.7,0.87-4.32c0.35-2.24,2.63-1.87,2.62,0.25C298.74,57.46,298.56,58.01,298.36,58.53z"/>
		<path class="st7" d="M317.14,65.23c-0.82,0.39-1.28,1.36-1.19,2.26c0.09,0.9,0.69,1.71,1.47,2.17c0.78,0.46,1.72,0.6,2.62,0.51
			c0.68-0.07,1.37-0.28,1.89-0.72c0.53-0.44,1.1-1.22,0.99-1.89c0.78,0.7,1.4,1.57,1.81,2.54c-0.33-1.82-0.78-3.49-1.52-5.18
			c-3.49-1.89-7.64-2.52-11.54-1.77c2.06,0.1,4.27,0.74,6.17,1.55C317.53,64.79,317.44,65.09,317.14,65.23z"/>
		<path class="st9" d="M345.08,88.6c-0.44-5.05-3.33-9.22-6.22-13.38c0.88-0.43,3.06-1.2,4.04-1.11c0.03-0.05,0.06-0.11,0.09-0.16
			c1.99,4.32,3.19,9.02,2.96,13.76C345.53,88.29,345.65,88.16,345.08,88.6z M315.75,56.27c-0.73,0.19-1.24,0.86-1.74,1.42
			c4.9,1.41,9.45,3.98,13.19,7.44c1.23-1,2.44-2.07,3.67-3.08C326.58,59.09,321.76,57.21,315.75,56.27z"/>
		<path class="st1" d="M319.81,84.25c2.03,1.66,3.41,4.17,5.96,4.93c1.25,0.37,4.94,0.88,2.18,2.29c-2.36,1.21-5.45,1-7.6-0.52
			c-1.32-0.93-2.32-2.39-2.65-3.92c-0.17-0.78-0.5-3.44,0.81-3.48c0.3-0.01,0.57,0.15,0.81,0.32
			C319.48,83.99,319.65,84.12,319.81,84.25z"/>
		<path class="st8" d="M341.8,74.03c-3.7,1.33-7.21,3.18-10.4,5.49C333.78,76.06,337.61,74.02,341.8,74.03z M328,82.03
			c-0.24,2.13-0.18,4.29,0.17,6.41c0.1,0.59,0.22,1.2,0.08,1.77c-0.17,0.67-0.68,1.21-1.27,1.56c-0.59,0.35-1.26,0.54-1.92,0.73
			c1.27-0.12,2.14-0.41,3.28-0.99c0.48-0.25,0.98-0.58,1.16-1.1c0.12-0.36,0.07-0.76,0.01-1.14C329.12,86.83,328.38,84.47,328,82.03
			z M316.47,83.59c0.27,0.96,0.73,1.76,1,2.73c-0.09-0.72-0.12-1.48,0.17-2.14c0.27-0.62,0.81-1.09,1.4-1.41
			c0.59-0.32,1.25-0.51,1.89-0.7C319.39,81.71,317.45,82.34,316.47,83.59z M325.46,98.39c-0.38,0.63-0.95,0.95-1.54,1.28
			c-0.77-0.19-1.54-0.68-2.19-1.18c-6.17-4.74-11.53-10.52-15.81-17.01c0.43,0,0.88-0.05,1.35,0.01c-0.69-1.45-2.42-2.32-4-2.01
			c0.12-0.03,0.97,1.3,1.16,1.48c0.43,0.4,0.89,0.5,1.36,0.52c0.71,5.95,2.82,11.65,6.49,16.39c1.9,2.46,5.29,2.02,8.38,2.35
			c0.88,0.09,1.81,0.04,2.71-0.11c0.99,0.12,3.16,1.26,2.71,2.48C326.6,101.2,326.36,99.56,325.46,98.39z"/>
		<path class="st10" d="M321.61,99.51c-4.31-3.44-9.84-8.13-13.1-12.58c-0.21,0.2-0.19,0.4-0.4,0.6c0.83,3.77,2.57,7.33,5.04,10.29
			C316.1,99.72,319.28,99.29,321.61,99.51z"/>
		<path class="st1" d="M306.75,103.84c-0.13-0.06-0.25-0.14-0.36-0.26c-0.31-0.35-0.31-0.87-0.29-1.34c0.04-1.33,0.08-2.67,0.12-4
			c0.02-0.52,0.46-2.54,0.08-2.96c1.04,1,1.67,2.41,2.53,3.53c1.11,1.44,3.68,2.11,5.27,2.92c-1.87,0.65-3.74,1.31-5.61,1.96
			C307.93,103.89,307.25,104.06,306.75,103.84z"/>
		<g>
			<path d="M196.98,110.57l-0.03-0.91l-0.13-0.12l0.15-0.17c0.05-0.06,0.12-0.13,0.23-0.14c0,0,0,0,0,0l0.1,0l0.15,0.14l0,0.09
				c0,0.11-0.05,0.18-0.08,0.21L196.98,110.57z M197.13,109.56l0.01-0.01L197.13,109.56z"/>
		</g>
		<path class="st1" d="M311.9,192.34c-1.15-1.43-3.71-0.66-4.56,0.98c-0.85,1.64-0.48,3.63-0.01,5.4c0.49,1.79,1.05,3.66,0.59,5.45
			c-1.49,0.24-2.61,1.25-3.68,2.35c-0.56-1.16-0.49-2.75-0.79-3.93c-0.6-2.26-1.71-4.51-2.61-6.65
			c-5.42-12.92-14.32-23.87-20.62-36.36c-0.75-1.49-8.91,0.67-10.35,1.18c-0.61,0.22-1.24,0.41-1.86,0.6
			c0.02-0.38,0.19-0.74,0.51-1.06c1.67-1.71,8.55-0.6,9.51-3.1c1.44-3.79,1.85-7.97,4.6-11.14c-0.37,0.42,5.59,10.65,6.16,11.78
			c2.05,4.08,4.14,8.16,6.55,12.04c2.43,3.88,5.24,7.24,8.36,10.57C306.88,183.85,309.25,188.45,311.9,192.34z M184.94,138.19
			c2.5-4.27,8.28-5.28,13.22-4.76c4.93,0.52,9.86,2.12,14.75,1.27c-9.88-3.16-20.18-4.95-30.53-5.28c0.58,0.02,3.64-3.54,4.34-4.06
			c1.45-1.08,3.09-2.15,4.71-2.96c3.81-1.9,8.05-1.71,12.15-1.04c4.59,0.75,9.37,1.88,13.8,0.49c-4.93-1.16-9.76-2.72-14.43-4.68
			c5.98-2.6,12.01-4.89,17.62-8.28c2.88-1.74,5.65-3.65,8.29-5.73c2.4-1.89,4.55-4.62,7.07-6.27c-5.24,3.67-10.49,7.37-16.34,9.98
			c-6.99,3.17-15.47,5.54-22.96,3.22c0.14-0.15,0.37-0.42,0.51-0.57c-1.25-1.65-2.52-3.3-3.78-4.94c0.32,0.86,0.67,1.74,1.01,2.62
			c-8.22,7.61-17.31,14.23-27.05,19.72c-2.64,1.47-5.56,1.11-8.32,2.4c-2.85,1.35-4.14,3.75-6.52,5.56
			c-2.68,2.02-5.9,3.51-9.07,4.56c-2.45,0.81-6.47,1.65-7.86,4.17c-0.5,0.88-0.69,1.96-0.68,3.13c15.09-3.57,31.3-2.19,45.52,3.92
			c-1.32-1.21-2.66-2.43-4.01-3.64c14.32,0.65,28.62,2.04,42.8,4.1C209.15,144.03,196.89,141.03,184.94,138.19z M248.56,162.9
			c-3.03-1.94-6.25-3.61-9.6-4.96c-2.72-1.1-7.59-1.39-9.85-3.01c6.71,4.76,13.42,9.51,20.14,14.27c0.15,0.1,0.3,0.21,0.49,0.31
			c0.36-1.97,2.61-1.91,4.1-2.98C252.31,165.04,250.09,163.88,248.56,162.9z M252.1,160.47c-3.15-4.81-7.69-8.58-12.62-11.54
			c-4.97-2.99-10.64-5.84-16.46-6.69c6.35,3.89,12.59,7.9,18.9,11.85c1.7,1.06,3.39,2.13,5.09,3.19
			C248.28,158.08,251.28,159.22,252.1,160.47z"/>
		<path class="st11" d="M286.05,255.25c-14.13,4.76-27,11.71-38.08,21.38c-2.03,1.76-4,3.62-5.9,5.57
			c-12.04-18.21-21.53-37.71-38.82-51.07c-3.4-2.62-6.84-5.23-10.31-7.76c-5.91-4.37-11.93-8.59-18.01-12.69
			c-1.54-1.04-3.02-2.09-4.46-3.18c-6.51-4.82-12.44-10.12-18.99-15.19c-6.33-4.9-12.52-10.66-14.98-18.28
			c-2.65-8.2-0.5-17.2,2.84-25.13c12.12-3.91,25.76-2.01,38.42,0.67c1.07,0.23,2.12,0.47,3.16,0.7c10.82,2.39,21.69,4.82,32.1,8.63
			c4.53,1.67,8.16,3.64,12.92,4.83c7.27,1.82,14.53,6.57,20.8,10.67c3.35,2.19,6.63,4.61,8.91,7.9c2.28,3.29,3.38,7.62,2.01,11.38
			c-1.78,4.86-7.58,9.3-12.57,10.68c13.63,15.87,27.07,31.99,40.72,47.86C285.95,253.54,285.89,253.91,286.05,255.25z"/>
		<path class="st12" d="M225.6,240.36c7.97,11.77,15.43,23.86,22.37,36.27c-2.03,1.76-4,3.62-5.9,5.57
			c-12.04-18.21-21.53-37.71-38.82-51.07c-3.4-2.62-6.84-5.23-10.31-7.76c3.56-2.33,7.08-4.67,10.64-6.99
			c3.38-2.23,7.17-4.54,11.17-3.91c6.7,1.07,13.62,10.91,17.43,15.96c6.11,8.17,11.7,16.77,16.67,25.67
			C241.82,248.44,233.96,243.8,225.6,240.36z"/>
		<g>
			<path class="st13" d="M204.15,86.08c-1,6.28-1.26,12.67-0.82,19.02c0.08,1.22,0.2,2.47-0.11,3.65c-0.3,1.18-1.11,2.32-2.29,2.64
				c-2.47,0.68-4.82-2.04-6.58-4.16l0.02-0.02c-1.91-4.96-3.87-9.66-6.28-14.4c-1.36-2.65-2.72-5.35-3.4-8.26
				c-1.07-4.61-0.02-8.66,3.49-11.81c1.85-1.66,3.55-3.49,5.54-4.88c1.95,0,3.91,0.21,5.76,0.78c3.1,0.92,4.73,3.48,5.34,6.45
				c0.13,0.63,0.21,1.29,0.26,1.94C205.27,80.07,204.62,83.09,204.15,86.08z"/>
			<path class="st0" d="M205.05,78.59c-0.37,3.68-2.5,6.99-5.2,9.5c-2.24,2.11-4.98,4.62-8.08,5.09c-2.12,0.32-4.27,0.46-6.44,0.41
				c-2.1-0.05-4.19-0.26-6.24-0.62c-3.74-0.64-7.57-2.99-11.16-4.6c-0.24-0.12-0.48-0.22-0.72-0.32c-0.52-0.22-1.06-0.45-1.44-0.86
				c-0.91-0.99-0.61-2.55-0.24-3.84c0.59-2.12,1.22-4.28,2.6-6.01c2.52-3.2,6.76-4.45,10.62-5.06c0.25-0.05,0.51-0.07,0.76-0.12
				c0.98-0.15,1.94-0.29,2.92-0.46c2.05-0.3,4.1-0.63,6.15-0.95c0.09-0.02,0.2-0.03,0.29-0.05c0.04,0,0.05,0,0.09-0.02
				c3.01-0.46,6.63-1.64,9.63-1.48c0.91,0.06,1.76,0.32,2.49,0.74C203.9,71.52,205.36,75.42,205.05,78.59z"/>
			<path class="st0" d="M191.09,55.23c-0.08,0.22-0.18,0.46-0.32,0.72c-0.59,1.15-1.5,2.19-1.71,3.48
				c-0.48,3.14-0.25,6.74-0.38,9.92c-0.02,0.47-0.05,0.95-0.11,1.41c-0.1,1.12-0.32,2.24-0.62,3.31c-0.13,0.44-0.28,0.87-0.42,1.31
				c-0.4,1.05-0.91,2.06-1.55,2.98c-1.76,2.57-4.36,3.87-6.62,5.8c-2.6,2.2-5.58,3.72-9,4.12c-0.84,0.09-1.65,0.12-2.44,0.09
				c-7.01-0.24-12.03-5.17-15.55-11.2c-2.32-4-4.06-8.29-6.24-12.36c-0.55-1.05-1.19-2.14-2.24-2.72c-1.47-0.8-3.19,0.16-4.65,0.53
				c-2.06,0.52-4.21,0.65-6.29,0.44c-1.01-0.13-2.05-0.32-2.9-0.91c-0.82-0.57-1.43-1.6-1.23-2.6c0.06-0.29,0.18-0.55,0.33-0.8
				c0.45-0.67,1.25-1.12,2.05-1.32c1.08-0.26,2.24-0.16,3.35-0.26c5.11-0.42,9.63-4.64,14.7-3.83c1.52,0.25,3.06,0.72,4.44,0.74
				c0.97,0.04,1.85-0.16,2.61-0.81c0.41-0.33,0.79-0.81,1.13-1.47c1.02-1.95,1.86-4.39,4.16-5.19c0.52-0.18,3.37,3.1,3.96,3.48
				c3.02,1.82,4.68-6.34,5.69-8.17c0.15-0.28,0.32-0.58,0.63-0.68c0.63-0.24,1.17,0.52,1.41,1.15c1.69,4.55,0.97,9.46,1.84,14.17
				c0.9,4.87,2.99,9.53,6.1,13.41c1.41-3.1-0.53-6.75,0.16-10.07c0.62-2.92,2.92-5.69,5.51-7.09
				C189.48,51.41,192.18,52.27,191.09,55.23z"/>
			<path class="st1" d="M205.05,78.59c-0.37,3.68-2.5,6.99-5.2,9.5c-2.24,2.11-4.98,4.62-8.08,5.09c-2.12,0.32-4.27,0.46-6.44,0.41
				c-2.1-0.05-4.19-0.26-6.24-0.62c-3.74-0.64-7.57-2.99-11.16-4.6c-7.01-0.24-12.03-5.17-15.55-11.2c-2.32-4-4.06-8.29-6.24-12.36
				c-0.55-1.05-1.19-2.14-2.24-2.72c-1.47-0.8-3.19,0.16-4.65,0.53c-2.06,0.52-4.21,0.65-6.29,0.44c-1.01-0.13-2.05-0.32-2.9-0.91
				c-0.82-0.57-1.43-1.6-1.23-2.6c0.06-0.29,0.18-0.55,0.33-0.8c1.78-0.71,4.42,0.05,6.24-0.02c3.28-0.13,6.53-0.85,9.67-1.79
				c2.9-0.86,5.74-1.92,8.63-2.85c0.86-0.29,1.73-0.56,2.61-0.81c1.48-0.44,3-0.83,4.52-1.12c3.71-0.73,8.09-0.71,10.6,2.11
				c1.18,1.3,1.76,3.03,2.31,4.71c0.97,3.01,1.96,6.02,2.96,9.02c0.37,1.12,0.76,2.29,1.53,3.19c0.34,0.41,0.79,0.75,1.28,0.99
				c0.59,0.27,1.25,0.37,1.87,0.18c0.41-0.13,0.75-0.34,1.05-0.64c0.56-0.55,0.91-1.37,1.05-2.16c0.19-1.21-0.02-2.46-0.07-3.68
				c-0.18-5.19,2.98-10.36,7.69-12.55c0.01,0.64,0.01,1.28,0,1.91c-0.08,0.22-0.18,0.46-0.32,0.72c-0.59,1.15-1.5,2.19-1.71,3.48
				c-0.48,3.14-0.25,6.74-0.38,9.92c-0.02,0.47-0.05,0.95-0.11,1.41c0.09-0.02,0.2-0.03,0.29-0.05c0.04,0,0.05,0,0.09-0.02
				c-0.3,1.12-0.62,2.27-1,3.38c-0.13,0.44-0.28,0.87-0.42,1.31c-0.26,0.72-0.51,1.42-0.79,2.13c0.73,1.81,2.82,2.79,4.78,2.77
				c1.95,0,3.82-0.8,5.61-1.6c1.29-0.58,2.6-1.19,3.6-2.18c1.02-0.99,1.69-2.44,1.38-3.83c-0.18-0.83-0.68-1.56-0.93-2.37
				c-0.04-0.11-0.06-0.22-0.1-0.34C203.9,71.52,205.36,75.42,205.05,78.59z"/>
			<path class="st0" d="M160.09,46.63c0.9-0.09,1.91,0.01,2.51,0.69c0.59,0.66,0.58,1.69,0.27,2.52c-0.31,0.83-0.88,1.54-1.33,2.31
				c-0.95,1.61-1.39,3.46-1.99,5.23c-0.61,1.77-1.44,3.55-2.93,4.67c-1.49,1.12-4.08,1.39-5.45,0.12c-0.16,1.64-1.28,3.16-2.8,3.8
				c-1.52,0.65-3.07,0.26-4.37-0.77c1.19-3.35,2.38-6.71,3.57-10.06c0.69-1.93,1.41-3.92,2.82-5.4c1.41-1.48,3.71-2.33,5.56-1.44
				C157.14,47.48,158.66,46.77,160.09,46.63z M170.65,54.65c0,0.68,0.04,1.47,0.59,1.88c0.42,0.31,1.01,0.28,1.48,0.05
				c0.47-0.23,0.82-0.63,1.14-1.05c2.05-2.69,2.77-6.1,3.03-9.4c0.18-2.21-0.53-5.92-3.67-5.71c-0.97,0.06-1.79,0.82-2.21,1.69
				c-0.75,1.55-0.3,2.75-0.31,4.33C170.68,49.17,170.66,51.91,170.65,54.65z"/>
		</g>
		<path class="st12" d="M175.45,209.48c-1.67-0.65-3.31-1.31-4.98-1.98c-6.51-4.82-12.44-10.12-18.99-15.19
			c-6.33-4.9-12.52-10.66-14.98-18.28c-2.65-8.2-0.5-17.2,2.84-25.13c12.12-3.91,25.76-2.01,38.42,0.67c0.1,0.11,0.17,0.19,0.23,0.3
			c-1.78-1.69-5.35,4.37-6.05,5.54c-2.99,4.96-2.01,8.51,2.9,12.06c2.82,2.04,6.19,3.19,9.55,4.09c11.31,3.04,23.28,3.65,34.84,1.75
			c-3.48,0.57-8.95,7.21-11.39,9.64c-3.7,3.68-6.27,7.24-10.92,9.66c-9.7,5.04-20.64,7.55-31.58,7
			C169.25,202.28,172.69,205.63,175.45,209.48z"/>
		<path class="st0" d="M258.19,196.1c-1.67,5.37-5.05,7.25-9.72,9.88c-15.21,8.54-30.35,16.01-46.96,21.3
			c-15.44,4.9-30.72,10.34-45.79,16.24c-2.26,0.89-4.53,1.8-6.77,2.7c-3.11,1.25-4.97,0.26-8.13-0.82c-3.16-1.1-5.58-3.41-7.17-6.34
			c2.77-4.74,7.42-8.07,12.27-10.63c4.84-2.56,10.02-4.47,14.83-7.14c9.05-5.07,16.33-12.61,23.98-19.49
			c3.86-3.49,7.83-6.87,12.19-9.68c4.34-2.79,8.96-4.72,13.1-7.85c2.55-1.92,4.05-4.71,6.39-6.83c2.56-2.29,5.57-4.08,8.83-5.19
			c0.31-0.12,0.63-0.22,0.95-0.33c6.02-1.78,12.7-1.25,18.35,1.48c4.76,2.3,9.38,5.73,12.44,10.1
			C259.46,187.08,259.46,192.08,258.19,196.1z"/>
		<path class="st1" d="M235.07,207.72c-4.41,1.48-9.11,2.1-13.76,1.79c-0.99-0.05-2.12-0.25-2.63-1.1c-0.66-1.14,0.21-2.62-0.1-3.9
			c-0.28-1.21-1.53-1.93-2.7-2.43c-3.73-1.63-8.23-3.48-12.28-2.59c-4.12,0.91-7.91,3.02-11.24,5.54
			c-4.57,3.42-8.5,7.62-12.88,11.27c-8.82,7.32-19.33,12.23-29.73,17.06c1.86,1.81,3.73,3.67,4.92,5.98
			c0.65,1.29,1.04,2.77,1.04,4.19c-2.26,0.89-4.53,1.8-6.77,2.7c-3.11,1.25-4.97,0.26-8.13-0.82c-3.16-1.1-5.58-3.41-7.17-6.34
			c2.77-4.74,7.42-8.07,12.27-10.63c4.84-2.56,10.02-4.47,14.83-7.14c9.05-5.07,16.33-12.61,23.98-19.49
			c3.86-3.49,7.83-6.87,12.19-9.68c4.34-2.79,8.96-4.72,13.1-7.85c2.55-1.92,4.05-4.71,6.39-6.83c2.56-2.29,5.57-4.08,8.83-5.19
			c0.17,0.08,0.32,0.19,0.47,0.31c2.26,1.77,5.21,2.26,7.61,3.97c-1.18,2.53-3.45,4.25-5.71,6c-2.23,1.71-4.46,3.42-5.63,5.92
			c-1.84,3.96,0.16,8.33,2.77,11.42C227.61,203.26,231.99,204.44,235.07,207.72z"/>
		<path class="st2" d="M172.08,291.97c-0.02,0.02-0.02,0.06-0.03,0.07c-0.44,1-0.82,1.93-1.2,2.95c-7.48,1.36-15.48,1.45-22.7-0.9
			c-0.59-0.2-1.18-0.41-1.77-0.62c-8.35-3.16-15.29-8.82-22.85-13.71c0.11-1.39-1.35-2.28-2.69-2.63c-1.36-0.35-2.82-0.31-4.05-0.97
			c-4.13-2.23-7.84-5.15-11.33-8.28c-1.51-1.35-3.71-2.67-4.14-4.73c-0.36-1.76,0.04-3.65,0.86-5.27c0.19-0.37,0.39-0.73,0.62-1.06
			c0.53-0.8,1.13-1.45,1.78-2.06c1.2-1.09,2.53-1.98,3.78-3.12c1.73-1.58,2.93-3.94,4.54-5.7c2.38-2.59,5.12-4.85,8.11-6.7
			c1.48-0.93,3.01-1.76,4.61-2.46c0-3.34,2.45-5.91,5.65-6.84c1.79-0.51,3.82-0.62,5.63-0.16c1.27,0.32,2.64,1.21,3.74,1.9
			c0.02,0,0.04,0.02,0.06,0.03c-1.7,1.29-3.38,2.59-5.07,3.88c2.01,1.44,4.94,4.68,7.59,4.41c0.69-0.08,1.35-0.38,2-0.68
			c0.65-0.3,1.31-0.58,1.97-0.86c1.29-0.51,2.63-0.9,4.03-1.03c3.16-0.29,5.72,1.62,8.41,2.96c3.07,1.52,5.75,3.85,7.68,6.67
			c1,1.46-0.07,3.45-1.22,4.79c-1.17,1.32-2.84,2.1-4.45,2.82c-0.03,0.17-0.06,0.31-0.07,0.48c-0.61,3.23-0.59,7.45,0.67,10.39
			c0.52,1.24,1.2,2.4,1.64,3.68c0.43,1.3-0.21,2.2-0.02,3.25c0.05,0.27,0.15,0.52,0.28,0.72c0.51,0.86,1.61,1.14,2.57,1.47
			c1.87,0.64,3.55,1.76,4.85,3.24C174.74,281.51,173.98,287.52,172.08,291.97z"/>
		<path class="st3" d="M172.04,292.04c-0.44,1-0.82,1.93-1.2,2.95c-7.48,1.36-15.48,1.45-22.7-0.9c-9.16-2.99-16.54-9.1-24.62-14.34
			c0.11-1.39-1.35-2.28-2.69-2.63c-1.36-0.35-2.82-0.31-4.05-0.97c-4.13-2.23-7.84-5.15-11.33-8.28c-1.51-1.35-3.71-2.67-4.14-4.73
			c-0.36-1.76,0.04-3.65,0.86-5.27l0-0.02c0.19-0.37,0.39-0.71,0.62-1.05c0.53-0.8,1.13-1.45,1.78-2.06
			c0.65,0.28,1.3,0.97,1.93,2.24c2.12,4.31,4.58,8.69,9.08,10.9c1.9,0.93,4.05,1.39,5.77,2.64c1.33,0.95,2.33,2.32,3.53,3.46
			c3.75,3.63,9.18,4.88,14.38,5.37c1.17,0.1,2.34,0.18,3.53,0.25c4.06,0.26,8.11,0.45,11.97,1.62c5.46,1.63,10.14,5.1,14.7,8.48
			C170.36,290.41,171.33,291.14,172.04,292.04z"/>
		<path class="st4" d="M163.83,272.46c0.05,0.27,0.15,0.52,0.28,0.72c-7.03-3.56-14.74-5.82-22.59-6.59
			c-4.45-0.43-2.25-6.31-2.24-9.29c0.01-1.53-0.1-3.08,0.26-4.55c0.82-3.31,4.37-5.04,7.55-4.67c3.42,0.38,6.29,2.42,9.1,4.23
			c1.78,1.15,3.65,1.92,5.34,2.84c-0.61,3.23-0.59,7.45,0.67,10.39c0.52,1.24,1.2,2.4,1.64,3.68
			C164.28,270.51,163.64,271.41,163.83,272.46z"/>
		<path class="st4" d="M142.77,279.62c-1.19-0.06-2.36-0.15-3.53-0.25c-5.2-0.49-10.63-1.74-14.38-5.37
			c-1.19-1.14-2.19-2.51-3.53-3.46c-1.73-1.25-3.88-1.71-5.77-2.64c-4.5-2.22-6.96-6.59-9.08-10.9c-0.63-1.27-1.28-1.96-1.93-2.24
			c1.2-1.09,2.53-1.98,3.78-3.12c1.73-1.58,2.93-3.94,4.54-5.7c2.38-2.59,5.12-4.85,8.11-6.7c3.61,2.82,4.96,9.42,4.35,13.49
			c-0.25,1.67-0.78,3.39-0.39,5.05c0.66,2.93,3.84,4.59,5.02,7.36c0.86,1.97,0.59,4.32,1.59,6.21c1.2,2.36,3.94,3.4,6.35,4.48
			C139.83,276.67,141.83,277.87,142.77,279.62z"/>
		<path class="st1" d="M131.41,285.11c-2.63-1.79-5.23-3.62-7.9-5.35c0.11-1.39-1.35-2.28-2.69-2.63c-1.36-0.35-2.82-0.31-4.05-0.97
			c-4.13-2.23-7.84-5.15-11.33-8.28c-1.51-1.35-3.71-2.67-4.14-4.73c-0.36-1.76,0.04-3.65,0.86-5.27c0.19-0.37,0.39-0.73,0.62-1.06
			c0.53-0.8,1.13-1.45,1.78-2.06c1.2-1.09,2.53-1.98,3.78-3.12c1.73-1.58,2.93-3.94,4.54-5.7c2.38-2.59,5.12-4.85,8.11-6.7
			c1.48-0.93,3.01-1.76,4.61-2.46c0-3.34,2.45-5.91,5.65-6.84c1.79-0.51,3.82-0.62,5.63-0.16c1.27,0.32,2.64,1.21,3.74,1.9
			c0.02,0,0.04,0.02,0.06,0.03c-1.7,1.29-3.38,2.59-5.07,3.88c2.01,1.44,4.94,4.68,7.59,4.41c0.69-0.08,1.35-0.38,2-0.68
			c0.65-0.3,1.31-0.58,1.97-0.86c-1.58,2.14-2.03,5.15-3.42,7.35c-1.17,1.85-2.94,3.23-4.43,4.84c-3.35,3.62-4.19,7.76-5.48,12.3
			c1.33,1.1,2.66,2.19,3.99,3.29c-2.71-0.44-5.43,1.18-7.07,3.39c-1.63,2.18-4.35,7.56-2.9,10.27c1.09,2.05,4.31,2.04,6.35,2.69
			c2.74,0.87,5.42,1.95,8.01,3.21c5.32,2.59,10.25,5.98,14.56,10.04c-0.65-0.61-4.47-0.48-5.49-0.69c-1.98-0.4-3.92-0.97-5.8-1.68
			c-3.48-1.33-6.4-3.42-9.53-5.38C134.41,287.13,132.91,286.13,131.41,285.11z"/>
		<path class="st1" d="M360.2,278.88c-0.09,1.02-0.32,2.05-0.82,2.95c-0.51,0.91-1.3,1.67-2.3,1.97c-0.23,0.06-0.51,0.11-0.76,0.07
			c-0.03-0.38,0.08-0.81,0.17-1.19c0.72-2.74,0.81-5.94-0.38-8.57c0.09,0,0.24,0.03,0.41,0.11c0.97,0.47,1.88,1.51,2.71,2.18
			c0.26,0.21,0.53,0.44,0.7,0.72C360.26,277.62,360.27,278.27,360.2,278.88z"/>
	</g>
	<g>
		<path class="st11" d="M261.22,396.19c-1.38,2.88-6.1,5.45-8.16,6.9c-4.81,3.41-9.99,6.29-15.41,8.62
			c-10.85,4.65-22.67,7.04-34.48,6.89c-7.9-0.12-14.24-2.81-21.79-4.69c-8.8-2.2-17.56-4.6-26.23-7.22
			c-17.35-5.26-34.38-11.52-50.78-19.2c-29.1-13.65-56.38-32.01-77.98-55.98c-5.2-5.78-9.55-11.34-7.06-18.95
			c0.02-0.02,0.03-0.04,0.03-0.06c0.23-0.72,0.53-1.46,0.9-2.22c2.04-4.22,5.53-7.58,9.21-10.49c7.34-5.83,15.78-10.27,24.74-13.04
			c3.82-1.17,7.82-2.05,11.79-1.62c7.45,0.79,12.17,7.78,17.58,12.31c6.33,5.28,12.78,10.41,19.38,15.38
			c13.17,9.93,26.85,19.19,40.97,27.73c28.21,17.08,58.19,31.26,89.39,41.99c5.51,1.89,11.07,3.68,16.64,5.34
			c3.36,1,8.76,1.51,10.96,4.74c0.1,0.14,0.19,0.28,0.27,0.45C261.78,394.13,261.71,395.17,261.22,396.19z"/>
		<path class="st14" d="M261.22,396.19c-1.34-3.45-5.66-4.8-9.1-5.69c-41.56-10.84-81.32-28.57-117.16-52.23
			c-12.54-8.29-24.59-17.27-36.63-26.26c-8.43-6.3-16.88-12.61-25.33-18.9c-3.32-2.48-6.69-6.51-10.99-6.01
			c-4.87,0.55-9.45,2.37-13.93,4.24c-6.43,2.67-12.91,5.38-18.51,9.47c-4.22,3.08-7.94,7.05-10.2,11.7c0.23-0.72,0.53-1.46,0.9-2.22
			c2.04-4.22,5.53-7.58,9.21-10.49c7.34-5.83,15.78-10.27,24.74-13.04c3.82-1.17,7.82-2.05,11.79-1.62
			c7.45,0.79,12.17,7.78,17.58,12.31c6.33,5.28,12.78,10.41,19.38,15.38c13.17,9.93,26.85,19.19,40.97,27.73
			c28.21,17.08,58.19,31.26,89.39,41.99c5.51,1.89,11.07,3.68,16.64,5.34c3.36,1,8.76,1.51,10.96,4.74c0.1,0.14,0.19,0.28,0.27,0.45
			C261.78,394.13,261.71,395.17,261.22,396.19z"/>
		<g>
			<path class="st15" d="M79.46,369.46c-0.1,1.71-1.34,3.12-2.51,4.37c-1.43,1.54-2.87,3.08-4.3,4.62
				c-0.83,0.89-1.66,1.78-2.67,2.46c-2.26,1.52-4.73,0.56-7.03-0.21c-8.18-2.73-15.23-11.02-15.5-19.87
				c-0.1-3.39,1.61-5.19,3.86-7.52c1.63-1.69,3.41-3.25,5.3-4.64c1.27-0.93,2.75-1.75,4.38-1.47c1.54,0.26,3.13,1.35,4.46,2.14
				c3.63,2.16,6.79,4.89,9.27,8.3C77.21,361.06,79.73,365.04,79.46,369.46z"/>
			<path class="st16" d="M62.79,348.62c-1.31-0.51-3.3-1.16-4.43-0.03c-1.04,1.04-1.44,2.66-1.48,4.09c-0.08,3,1.2,6.09,2.7,8.59
				c1.82,3.03,4.4,5.54,7.28,7.55c2.29,1.6,4.86,2.92,7.62,3.26c1.35,0.16,2.95-0.04,3.65-1.21c0.53-0.89,0.36-2.02,0.12-3.03
				c-0.98-4.18-2.78-8.18-5.41-11.55C70.21,352.91,66.74,350.18,62.79,348.62z"/>
			<path class="st17" d="M88.46,336.96c-4-0.61-7.07,3.7-9.26,6.38c-0.04,0.05-0.09,0.09-0.13,0.14c0.07-1.61-0.01-3.05-0.78-4.58
				c-0.37-0.73-0.87-1.42-1.57-1.83c-1.09-0.63-2.54-0.43-3.53,0.33c-1.56,1.21-1.44,3.05-1.31,4.83c0.18,2.43,0.59,4.88,0.92,7.3
				c-1.2,1-2.42,1.98-3.62,2.95c-2.38,1.93-5.19,4.71-3.42,7.98c1.24,1.78,5.06,5.31,7.16,2.77c6.69-5.89,13.6-11.62,19.3-18.55
				C94.65,341.73,90.95,338.48,88.46,336.96z"/>
			<path class="st15" d="M91.48,320.12c-3.84,2.82-7.31,6.13-10.32,9.82c-0.9,1.1,1.24,6.22,1.72,7.37c1.01,2.4,2.44,4.63,4.16,6.59
				c2.69,3.07,8.62,8.59,13.12,7.26c3.14-0.93,6.86-3.86,9.3-6.03c3.32-2.94,4.67-6.84,2.94-11.06c-1.39-3.39-4.13-6.38-6.88-8.74
				C102.47,322.7,95.81,316.94,91.48,320.12z"/>
			<path class="st18" d="M93.28,327.9c1.26,3.06,2.85,6.01,4.97,8.55c2.12,2.54,4.78,4.68,7.85,5.92c1.3,0.53,3.11,0.89,4.13-0.37
				c0.77-0.95,1.48-2.43,1.64-3.63c0.16-1.25-0.08-2.51-0.48-3.7c-1.34-4.02-4.08-7.44-7.31-10.11c-1.53-1.26-3.16-2.43-5-3.2
				c-1.65-0.69-3.81-1.46-5.58-0.84C90.51,321.57,92.46,325.9,93.28,327.9z"/>
			<path class="st16" d="M99.15,329.16c-0.12-0.3-0.22-0.67-0.03-0.94c0.24-0.33,0.74-0.27,1.12-0.15c2.08,0.66,3.84,2.24,4.71,4.23
				c0.17,0.39,0.31,0.86,0.11,1.24c-0.15,0.29-0.47,0.47-0.8,0.51c-0.33,0.04-0.66-0.04-0.97-0.14
				C101.28,333.22,99.9,331.06,99.15,329.16z"/>
		</g>
		<g>
			<path class="st15" d="M188.69,427.66c-0.27,1.7-1.63,2.98-2.92,4.11c-1.57,1.4-3.15,2.79-4.72,4.19
				c-0.91,0.8-1.82,1.61-2.89,2.19c-2.39,1.3-4.76,0.11-6.98-0.88c-7.88-3.5-14.11-12.42-13.54-21.25c0.22-3.38,2.1-5.01,4.56-7.12
				c1.79-1.53,3.7-2.91,5.72-4.11c1.35-0.81,2.9-1.48,4.5-1.05c1.51,0.41,2.99,1.64,4.23,2.55c3.41,2.5,6.29,5.51,8.44,9.14
				C187.25,419.09,189.37,423.29,188.69,427.66z"/>
			<path class="st16" d="M174.07,405.33c-1.25-0.64-3.18-1.46-4.41-0.46c-1.14,0.93-1.69,2.51-1.86,3.93
				c-0.36,2.98,0.62,6.18,1.87,8.81c1.52,3.19,3.85,5.93,6.53,8.2c2.13,1.81,4.56,3.37,7.27,3.97c1.32,0.29,2.94,0.24,3.75-0.86
				c0.61-0.83,0.55-1.97,0.41-3c-0.58-4.25-1.99-8.41-4.29-12.01C181.05,410.3,177.86,407.26,174.07,405.33z"/>
			<path class="st17" d="M200.74,396.16c-3.92-0.99-7.39,3.01-9.83,5.47c-0.04,0.04-0.1,0.08-0.14,0.13
				c0.23-1.59,0.28-3.03-0.35-4.64c-0.3-0.76-0.73-1.5-1.39-1.97c-1.02-0.73-2.49-0.67-3.55,0c-1.67,1.05-1.73,2.9-1.77,4.68
				c-0.06,2.44,0.13,4.91,0.22,7.35c-1.29,0.88-2.6,1.74-3.89,2.59c-2.56,1.69-5.62,4.2-4.16,7.62c1.06,1.89,4.53,5.76,6.87,3.44
				c7.22-5.23,14.64-10.27,20.98-16.63C206.45,401.5,203.07,397.92,200.74,396.16z"/>
			<path class="st15" d="M205.35,379.69c-4.09,2.44-7.86,5.41-11.21,8.8c-1,1.01,0.64,6.31,1.01,7.5c0.78,2.49,1.99,4.84,3.51,6.96
				c2.39,3.31,7.76,9.37,12.37,8.47c3.21-0.63,7.19-3.19,9.83-5.11c3.59-2.61,5.3-6.36,3.98-10.73c-1.06-3.51-3.51-6.74-6.02-9.36
				C216.04,383.3,209.95,376.94,205.35,379.69z"/>
			<path class="st18" d="M206.4,387.6c0.96,3.17,2.27,6.25,4.14,8.99c1.87,2.73,4.32,5.11,7.26,6.64c1.25,0.65,3.01,1.18,4.15,0.02
				c0.86-0.87,1.71-2.27,1.97-3.46c0.28-1.22,0.16-2.51-0.12-3.73c-0.95-4.13-3.36-7.8-6.32-10.76c-1.4-1.4-2.92-2.72-4.67-3.66
				c-1.58-0.84-3.65-1.82-5.47-1.37C204.24,381.04,205.78,385.53,206.4,387.6z"/>
			<path class="st16" d="M212.12,389.42c-0.09-0.31-0.15-0.69,0.06-0.94c0.27-0.3,0.76-0.2,1.13-0.04c2,0.85,3.61,2.59,4.29,4.66
				c0.13,0.41,0.23,0.89-0.01,1.25c-0.18,0.28-0.52,0.42-0.85,0.43s-0.65-0.1-0.95-0.24C213.86,393.66,212.68,391.38,212.12,389.42z
				"/>
		</g>
	</g>
</g>
</svg>
